<svg width="33" height="40" viewBox="0 0 33 40" fill="none" xmlns="http://www.w3.org/2000/svg">
<path d="M1.33242 19.3076L2.45742 15.6691C3.82491 11.2464 7.14159 7.69295 11.4596 6.02421L12.4381 5.64606C15.1865 4.58392 18.2248 4.54318 21.0007 5.53125C25.394 7.09505 28.526 11.0079 29.0897 15.637L29.159 16.2064C29.3039 17.3965 29.6098 18.5613 30.0684 19.6689L31.0945 22.1473C32.3261 25.1221 32.4815 28.4333 31.5338 31.5104L31.1388 32.7926C30.7104 34.1835 29.9368 35.4433 28.8901 36.4546C27.2088 38.079 24.9399 38.9508 22.6035 38.8702L9.45283 38.4164C4.94698 38.0816 1.37064 34.4888 1.05642 29.9814L0.695968 24.8109C0.566444 22.9529 0.782234 21.087 1.33242 19.3076Z" fill="black" stroke="black" stroke-width="0.5"/>
<path d="M2.30828 19.9703L3.33292 16.1538C4.47283 11.908 7.56686 8.45894 11.6644 6.86634L12.4563 6.55858C15.0429 5.55324 17.9054 5.51469 20.5182 6.45002C24.627 7.92089 27.553 11.5858 28.0775 15.9182L28.1497 16.514C28.2851 17.6327 28.5712 18.7279 29.0002 19.77L30.0009 22.201C31.133 24.9509 31.2927 28.0048 30.4538 30.8579L30.0802 32.1285C29.6906 33.4535 28.9654 34.6555 27.9749 35.6179C26.4088 37.1396 24.29 37.9569 22.1078 37.8812L9.67453 37.4498C5.48313 37.1365 2.19507 33.7261 2.03498 29.5261L1.83201 24.2013C1.77765 22.775 1.9382 21.3488 2.30828 19.9703Z" fill="#FF0808" stroke="white" stroke-width="1.5"/>
<path d="M8.9151 20.0972L8.84652 20.1087C7.45176 20.3411 6.06849 19.6367 5.43613 18.372C5.15175 17.8033 5.04209 17.1631 5.12096 16.5321L5.20496 15.86C5.39231 14.3613 6.2224 13.0182 7.47916 12.1803L7.83801 11.9411C8.27335 11.6509 8.77029 11.466 9.28947 11.4011L9.72163 11.3471C11.2741 11.153 12.7031 12.2184 12.9603 13.7617C12.9867 13.9201 13 14.0805 13 14.2411V14.9184C13 16.8238 11.979 18.5832 10.3246 19.5285L10.0148 19.7056C9.67431 19.9001 9.30196 20.0328 8.9151 20.0972Z" fill="white" stroke="white"/>
<path d="M8.9375 18.703L8.84728 18.7177C7.82149 18.8857 6.80489 18.3708 6.33342 17.4444C6.11617 17.0175 6.03233 16.5351 6.09278 16.06L6.1501 15.6095C6.29281 14.4879 6.91976 13.4851 7.8656 12.8656L8.12932 12.6928C8.45541 12.4793 8.82622 12.3435 9.21312 12.296L9.57993 12.2509C10.7242 12.1104 11.7768 12.8945 11.9696 14.0312C11.9898 14.1504 12 14.2711 12 14.392V14.8444C12 16.2732 11.2287 17.5906 9.98289 18.2901L9.76157 18.4143C9.50583 18.5579 9.22693 18.6556 8.9375 18.703Z" fill="black" stroke="black"/>
<path d="M27.7957 17.6331L27.7783 17.6842C27.2807 19.1525 25.8811 20.1225 24.3315 20.0729C23.641 20.0508 22.9722 19.826 22.4085 19.4265L21.7807 18.9815C20.4401 18.0315 19.5777 16.5466 19.4168 14.9114L19.3701 14.4368C19.3142 13.8688 19.392 13.2955 19.5973 12.7629L19.7592 12.3427C20.3755 10.7434 22.1451 9.91676 23.7671 10.4704C23.9323 10.5268 24.0927 10.5967 24.2465 10.6793L24.9226 11.0425C26.7495 12.024 27.9126 13.9068 27.9728 15.9797L27.9843 16.3754C27.9967 16.8025 27.9328 17.2284 27.7957 17.6331Z" fill="white" stroke="white"/>
<path d="M26.6709 16.9858L26.6381 17.0814C26.2689 18.1567 25.2465 18.8696 24.1099 18.8446C23.5858 18.833 23.0773 18.664 22.6506 18.3596L22.2464 18.0713C21.2396 17.3532 20.5981 16.2299 20.4911 14.9979L20.4611 14.6536C20.4242 14.2287 20.4854 13.801 20.64 13.4035L20.7869 13.0255C21.244 11.8502 22.5444 11.2419 23.7395 11.6444C23.8649 11.6867 23.9865 11.7394 24.1031 11.802L24.538 12.0356C25.9152 12.7756 26.7857 14.2015 26.8144 15.7647L26.8195 16.042C26.8254 16.3629 26.7751 16.6823 26.6709 16.9858Z" fill="black" stroke="black"/>
<path d="M27.9349 4.99142C27.9804 5.31706 27.8182 5.75481 27.2515 6.29497C26.6956 6.82494 25.828 7.37432 24.6894 7.90154C22.4181 8.95324 19.1746 9.86818 15.5007 10.3817C11.8268 10.8952 8.45677 10.9046 5.98412 10.516C4.74456 10.3211 3.75966 10.0307 3.07969 9.67344C2.38664 9.30935 2.11061 8.93285 2.0651 8.60721C2.01959 8.28157 2.18181 7.84382 2.74847 7.30366C3.30444 6.7737 4.17196 6.22432 5.31059 5.69709C7.58193 4.64539 10.8254 3.73045 14.4993 3.21696C18.1732 2.70347 21.5432 2.69404 24.0159 3.08268C25.2554 3.27751 26.2403 3.56798 26.9203 3.9252C27.6134 4.28928 27.8894 4.66579 27.9349 4.99142Z" stroke="#FBFF00"/>
</svg>
