<svg width="493" height="455" viewBox="0 0 493 455" fill="none" xmlns="http://www.w3.org/2000/svg">
<rect x="0.00012207" width="492.439" height="455" fill="#3CA502"/>
<path d="M26.5072 134.535L31.1492 115.907C35.9015 96.8372 49.5232 81.2097 67.766 73.8986L71.6468 72.3433C83.4283 67.6217 96.5556 67.5093 108.416 72.0286C126.06 78.7512 138.48 94.7539 140.613 113.514L141.239 119.008C141.814 124.063 143.033 129.024 144.869 133.768L148.85 144.062C154.125 157.701 154.586 172.732 150.158 186.669L148.205 192.814C146.489 198.216 143.546 203.147 139.606 207.222C132.358 214.718 122.265 218.78 111.846 218.395L60.1788 216.487C41.7777 215.015 27.2762 200.206 26.1906 181.778L24.6098 154.945C24.2057 148.085 24.8454 141.203 26.5072 134.535Z" fill="black" stroke="black" stroke-width="0.5"/>
<path d="M31.4486 134.65L36.0652 117.02C40.6133 99.6519 53.1242 85.4671 69.7883 78.785L74.0828 77.0629C84.6983 72.8062 96.5368 72.7541 107.189 76.9171C122.8 83.0176 133.722 97.2926 135.529 113.955L136.251 120.612C136.765 125.351 137.882 130.005 139.574 134.461L143.761 145.487C148.293 157.418 148.934 170.477 145.592 182.795L143.774 189.496C142.343 194.77 139.625 199.606 135.862 203.568C129.339 210.438 120.176 214.171 110.71 213.815L61.6284 211.969C45.0258 210.624 31.9549 197.246 30.9947 180.617L29.4815 154.411C29.0975 147.762 29.7613 141.093 31.4486 134.65Z" fill="#33D1FD" stroke="white" stroke-width="5"/>
<path d="M64.5198 133.398L62.9872 134.347C61.6239 135.192 60.1137 135.772 58.5356 136.057C52.812 137.091 47.1133 134.124 44.677 128.843L44.371 128.18C43.3175 125.896 42.9126 123.366 43.2008 120.868L43.6872 116.649C44.3824 110.621 47.5799 105.163 52.4983 101.609L54.2033 100.377C55.9655 99.104 58.0148 98.285 60.1693 97.9931L60.8241 97.9044C67.602 96.9861 73.866 101.667 74.9055 108.428C75.0025 109.058 75.0512 109.696 75.0512 110.334V114.487C75.0512 122.189 71.0673 129.343 64.5198 133.398Z" fill="white" stroke="white"/>
<path d="M63.0712 128.024L61.9696 128.695C60.945 129.318 59.8133 129.746 58.6324 129.955C54.328 130.719 50.0464 128.501 48.1884 124.544L48.0286 124.203C47.2232 122.488 46.9135 120.582 47.1344 118.7L47.4759 115.791C48.007 111.267 50.4303 107.179 54.1449 104.542L55.3799 103.665C56.7014 102.727 58.2315 102.125 59.8379 101.911L60.5132 101.821C65.5101 101.156 70.1237 104.603 70.9032 109.583C70.9774 110.058 71.0147 110.537 71.0147 111.018V113.892C71.0147 119.666 68.004 125.023 63.0712 128.024Z" fill="black" stroke="black"/>
<path d="M134.778 125.252L134.524 126.066C132.611 132.181 127.16 136.166 120.999 135.952C118.081 135.851 115.228 134.807 112.826 132.961L110.66 131.298C105.153 127.068 101.604 120.549 100.963 113.486L100.762 111.271C100.537 108.794 100.844 106.316 101.659 104.023L102.539 101.549C104.92 94.8505 111.918 91.4945 118.458 93.914C119.16 94.1739 119.843 94.4962 120.497 94.8774L122.604 96.1043C130.308 100.591 135.247 109.069 135.492 118.23L135.533 119.761C135.584 121.635 135.328 123.493 134.778 125.252Z" fill="white" stroke="white"/>
<path d="M130.237 122.425L129.967 123.276C128.549 127.753 124.569 130.683 120.053 130.575C117.839 130.522 115.671 129.737 113.852 128.331L112.315 127.142C108.295 124.035 105.729 119.244 105.315 114.074L105.166 112.221C105.018 110.37 105.259 108.522 105.873 106.811L106.634 104.689C108.4 99.7666 113.541 97.2964 118.36 99.0554C118.893 99.25 119.41 99.4931 119.906 99.782L121.191 100.53C127 103.913 130.697 110.332 130.814 117.239L130.832 118.305C130.856 119.712 130.655 121.105 130.237 122.425Z" fill="black" stroke="black"/>
<path d="M125.051 156.977C122.59 156.453 120.352 155.432 114.315 152.079C113.637 151.702 111.356 150.03 109.247 148.362C104.778 144.829 103.117 143.763 99.8684 142.34C95.9608 140.629 94.8635 139.903 93.2149 139.579C90.3822 139.024 91.221 139.821 92.0984 132.512C92.1616 131.985 92.2253 131.058 92.2398 130.452C92.2652 129.39 92.3376 129.361 94.2459 129.657C96.2522 129.967 100.767 131.518 101.927 132.295C102.276 132.528 103.354 133.236 104.324 133.868C105.294 134.499 106.825 135.8 107.726 136.759C108.627 137.717 109.473 138.501 109.605 138.501C109.738 138.502 110.236 138.987 110.711 139.579C112.053 141.25 113.123 142.37 115.865 144.976C118.106 147.106 118.975 147.8 121.566 149.528C123.07 150.531 125.194 151.352 127.11 151.671C128.242 151.86 129.596 152.092 130.119 152.186C131.363 152.411 134.809 151.19 135.906 150.136C138.38 147.759 139.844 144.523 140.562 139.838C141.359 134.641 140.517 129.641 138.459 127.339C136.801 125.485 133.154 126.438 130.757 129.352C130.411 129.772 130.626 129.177 131.236 128.028C133.934 122.946 137.727 122.389 140.906 126.61C143.23 129.696 144.182 135.091 143.402 140.756C142.946 144.074 141.3 149.657 140.285 151.333C137.023 156.715 132.204 158.501 125.051 156.977ZM42.0599 155.916C40.1226 155.561 37.7402 154.385 36.675 153.257C34.9209 151.4 33.6063 149.044 32.4639 145.709C29.4463 136.899 30.242 128.538 34.5055 124.256C37.3212 121.428 39.7457 121.986 42.7296 126.146C43.4937 127.211 44.1166 128.324 44.1139 128.62C44.1104 129.012 44.0459 129.014 43.8764 128.627C43.5175 127.808 40.6033 125.599 39.449 125.272C34.5483 123.881 31.7835 132.817 34.4186 141.531C36.9535 149.913 42.5602 152.644 50.3048 149.271C53.8309 147.734 56.5571 145.646 61.1631 140.953C63.1332 138.945 64.9862 137.088 65.2809 136.825C65.5756 136.562 66.2444 135.899 66.7671 135.35C69.5845 132.395 73.9303 129.916 78.012 128.935C79.3186 128.62 80.7061 128.288 81.0953 128.195C81.4844 128.102 81.893 128.247 82.0033 128.517C82.1136 128.787 82.3707 131.12 82.5747 133.7L82.9457 138.393L81.3499 138.678C79.5591 138.997 75.1851 140.524 72.7855 141.667C71.9144 142.081 68.4934 144.428 65.1833 146.882C58.1182 152.119 56.738 152.956 52.5129 154.567C49.51 155.712 44.4868 156.36 42.0599 155.916Z" fill="#9A0000"/>
<path d="M454.493 94.4655L449.851 113.093C445.099 132.163 431.477 147.79 413.234 155.101L409.353 156.657C397.572 161.378 384.444 161.491 372.584 156.971C354.941 150.249 342.521 134.246 340.387 115.486L339.762 109.992C339.187 104.937 337.967 99.9765 336.132 95.2316L332.15 84.9378C326.875 71.2989 326.414 56.2679 330.842 42.3311L332.795 36.1859C334.511 30.784 337.455 25.8526 341.395 21.7779C348.642 14.2819 358.735 10.2199 369.155 10.6047L420.821 12.5131C439.222 13.9852 453.724 28.7943 454.81 47.2223L456.39 74.0552C456.794 80.9154 456.155 87.7973 454.493 94.4655Z" fill="black" stroke="black" stroke-width="0.5"/>
<path d="M449.552 94.3503L444.935 111.98C440.387 129.348 427.876 143.533 411.212 150.215L406.917 151.937C396.302 156.194 384.463 156.246 373.811 152.083C358.201 145.982 347.278 131.707 345.471 115.045L344.749 108.388C344.235 103.649 343.119 98.9948 341.426 94.5385L337.239 83.5134C332.707 71.582 332.066 58.5228 335.408 46.2051L337.226 39.5036C338.657 34.2299 341.376 29.3944 345.138 25.4318C351.661 18.5619 360.824 14.8292 370.29 15.1853L419.372 17.0314C435.974 18.3765 449.045 31.7537 450.006 48.3829L451.519 74.5887C451.903 81.2383 451.239 87.9069 449.552 94.3503Z" fill="#00FFD0" stroke="white" stroke-width="5"/>
<path d="M416.48 95.6019L418.013 94.6527C419.376 93.8083 420.887 93.2284 422.465 92.9433C428.188 91.9094 433.887 94.8757 436.323 100.157L436.629 100.82C437.683 103.104 438.088 105.634 437.799 108.132L437.313 112.351C436.618 118.379 433.42 123.837 428.502 127.391L426.797 128.623C425.035 129.896 422.985 130.715 420.831 131.007L420.176 131.096C413.398 132.014 407.134 127.333 406.095 120.572C405.998 119.942 405.949 119.304 405.949 118.666V114.513C405.949 106.811 409.933 99.6572 416.48 95.6019Z" fill="white" stroke="white"/>
<path d="M417.929 100.976L419.031 100.305C420.055 99.6817 421.187 99.2543 422.368 99.0447C426.672 98.2808 430.954 100.499 432.812 104.456L432.972 104.797C433.777 106.512 434.087 108.418 433.866 110.3L433.524 113.209C432.993 117.733 430.57 121.821 426.855 124.458L425.62 125.335C424.299 126.273 422.769 126.875 421.162 127.089L420.487 127.179C415.49 127.844 410.877 124.397 410.097 119.417C410.023 118.942 409.985 118.463 409.985 117.982V115.108C409.985 109.334 412.996 103.977 417.929 100.976Z" fill="black" stroke="black"/>
<path d="M346.222 103.748L346.477 102.934C348.389 96.8189 353.84 92.8343 360.001 93.0481C362.92 93.1493 365.772 94.1929 368.175 96.0385L370.34 97.7021C375.847 101.932 379.396 108.451 380.037 115.514L380.238 117.729C380.463 120.206 380.156 122.684 379.341 124.977L378.461 127.451C376.08 134.149 369.082 137.506 362.542 135.086C361.84 134.826 361.158 134.504 360.503 134.123L358.396 132.896C350.692 128.409 345.753 119.931 345.508 110.77L345.467 109.239C345.417 107.365 345.672 105.507 346.222 103.748Z" fill="white" stroke="white"/>
<path d="M350.763 106.575L351.033 105.724C352.451 101.247 356.431 98.3174 360.947 98.4254C363.161 98.4784 365.329 99.2629 367.148 100.669L368.685 101.858C372.705 104.965 375.271 109.756 375.685 114.926L375.834 116.779C375.982 118.63 375.741 120.478 375.127 122.189L374.366 124.311C372.6 129.233 367.459 131.704 362.64 129.945C362.108 129.75 361.59 129.507 361.094 129.218L359.809 128.47C354.001 125.087 350.303 118.668 350.186 111.761L350.168 110.695C350.144 109.288 350.345 107.895 350.763 106.575Z" fill="black" stroke="black"/>
<path d="M212.507 264.535L217.149 245.907C221.901 226.837 235.523 211.21 253.766 203.899L257.647 202.343C269.428 197.622 282.556 197.509 294.416 202.029C312.059 208.751 324.479 224.754 326.613 243.514L327.238 249.008C327.813 254.063 329.033 259.024 330.868 263.768L334.85 274.062C340.125 287.701 340.586 302.732 336.158 316.669L334.205 322.814C332.489 328.216 329.545 333.147 325.605 337.222C318.358 344.718 308.265 348.78 297.845 348.395L246.179 346.487C227.778 345.015 213.276 330.206 212.19 311.778L210.61 284.945C210.206 278.085 210.845 271.203 212.507 264.535Z" fill="black" stroke="black" stroke-width="0.5"/>
<path d="M217.448 264.65L222.065 247.02C226.613 229.652 239.124 215.467 255.788 208.785L260.083 207.063C270.698 202.806 282.537 202.754 293.189 206.917C308.799 213.018 319.722 227.293 321.529 243.955L322.251 250.612C322.765 255.351 323.881 260.005 325.574 264.461L329.761 275.487C334.293 287.418 334.934 300.477 331.592 312.795L329.774 319.496C328.343 324.77 325.624 329.606 321.862 333.568C315.339 340.438 306.176 344.171 296.71 343.815L247.628 341.969C231.026 340.624 217.955 327.246 216.994 310.617L215.481 284.411C215.097 277.762 215.761 271.093 217.448 264.65Z" fill="#1AFF00" stroke="white" stroke-width="5"/>
<path d="M250.52 263.398L248.987 264.347C247.624 265.192 246.113 265.772 244.535 266.057C238.812 267.091 233.113 264.124 230.677 258.843L230.371 258.18C229.317 255.896 228.912 253.366 229.201 250.868L229.687 246.649C230.382 240.621 233.58 235.163 238.498 231.609L240.203 230.377C241.965 229.104 244.015 228.285 246.169 227.993L246.824 227.904C253.602 226.986 259.866 231.667 260.905 238.428C261.002 239.058 261.051 239.696 261.051 240.334V244.487C261.051 252.189 257.067 259.343 250.52 263.398Z" fill="white" stroke="white"/>
<path d="M249.071 258.024L247.969 258.695C246.945 259.318 245.813 259.746 244.632 259.955C240.328 260.719 236.046 258.501 234.188 254.544L234.028 254.203C233.223 252.488 232.913 250.582 233.134 248.7L233.476 245.791C234.007 241.267 236.43 237.179 240.145 234.542L241.38 233.665C242.701 232.727 244.231 232.125 245.838 231.911L246.513 231.821C251.51 231.156 256.123 234.603 256.903 239.583C256.977 240.058 257.015 240.537 257.015 241.018V243.892C257.015 249.666 254.004 255.023 249.071 258.024Z" fill="black" stroke="black"/>
<path d="M320.778 255.252L320.523 256.066C318.611 262.181 313.16 266.166 306.999 265.952C304.08 265.851 301.228 264.807 298.825 262.961L296.66 261.298C291.153 257.068 287.604 250.549 286.963 243.486L286.762 241.271C286.537 238.794 286.844 236.316 287.659 234.023L288.539 231.549C290.92 224.851 297.918 221.494 304.458 223.914C305.16 224.174 305.842 224.496 306.497 224.877L308.604 226.104C316.308 230.591 321.247 239.069 321.492 248.23L321.533 249.761C321.583 251.635 321.328 253.493 320.778 255.252Z" fill="white" stroke="white"/>
<path d="M316.237 252.425L315.967 253.276C314.549 257.753 310.569 260.683 306.053 260.575C303.839 260.522 301.671 259.737 299.852 258.331L298.315 257.142C294.295 254.035 291.729 249.244 291.315 244.074L291.166 242.221C291.018 240.37 291.259 238.522 291.873 236.811L292.634 234.689C294.4 229.767 299.541 227.296 304.36 229.055C304.892 229.25 305.41 229.493 305.906 229.782L307.191 230.53C312.999 233.913 316.697 240.332 316.814 247.239L316.832 248.305C316.856 249.712 316.655 251.105 316.237 252.425Z" fill="black" stroke="black"/>
<path d="M314.746 198.852C314.875 199.774 314.423 201.256 312.237 203.286C310.115 205.255 306.772 207.331 302.337 209.343C293.497 213.354 280.852 216.873 266.516 218.877C252.179 220.881 239.054 220.963 229.454 219.53C224.636 218.811 220.852 217.731 218.272 216.419C215.613 215.067 214.772 213.765 214.643 212.843C214.514 211.921 214.966 210.438 217.152 208.409C219.274 206.439 222.617 204.363 227.053 202.351C235.892 198.341 248.537 194.821 262.873 192.818C277.21 190.814 290.335 190.731 299.936 192.164C304.753 192.883 308.537 193.963 311.117 195.275C313.776 196.627 314.617 197.93 314.746 198.852Z" stroke="#FBFF00" stroke-width="5"/>
</svg>
