<svg width="3000" height="2000" viewBox="0 0 3000 2000" fill="none" xmlns="http://www.w3.org/2000/svg">
<g clip-path="url(#clip0_73_5)">
<rect width="3000" height="2000" fill="#FF9919"/>
<path d="M2837.71 1750.82L2849.51 1704.19C2859.74 1663.78 2888.49 1630.6 2927.02 1614.72L2934.99 1611.43C2960.85 1600.77 2989.79 1600.36 3015.93 1610.29C3054.4 1624.89 3081.49 1659.75 3086.15 1700.62L3087.59 1713.18C3088.95 1725.07 3091.82 1736.73 3096.15 1747.89L3106.47 1774.48C3117.38 1802.56 3118.92 1833.42 3110.87 1862.45L3106.56 1877.97C3103.13 1890.36 3096.64 1901.69 3087.68 1910.92C3072.54 1926.52 3051.5 1934.97 3029.77 1934.17L2907.51 1929.67C2867.89 1926.49 2836.93 1894.13 2835.51 1854.4L2833.28 1792.44C2832.78 1778.43 2834.27 1764.42 2837.71 1750.82Z" fill="#006FFF" stroke="white" stroke-width="9"/>
<path d="M2913.97 1743.37L2910.36 1745.56C2907.03 1747.58 2903.35 1748.96 2899.51 1749.64C2885.51 1752.12 2871.58 1744.91 2865.52 1732.04L2865.04 1731.04C2862.41 1725.45 2861.4 1719.24 2862.12 1713.11L2863.23 1703.69C2864.97 1688.89 2872.92 1675.52 2885.1 1666.91L2889.14 1664.05C2893.44 1661.01 2898.41 1659.06 2903.63 1658.37L2906 1658.05C2922.17 1655.91 2937.1 1667.06 2939.64 1683.18C2939.88 1684.72 2940 1686.28 2940 1687.84V1697.16C2940 1716.05 2930.13 1733.58 2913.97 1743.37Z" fill="white" stroke="white"/>
<path d="M2874.26 1721.72L2873.81 1721.93L2874.26 1721.72L2874.08 1721.34C2872.08 1717.17 2871.31 1712.52 2871.86 1707.92L2872.63 1701.48C2873.96 1690.4 2879.96 1680.42 2889.13 1674.05L2892.06 1672.02C2895.26 1669.79 2898.96 1668.37 2902.83 1667.86L2905.05 1667.57C2916.9 1666.03 2927.83 1674.19 2929.72 1685.99C2929.91 1687.15 2930 1688.31 2930 1689.48V1695.89C2930 1710.01 2922.56 1723.09 2910.43 1730.32L2907.84 1731.86C2905.35 1733.34 2902.61 1734.35 2899.75 1734.85C2889.27 1736.67 2878.86 1731.31 2874.26 1721.72Z" fill="black" stroke="white"/>
<path d="M3088 1723.79L3087.49 1725.38C3082.76 1740.19 3069.31 1749.88 3054.2 1749.37C3047.15 1749.13 3040.29 1746.68 3034.5 1742.33L3029.05 1738.23C3015.49 1728.03 3006.75 1712.26 3005.16 1695.1L3004.69 1690.03C3004.14 1684.09 3004.89 1678.15 3006.89 1672.63L3008.92 1667.04C3014.8 1650.87 3031.97 1642.69 3047.93 1648.47C3049.62 1649.08 3051.26 1649.84 3052.83 1650.74L3058.47 1653.95C3077.18 1664.61 3089.15 1684.83 3089.75 1706.8L3089.85 1710.64C3089.98 1715.12 3089.35 1719.57 3088 1723.79Z" fill="white" stroke="white"/>
<path d="M3076.75 1716.93L3076.17 1718.71C3072.68 1729.51 3062.91 1736.59 3051.88 1736.34C3046.56 1736.21 3041.37 1734.37 3037.01 1731.08L3033.14 1728.15C3023.27 1720.68 3016.97 1709.13 3015.95 1696.6L3015.6 1692.33C3015.24 1687.92 3015.83 1683.5 3017.33 1679.4L3019.1 1674.56C3023.44 1662.74 3035.98 1656.75 3047.67 1660.93C3048.95 1661.39 3050.19 1661.95 3051.37 1662.63L3054.88 1664.63C3068.94 1672.64 3077.87 1687.91 3078.16 1704.42L3078.21 1707.1C3078.26 1710.45 3077.77 1713.78 3076.75 1716.93Z" fill="black" stroke="white"/>
<path d="M2637.71 1752.82L2649.51 1706.19C2659.74 1665.78 2688.49 1632.6 2727.02 1616.72L2734.99 1613.43C2760.85 1602.77 2789.79 1602.36 2815.93 1612.29C2854.4 1626.89 2881.49 1661.75 2886.15 1702.62L2887.59 1715.18C2888.95 1727.07 2891.82 1738.73 2896.15 1749.89L2906.47 1776.48C2917.38 1804.56 2918.92 1835.42 2910.87 1864.45L2906.56 1879.97C2903.13 1892.36 2896.64 1903.69 2887.68 1912.92C2872.54 1928.52 2851.5 1936.97 2829.77 1936.17L2707.51 1931.67C2667.89 1928.49 2636.93 1896.13 2635.51 1856.4L2633.28 1794.44C2632.78 1780.43 2634.27 1766.42 2637.71 1752.82Z" fill="#9449D9" stroke="white" stroke-width="9"/>
<path d="M2713.97 1745.37L2710.36 1747.56C2707.03 1749.58 2703.35 1750.96 2699.51 1751.64C2685.51 1754.12 2671.58 1746.91 2665.52 1734.04L2665.04 1733.04C2662.41 1727.45 2661.4 1721.24 2662.12 1715.11L2663.23 1705.69C2664.97 1690.89 2672.92 1677.52 2685.1 1668.91L2689.14 1666.05C2693.44 1663.01 2698.41 1661.06 2703.63 1660.37L2706 1660.05C2722.17 1657.91 2737.1 1669.06 2739.64 1685.18C2739.88 1686.72 2740 1688.28 2740 1689.84V1699.16C2740 1718.05 2730.13 1735.58 2713.97 1745.37Z" fill="white" stroke="white"/>
<path d="M2674.26 1723.72L2673.81 1723.93L2674.26 1723.72L2674.08 1723.34C2672.08 1719.17 2671.31 1714.52 2671.86 1709.92L2672.63 1703.48C2673.96 1692.4 2679.96 1682.42 2689.13 1676.05L2692.06 1674.02C2695.26 1671.79 2698.96 1670.37 2702.83 1669.86L2705.05 1669.57C2716.9 1668.03 2727.83 1676.19 2729.72 1687.99C2729.91 1689.15 2730 1690.31 2730 1691.48V1697.89C2730 1712.01 2722.56 1725.09 2710.43 1732.32L2707.84 1733.86C2705.35 1735.34 2702.61 1736.35 2699.75 1736.85C2689.27 1738.67 2678.86 1733.31 2674.26 1723.72Z" fill="black" stroke="white"/>
<path d="M2888 1725.79L2887.49 1727.38C2882.76 1742.19 2869.31 1751.88 2854.2 1751.37C2847.15 1751.13 2840.29 1748.68 2834.5 1744.33L2829.05 1740.23C2815.49 1730.03 2806.75 1714.26 2805.16 1697.1L2804.69 1692.03C2804.14 1686.09 2804.89 1680.15 2806.89 1674.63L2808.92 1669.04C2814.8 1652.87 2831.97 1644.69 2847.93 1650.47C2849.62 1651.08 2851.26 1651.84 2852.83 1652.74L2858.47 1655.95C2877.18 1666.61 2889.15 1686.83 2889.75 1708.8L2889.85 1712.64C2889.98 1717.12 2889.35 1721.57 2888 1725.79Z" fill="white" stroke="white"/>
<path d="M2876.75 1718.93L2876.17 1720.71C2872.68 1731.51 2862.91 1738.59 2851.88 1738.34C2846.56 1738.21 2841.37 1736.37 2837.01 1733.08L2833.14 1730.15C2823.27 1722.68 2816.97 1711.13 2815.95 1698.6L2815.6 1694.33C2815.24 1689.92 2815.83 1685.5 2817.33 1681.4L2819.1 1676.56C2823.44 1664.74 2835.98 1658.75 2847.67 1662.93C2848.95 1663.39 2850.19 1663.95 2851.37 1664.63L2854.88 1666.63C2868.94 1674.64 2877.87 1689.91 2878.16 1706.42L2878.21 1709.1C2878.26 1712.45 2877.77 1715.78 2876.75 1718.93Z" fill="black" stroke="white"/>
<path d="M2744.71 1852.82L2756.51 1806.19C2766.74 1765.78 2795.49 1732.6 2834.02 1716.72L2841.99 1713.43C2867.85 1702.77 2896.79 1702.36 2922.93 1712.29C2961.4 1726.89 2988.49 1761.75 2993.15 1802.62L2994.59 1815.18C2995.95 1827.07 2998.82 1838.73 3003.15 1849.89L3013.47 1876.48C3024.38 1904.56 3025.92 1935.42 3017.87 1964.45L3013.56 1979.97C3010.13 1992.36 3003.64 2003.69 2994.68 2012.92C2979.54 2028.52 2958.5 2036.97 2936.77 2036.17L2814.51 2031.67C2774.89 2028.49 2743.93 1996.13 2742.51 1956.4L2740.28 1894.44C2739.78 1880.43 2741.27 1866.42 2744.71 1852.82Z" fill="#006FFF" stroke="white" stroke-width="9"/>
<path d="M2820.97 1845.37L2817.36 1847.56C2814.03 1849.58 2810.35 1850.96 2806.51 1851.64C2792.51 1854.12 2778.58 1846.91 2772.52 1834.04L2772.04 1833.04C2769.41 1827.45 2768.4 1821.24 2769.12 1815.11L2770.23 1805.69C2771.97 1790.89 2779.92 1777.52 2792.1 1768.91L2796.14 1766.05C2800.44 1763.01 2805.41 1761.06 2810.63 1760.37L2813 1760.05C2829.17 1757.91 2844.1 1769.06 2846.64 1785.18C2846.88 1786.72 2847 1788.28 2847 1789.84V1799.16C2847 1818.05 2837.13 1835.58 2820.97 1845.37Z" fill="white" stroke="white"/>
<path d="M2781.26 1823.72L2780.81 1823.93L2781.26 1823.72L2781.08 1823.34C2779.08 1819.17 2778.31 1814.52 2778.86 1809.92L2779.63 1803.48C2780.96 1792.4 2786.96 1782.42 2796.13 1776.05L2799.06 1774.02C2802.26 1771.79 2805.96 1770.37 2809.83 1769.86L2812.05 1769.57C2823.9 1768.03 2834.83 1776.19 2836.72 1787.99C2836.91 1789.15 2837 1790.31 2837 1791.48V1797.89C2837 1812.01 2829.56 1825.09 2817.43 1832.32L2814.84 1833.86C2812.35 1835.34 2809.61 1836.35 2806.75 1836.85C2796.27 1838.67 2785.86 1833.31 2781.26 1823.72Z" fill="black" stroke="white"/>
<path d="M2995 1825.79L2994.49 1827.38C2989.76 1842.19 2976.31 1851.88 2961.2 1851.37C2954.15 1851.13 2947.29 1848.68 2941.5 1844.33L2936.05 1840.23C2922.49 1830.03 2913.75 1814.26 2912.16 1797.1L2911.69 1792.03C2911.14 1786.09 2911.89 1780.15 2913.89 1774.63L2915.92 1769.04C2921.8 1752.87 2938.97 1744.69 2954.93 1750.47C2956.62 1751.08 2958.26 1751.84 2959.83 1752.74L2965.47 1755.95C2984.18 1766.61 2996.15 1786.83 2996.75 1808.8L2996.85 1812.64C2996.98 1817.12 2996.35 1821.57 2995 1825.79Z" fill="white" stroke="white"/>
<path d="M2983.75 1818.93L2983.17 1820.71C2979.68 1831.51 2969.91 1838.59 2958.88 1838.34C2953.56 1838.21 2948.37 1836.37 2944.01 1833.08L2940.14 1830.15C2930.27 1822.68 2923.97 1811.13 2922.95 1798.6L2922.6 1794.33C2922.24 1789.92 2922.83 1785.5 2924.33 1781.4L2926.1 1776.56C2930.44 1764.74 2942.98 1758.75 2954.67 1762.93C2955.95 1763.39 2957.19 1763.95 2958.37 1764.63L2961.88 1766.63C2975.94 1774.64 2984.87 1789.91 2985.16 1806.42L2985.21 1809.1C2985.26 1812.45 2984.77 1815.78 2983.75 1818.93Z" fill="black" stroke="white"/>
<path d="M2931.97 830.626L2883.92 832.827C2842.28 834.733 2802.2 816.825 2775.84 784.538L2770.38 777.858C2752.7 756.196 2743.93 728.61 2745.86 700.713C2748.71 659.67 2774.22 623.648 2812 607.349L2823.6 602.341C2834.59 597.6 2844.92 591.468 2854.35 584.095L2876.81 566.518C2900.54 547.954 2929.63 537.547 2959.75 536.847L2975.85 536.473C2988.7 536.175 3001.43 539.11 3012.85 545.009C3032.17 554.984 3046.35 572.682 3051.87 593.708L3082.96 712.041C3091.37 750.884 3069.37 789.882 3031.75 802.749L2973.08 822.819C2959.82 827.356 2945.98 829.985 2931.97 830.626Z" fill="#006FFF" stroke="white" stroke-width="9"/>
<path d="M2902.77 759.787L2905.9 762.604C2908.8 765.21 2911.19 768.331 2912.95 771.808C2919.37 784.497 2916.5 799.916 2905.95 809.445L2905.12 810.192C2900.54 814.327 2894.89 817.094 2888.81 818.177L2879.47 819.84C2864.79 822.456 2849.69 818.719 2837.93 809.558L2834.02 806.513C2829.87 803.278 2826.56 799.082 2824.39 794.287L2823.4 792.112C2816.67 777.252 2823.02 759.734 2837.71 752.645C2839.12 751.966 2840.58 751.398 2842.07 750.946L2850.99 748.249C2869.08 742.778 2888.71 747.154 2902.77 759.787Z" fill="white" stroke="white"/>
<path d="M2893.53 804.065L2893.87 804.434L2893.53 804.065L2893.22 804.348C2889.81 807.471 2885.58 809.555 2881.02 810.357L2874.63 811.483C2863.64 813.418 2852.35 810.561 2843.6 803.632L2840.81 801.417C2837.75 798.993 2835.31 795.87 2833.71 792.311L2832.79 790.265C2827.88 779.367 2832.53 766.541 2843.28 761.318C2844.33 760.807 2845.42 760.381 2846.54 760.042L2852.67 758.189C2866.19 754.1 2880.86 757.43 2891.29 766.954L2893.51 768.984C2895.65 770.94 2897.42 773.271 2898.72 775.863C2903.5 785.366 2901.38 796.885 2893.53 804.065Z" fill="black" stroke="white"/>
<path d="M2833.64 598.875L2835.31 598.902C2850.86 599.144 2864.03 609.211 2867.91 623.828C2869.72 630.639 2869.36 637.922 2866.87 644.718L2864.53 651.12C2858.69 667.056 2846.13 679.985 2830.16 686.479L2825.44 688.396C2819.92 690.64 2814.01 691.64 2808.15 691.319L2802.22 690.993C2785.03 690.05 2772.23 675.987 2773.14 659.038C2773.24 657.244 2773.49 655.454 2773.9 653.687L2775.34 647.356C2780.13 626.366 2796.02 609.055 2816.87 602.121L2820.51 600.909C2824.77 599.495 2829.21 598.806 2833.64 598.875Z" fill="white" stroke="white"/>
<path d="M2830.33 611.629L2832.2 611.665C2843.55 611.886 2853.16 619.186 2856.1 629.816C2857.52 634.942 2857.27 640.446 2855.38 645.571L2853.69 650.126C2849.4 661.734 2840.17 671.107 2828.47 675.714L2824.49 677.284C2820.37 678.909 2815.97 679.622 2811.61 679.371L2806.46 679.073C2793.89 678.346 2784.53 668.073 2785.15 655.671C2785.21 654.319 2785.4 652.969 2785.7 651.638L2786.6 647.708C2790.2 631.928 2802.23 618.956 2817.95 613.902L2820.5 613.082C2823.69 612.056 2827.02 611.565 2830.33 611.629Z" fill="black" stroke="white"/>
<path d="M2312.71 1854.82L2324.51 1808.19C2334.74 1767.78 2363.49 1734.6 2402.02 1718.72L2409.99 1715.43C2435.85 1704.77 2464.79 1704.36 2490.93 1714.29C2529.4 1728.89 2556.49 1763.75 2561.15 1804.62L2562.59 1817.18C2563.95 1829.07 2566.82 1840.73 2571.15 1851.89L2581.47 1878.48C2592.38 1906.56 2593.92 1937.42 2585.87 1966.45L2581.56 1981.97C2578.13 1994.36 2571.64 2005.69 2562.68 2014.92C2547.54 2030.52 2526.5 2038.97 2504.77 2038.17L2382.51 2033.67C2342.89 2030.49 2311.93 1998.13 2310.51 1958.4L2308.28 1896.44C2307.78 1882.43 2309.27 1868.42 2312.71 1854.82Z" fill="#006FFF" stroke="white" stroke-width="9"/>
<path d="M2388.97 1847.37L2385.36 1849.56C2382.03 1851.58 2378.35 1852.96 2374.51 1853.64C2360.51 1856.12 2346.58 1848.91 2340.52 1836.04L2340.04 1835.04C2337.41 1829.45 2336.4 1823.24 2337.12 1817.11L2338.23 1807.69C2339.97 1792.89 2347.92 1779.52 2360.1 1770.91L2364.14 1768.05C2368.44 1765.01 2373.41 1763.06 2378.63 1762.37L2381 1762.05C2397.17 1759.91 2412.1 1771.06 2414.64 1787.18C2414.88 1788.72 2415 1790.28 2415 1791.84V1801.16C2415 1820.05 2405.13 1837.58 2388.97 1847.37Z" fill="white" stroke="white"/>
<path d="M2349.26 1825.72L2348.81 1825.93L2349.26 1825.72L2349.08 1825.34C2347.08 1821.17 2346.31 1816.52 2346.86 1811.92L2347.63 1805.48C2348.96 1794.4 2354.96 1784.42 2364.13 1778.05L2367.06 1776.02C2370.26 1773.79 2373.96 1772.37 2377.83 1771.86L2380.05 1771.57C2391.9 1770.03 2402.83 1778.19 2404.72 1789.99C2404.91 1791.15 2405 1792.31 2405 1793.48V1799.89C2405 1814.01 2397.56 1827.09 2385.43 1834.32L2382.84 1835.86C2380.35 1837.34 2377.61 1838.35 2374.75 1838.85C2364.27 1840.67 2353.86 1835.31 2349.26 1825.72Z" fill="black" stroke="white"/>
<path d="M2563 1827.79L2562.49 1829.38C2557.76 1844.19 2544.31 1853.88 2529.2 1853.37C2522.15 1853.13 2515.29 1850.68 2509.5 1846.33L2504.05 1842.23C2490.49 1832.03 2481.75 1816.26 2480.16 1799.1L2479.69 1794.03C2479.14 1788.09 2479.89 1782.15 2481.89 1776.63L2483.92 1771.04C2489.8 1754.87 2506.97 1746.69 2522.93 1752.47C2524.62 1753.08 2526.26 1753.84 2527.83 1754.74L2533.47 1757.95C2552.18 1768.61 2564.15 1788.83 2564.75 1810.8L2564.85 1814.64C2564.98 1819.12 2564.35 1823.57 2563 1827.79Z" fill="white" stroke="white"/>
<path d="M2551.75 1820.93L2551.17 1822.71C2547.68 1833.51 2537.91 1840.59 2526.88 1840.34C2521.56 1840.21 2516.37 1838.37 2512.01 1835.08L2508.14 1832.15C2498.27 1824.68 2491.97 1813.13 2490.95 1800.6L2490.6 1796.33C2490.24 1791.92 2490.83 1787.5 2492.33 1783.4L2494.1 1778.56C2498.44 1766.74 2510.98 1760.75 2522.67 1764.93C2523.95 1765.39 2525.19 1765.95 2526.37 1766.63L2529.88 1768.63C2543.94 1776.64 2552.87 1791.91 2553.16 1808.42L2553.21 1811.1C2553.26 1814.45 2552.77 1817.78 2551.75 1820.93Z" fill="black" stroke="white"/>
<path d="M88.7068 1720.82L100.512 1674.19C110.74 1633.78 139.485 1600.6 178.02 1584.72L185.993 1581.43C211.847 1570.77 240.79 1570.36 266.933 1580.29C305.395 1594.89 332.488 1629.75 337.155 1670.62L338.588 1683.18C339.946 1695.07 342.824 1706.73 347.154 1717.89L357.475 1744.48C368.376 1772.56 369.917 1803.42 361.868 1832.45L357.564 1847.97C354.129 1860.36 347.637 1871.69 338.683 1880.92C323.543 1896.52 302.498 1904.97 280.773 1904.17L158.508 1899.67C118.892 1896.49 87.9341 1864.13 86.5063 1824.4L84.2793 1762.44C83.7758 1748.43 85.2665 1734.42 88.7068 1720.82Z" fill="#006FFF" stroke="white" stroke-width="9"/>
<path d="M164.968 1713.37L161.364 1715.56C158.031 1717.58 154.352 1718.96 150.514 1719.64C136.509 1722.12 122.581 1714.91 116.516 1702.04L116.041 1701.04C113.409 1695.45 112.396 1689.24 113.119 1683.11L114.229 1673.69C115.974 1658.89 123.922 1645.52 136.096 1636.91L140.143 1634.05C144.442 1631.01 149.415 1629.06 154.634 1628.37L157.001 1628.05C173.174 1625.91 188.103 1637.06 190.636 1653.18C190.878 1654.72 191 1656.28 191 1657.84V1667.16C191 1686.05 181.129 1703.58 164.968 1713.37Z" fill="white" stroke="white"/>
<path d="M125.259 1691.72L124.808 1691.93L125.259 1691.72L125.078 1691.34C123.077 1687.17 122.306 1682.52 122.857 1677.92L123.63 1671.48C124.959 1660.4 130.963 1650.42 140.126 1644.05L143.056 1642.02C146.262 1639.79 149.956 1638.37 153.827 1637.86L156.051 1637.57C167.904 1636.03 178.835 1644.19 180.723 1655.99C180.907 1657.15 181 1658.31 181 1659.48V1665.89C181 1680.01 173.565 1693.09 161.429 1700.32L158.843 1701.86C156.351 1703.34 153.609 1704.35 150.751 1704.85C140.272 1706.67 129.86 1701.31 125.259 1691.72Z" fill="black" stroke="white"/>
<path d="M339.002 1693.79L338.493 1695.38C333.758 1710.19 320.311 1719.88 305.196 1719.37C298.153 1719.13 291.286 1716.68 285.501 1712.33L280.051 1708.23C266.486 1698.03 257.749 1682.26 256.156 1665.1L255.686 1660.03C255.136 1654.09 255.891 1648.15 257.893 1642.63L259.924 1637.04C265.802 1620.87 282.966 1612.69 298.926 1618.47C300.615 1619.08 302.256 1619.84 303.831 1620.74L309.473 1623.95C328.178 1634.61 340.147 1654.83 340.748 1676.8L340.853 1680.64C340.976 1685.12 340.349 1689.57 339.002 1693.79Z" fill="white" stroke="white"/>
<path d="M327.752 1686.93L327.174 1688.71C323.68 1699.51 313.909 1706.59 302.881 1706.34C297.564 1706.21 292.369 1704.37 288.012 1701.08L284.139 1698.15C274.27 1690.68 267.973 1679.13 266.947 1666.6L266.597 1662.33C266.235 1657.92 266.827 1653.5 268.328 1649.4L270.104 1644.56C274.439 1632.74 286.981 1626.75 298.674 1630.93C299.95 1631.39 301.187 1631.95 302.374 1632.63L305.876 1634.63C319.939 1642.64 328.873 1657.91 329.159 1674.42L329.205 1677.1C329.264 1680.45 328.772 1683.78 327.752 1686.93Z" fill="black" stroke="white"/>
<path d="M2774.86 158.155L2742.15 193.428C2713.81 223.991 2672.68 239.339 2631.24 234.814L2622.67 233.878C2594.87 230.842 2569.27 217.329 2551.08 196.088C2524.32 164.839 2517.25 121.266 2532.74 83.1541L2537.5 71.443C2542.01 60.3584 2545.07 48.7409 2546.62 36.8756L2550.3 8.59091C2554.19 -21.2833 2567.63 -49.1024 2588.6 -70.7258L2599.82 -82.2878C2608.77 -91.5163 2619.9 -98.3481 2632.18 -102.156C2652.95 -108.594 2675.47 -105.925 2694.15 -94.8122L2799.31 -32.269C2832.55 -10.4862 2844.22 32.7465 2826.43 68.2996L2798.69 123.755C2792.42 136.293 2784.39 147.875 2774.86 158.155Z" fill="#006FFF" stroke="white" stroke-width="9"/>
<path d="M2704.36 128.147L2708.57 127.957C2712.46 127.782 2716.35 128.33 2720.05 129.574C2733.52 134.113 2742.29 147.115 2741.45 161.312L2741.38 162.425C2741.02 168.586 2738.93 174.522 2735.36 179.556L2729.87 187.29C2721.24 199.45 2707.86 207.376 2693.05 209.097L2688.13 209.669C2682.9 210.277 2677.6 209.605 2672.69 207.711L2670.46 206.852C2655.24 200.983 2647.48 184.041 2652.98 168.682C2653.5 167.212 2654.15 165.784 2654.89 164.413L2659.36 156.236C2668.42 139.65 2685.48 128.999 2704.36 128.147Z" fill="white" stroke="white"/>
<path d="M2728.83 166.185L2729.33 166.211L2728.83 166.185L2728.81 166.603C2728.56 171.222 2727.01 175.677 2724.33 179.443L2720.56 184.729C2714.08 193.815 2704.03 199.698 2692.94 200.893L2689.39 201.275C2685.51 201.694 2681.59 201.175 2677.95 199.762L2675.86 198.95C2664.71 194.625 2659.03 182.223 2663.03 170.96C2663.42 169.858 2663.9 168.79 2664.46 167.764L2667.53 162.144C2674.29 149.748 2687.09 141.83 2701.2 141.304L2704.21 141.192C2707.11 141.084 2710 141.507 2712.75 142.441C2722.82 145.866 2729.39 155.564 2728.83 166.185Z" fill="black" stroke="white"/>
<path d="M2542.22 61.9377L2543.43 60.7837C2554.69 50.0489 2571.13 47.9891 2584.15 55.6834C2590.22 59.2688 2595.07 64.7145 2598.06 71.3029L2600.88 77.5103C2607.9 92.96 2608.01 110.991 2601.18 126.82L2599.17 131.494C2596.81 136.965 2593.29 141.825 2588.9 145.703L2584.43 149.635C2571.52 161.017 2552.54 159.967 2541.3 147.248C2540.11 145.901 2539.03 144.449 2538.08 142.907L2534.67 137.382C2523.36 119.063 2522.55 95.576 2532.55 76.0098L2534.3 72.5899C2536.34 68.5974 2539.02 64.9929 2542.22 61.9377Z" fill="white" stroke="white"/>
<path d="M2548.81 73.3492L2550.17 72.0593C2558.41 64.2599 2570.38 62.7209 2579.94 68.2325C2584.54 70.8901 2588.22 74.9916 2590.47 79.9733L2592.46 84.4007C2597.55 95.683 2597.54 108.843 2592.43 120.327L2590.7 124.24C2588.9 128.29 2586.26 131.885 2582.98 134.76L2579.1 138.16C2569.63 146.46 2555.75 145.701 2547.49 136.431C2546.59 135.42 2545.78 134.328 2545.06 133.166L2542.94 129.736C2534.44 115.964 2533.92 98.2793 2541.58 83.6494L2542.82 81.2756C2544.38 78.3056 2546.4 75.625 2548.81 73.3492Z" fill="black" stroke="white"/>
<path d="M2179.17 11.5767L2178.06 59.6697C2177.1 101.339 2156.47 140.097 2122.45 164.174L2115.41 169.156C2092.59 185.31 2064.46 192.161 2036.76 188.314C1996.01 182.655 1961.83 154.722 1948.17 115.916L1943.97 103.992C1940 92.7056 1934.59 81.9765 1927.88 72.068L1911.89 48.448C1895 23.5005 1886.62 -6.23367 1887.99 -36.3291L1888.73 -52.421C1889.31 -65.2652 1893.12 -77.7565 1899.79 -88.7481C1911.07 -107.333 1929.7 -120.264 1951.05 -124.328L2071.24 -147.205C2110.57 -152.931 2147.97 -128.294 2158.22 -89.8849L2174.2 -29.9743C2177.82 -16.4292 2179.49 -2.43885 2179.17 11.5767Z" fill="#006FFF" stroke="white" stroke-width="9"/>
<path d="M2106.49 35.8443L2109.51 32.9118C2112.31 30.1993 2115.59 28.0293 2119.18 26.5121C2132.28 20.976 2147.47 24.8984 2156.25 36.0865L2156.93 36.9632C2160.74 41.8188 2163.12 47.6464 2163.78 53.7831L2164.8 63.2118C2166.4 78.0355 2161.63 92.842 2151.68 103.948L2148.38 107.64C2144.86 111.561 2140.45 114.57 2135.52 116.409L2133.28 117.243C2117.99 122.939 2100.95 115.397 2094.89 100.251C2094.31 98.8009 2093.84 97.3077 2093.49 95.785L2091.42 86.7027C2087.2 68.2809 2092.92 48.9961 2106.49 35.8443Z" fill="white" stroke="white"/>
<path d="M2150.03 48.1013L2150.42 47.7899L2150.03 48.1013L2150.29 48.4291C2153.17 52.0482 2154.96 56.4137 2155.44 61.0135L2156.13 67.4675C2157.3 78.5629 2153.67 89.631 2146.16 97.8796L2143.76 100.517C2141.13 103.403 2137.85 105.616 2134.19 106.971L2132.08 107.749C2120.87 111.897 2108.4 106.378 2103.92 95.2938C2103.49 94.21 2103.14 93.0931 2102.88 91.9538L2101.45 85.712C2098.3 71.9439 2102.63 57.5347 2112.85 47.785L2115.03 45.707C2117.12 43.7049 2119.57 42.1039 2122.25 40.9829C2132.06 36.8724 2143.4 39.7798 2150.03 48.1013Z" fill="black" stroke="white"/>
<path d="M1941.2 93.7467L1941.34 92.0806C1942.66 76.582 1953.6 64.1385 1968.45 61.2684C1975.37 59.931 1982.61 60.7934 1989.22 63.7421L1995.45 66.5203C2010.94 73.4349 2022.98 86.8622 2028.36 103.24L2029.95 108.077C2031.81 113.738 2032.4 119.706 2031.68 125.524L2030.94 131.426C2028.82 148.507 2013.91 160.304 1997.06 158.231C1995.28 158.011 1993.51 157.638 1991.78 157.114L1985.56 155.238C1964.95 149.019 1948.77 131.973 1943.29 110.695L1942.33 106.976C1941.21 102.634 1940.83 98.1578 1941.2 93.7467Z" fill="white" stroke="white"/>
<path d="M1953.7 97.9252L1953.86 96.056C1954.86 84.754 1962.81 75.6655 1973.62 73.4581C1978.83 72.3937 1984.3 73.026 1989.28 75.268L1993.71 77.2605C2005 82.3381 2013.71 92.1981 2017.5 104.179L2018.8 108.26C2020.13 112.486 2020.54 116.925 2019.99 121.252L2019.34 126.369C2017.75 138.862 2006.86 147.492 1994.53 146.027C1993.19 145.867 1991.85 145.589 1990.54 145.194L1986.69 144.03C1971.19 139.354 1959.08 126.461 1955.11 110.428L1954.47 107.826C1953.67 104.571 1953.41 101.223 1953.7 97.9252Z" fill="black" stroke="white"/>
<path d="M1258.17 31.5767L1257.06 79.6697C1256.1 121.339 1235.47 160.097 1201.45 184.174L1194.41 189.156C1171.59 205.31 1143.46 212.161 1115.76 208.314C1075.01 202.655 1040.83 174.722 1027.17 135.916L1022.97 123.992C1019 112.706 1013.59 101.976 1006.88 92.068L990.891 68.448C974.002 43.5005 965.62 13.7663 966.993 -16.3291L967.727 -32.421C968.312 -45.2652 972.115 -57.7565 978.786 -68.7481C990.065 -87.3331 1008.7 -100.264 1030.05 -104.328L1150.24 -127.205C1189.57 -132.931 1226.97 -108.294 1237.22 -69.8849L1253.2 -9.97434C1256.82 3.57084 1258.49 17.5612 1258.17 31.5767Z" fill="#006FFF" stroke="white" stroke-width="9"/>
<path d="M1185.49 55.8443L1188.51 52.9118C1191.31 50.1993 1194.59 48.0293 1198.18 46.5121C1211.28 40.976 1226.47 44.8984 1235.25 56.0865L1235.93 56.9632C1239.74 61.8188 1242.12 67.6464 1242.78 73.7831L1243.8 83.2118C1245.4 98.0355 1240.63 112.842 1230.68 123.948L1227.38 127.64C1223.86 131.561 1219.45 134.57 1214.52 136.409L1212.28 137.243C1196.99 142.939 1179.95 135.397 1173.89 120.251C1173.31 118.801 1172.84 117.308 1172.49 115.785L1170.42 106.703C1166.2 88.2809 1171.92 68.9961 1185.49 55.8443Z" fill="white" stroke="white"/>
<path d="M1229.03 68.1013L1229.42 67.7899L1229.03 68.1013L1229.29 68.4291C1232.17 72.0482 1233.96 76.4137 1234.44 81.0135L1235.13 87.4675C1236.3 98.5629 1232.67 109.631 1225.16 117.88L1222.76 120.517C1220.13 123.403 1216.85 125.616 1213.19 126.971L1211.08 127.749C1199.87 131.897 1187.4 126.378 1182.92 115.294C1182.49 114.21 1182.14 113.093 1181.88 111.954L1180.45 105.712C1177.3 91.9439 1181.63 77.5347 1191.85 67.785L1194.03 65.707C1196.12 63.7049 1198.57 62.1039 1201.25 60.9829C1211.06 56.8724 1222.4 59.7798 1229.03 68.1013Z" fill="black" stroke="white"/>
<path d="M1020.2 113.747L1020.34 112.081C1021.66 96.5821 1032.6 84.1387 1047.45 81.2685C1054.37 79.9311 1061.61 80.7935 1068.22 83.7423L1074.45 86.5204C1089.94 93.435 1101.98 106.862 1107.36 123.241L1108.95 128.077C1110.81 133.738 1111.4 139.706 1110.68 145.525L1109.94 151.426C1107.82 168.507 1092.91 180.304 1076.06 178.231C1074.28 178.011 1072.51 177.638 1070.78 177.114L1064.56 175.238C1043.95 169.019 1027.77 151.973 1022.29 130.695L1021.33 126.976C1020.21 122.634 1019.83 118.158 1020.2 113.747Z" fill="white" stroke="white"/>
<path d="M1032.7 117.925L1032.86 116.056C1033.86 104.754 1041.81 95.6655 1052.62 93.4581C1057.83 92.3937 1063.3 93.026 1068.28 95.268L1072.71 97.2605C1084 102.338 1092.71 112.198 1096.5 124.179L1097.8 128.26C1099.13 132.486 1099.54 136.925 1098.99 141.252L1098.34 146.369C1096.75 158.862 1085.86 167.492 1073.53 166.027C1072.19 165.867 1070.85 165.589 1069.54 165.194L1065.69 164.03C1050.19 159.354 1038.08 146.461 1034.11 130.428L1033.47 127.826C1032.67 124.571 1032.41 121.223 1032.7 117.925Z" fill="black" stroke="white"/>
<path d="M238.707 1854.82L250.512 1808.19C260.74 1767.78 289.485 1734.6 328.02 1718.72L335.993 1715.43C361.847 1704.77 390.79 1704.36 416.933 1714.29C455.395 1728.89 482.488 1763.75 487.155 1804.62L488.588 1817.18C489.946 1829.07 492.824 1840.73 497.154 1851.89L507.475 1878.48C518.376 1906.56 519.917 1937.42 511.868 1966.45L507.564 1981.97C504.129 1994.36 497.637 2005.69 488.683 2014.92C473.543 2030.52 452.498 2038.97 430.773 2038.17L308.508 2033.67C268.892 2030.49 237.934 1998.13 236.506 1958.4L234.279 1896.44C233.776 1882.43 235.267 1868.42 238.707 1854.82Z" fill="#006FFF" stroke="white" stroke-width="9"/>
<path d="M314.968 1847.37L311.364 1849.56C308.031 1851.58 304.352 1852.96 300.514 1853.64C286.509 1856.12 272.581 1848.91 266.516 1836.04L266.041 1835.04C263.409 1829.45 262.396 1823.24 263.119 1817.11L264.229 1807.69C265.974 1792.89 273.922 1779.52 286.096 1770.91L290.143 1768.05C294.442 1765.01 299.415 1763.06 304.634 1762.37L307.001 1762.05C323.174 1759.91 338.103 1771.06 340.636 1787.18C340.878 1788.72 341 1790.28 341 1791.84V1801.16C341 1820.05 331.129 1837.58 314.968 1847.37Z" fill="white" stroke="white"/>
<path d="M275.259 1825.72L274.808 1825.93L275.259 1825.72L275.078 1825.34C273.077 1821.17 272.306 1816.52 272.857 1811.92L273.63 1805.48C274.959 1794.4 280.963 1784.42 290.126 1778.05L293.056 1776.02C296.262 1773.79 299.956 1772.37 303.827 1771.86L306.051 1771.57C317.904 1770.03 328.835 1778.19 330.723 1789.99C330.907 1791.15 331 1792.31 331 1793.48V1799.89C331 1814.01 323.565 1827.09 311.429 1834.32L308.843 1835.86C306.351 1837.34 303.609 1838.35 300.751 1838.85C290.272 1840.67 279.86 1835.31 275.259 1825.72Z" fill="black" stroke="white"/>
<path d="M489.002 1827.79L488.493 1829.38C483.758 1844.19 470.311 1853.88 455.196 1853.37C448.153 1853.13 441.286 1850.68 435.501 1846.33L430.051 1842.23C416.486 1832.03 407.749 1816.26 406.156 1799.1L405.686 1794.03C405.136 1788.09 405.891 1782.15 407.893 1776.63L409.924 1771.04C415.802 1754.87 432.966 1746.69 448.926 1752.47C450.615 1753.08 452.256 1753.84 453.831 1754.74L459.473 1757.95C478.178 1768.61 490.147 1788.83 490.748 1810.8L490.853 1814.64C490.976 1819.12 490.349 1823.57 489.002 1827.79Z" fill="white" stroke="white"/>
<path d="M477.752 1820.93L477.174 1822.71C473.68 1833.51 463.909 1840.59 452.881 1840.34C447.564 1840.21 442.369 1838.37 438.012 1835.08L434.139 1832.15C424.27 1824.68 417.973 1813.13 416.947 1800.6L416.597 1796.33C416.235 1791.92 416.827 1787.5 418.328 1783.4L420.104 1778.56C424.439 1766.74 436.981 1760.75 448.674 1764.93C449.95 1765.39 451.187 1765.95 452.374 1766.63L455.876 1768.63C469.939 1776.64 478.873 1791.91 479.159 1808.42L479.205 1811.1C479.264 1814.45 478.772 1817.78 477.752 1820.93Z" fill="black" stroke="white"/>
<path d="M-17.9411 646.686L29.3471 637.855C70.3195 630.203 112.496 642.39 143.072 670.717L149.398 676.578C169.912 695.583 182.414 721.689 184.362 749.585C187.227 790.626 166.942 829.834 131.788 851.205L120.986 857.772C110.761 863.988 101.378 871.491 93.0653 880.098L73.2501 900.615C52.3212 922.286 24.9544 936.619 -4.77727 941.481L-20.6747 944.081C-33.3637 946.156 -46.3707 945.011 -58.5016 940.75C-79.013 933.545 -95.5073 917.981 -103.889 897.921L-151.056 785.031C-164.769 747.728 -148.373 706.059 -112.902 688.108L-57.5759 660.11C-45.0672 653.78 -31.722 649.26 -17.9411 646.686Z" fill="#006FFF" stroke="white" stroke-width="9"/>
<path d="M20.7914 712.8L17.298 710.444C14.0667 708.264 11.2675 705.505 9.04262 702.304C0.924119 690.627 1.63107 674.959 10.7682 664.061L11.4842 663.207C15.4497 658.477 20.663 654.955 26.5312 653.041L35.5474 650.1C49.7225 645.478 65.1937 647.089 78.1121 654.533L82.4068 657.008C86.9682 659.637 90.8227 663.334 93.6386 667.782L94.9162 669.8C103.642 683.584 99.776 701.813 86.2057 710.869C84.9064 711.736 83.5415 712.5 82.1233 713.155L73.6646 717.06C56.5075 724.982 36.4588 723.367 20.7914 712.8Z" fill="white" stroke="white"/>
<path d="M23.8071 667.67L23.4218 667.352L23.8071 667.67L24.0741 667.347C27.0214 663.782 30.9243 661.132 35.3248 659.707L41.4992 657.707C52.114 654.27 63.6921 655.537 73.3126 661.188L76.3883 662.994C79.7544 664.972 82.5971 667.728 84.6777 671.031L85.8731 672.929C92.2432 683.042 89.4157 696.388 79.4916 703.05C78.5212 703.701 77.5006 704.274 76.4395 704.764L70.6262 707.449C57.8035 713.369 42.8108 712.102 31.1635 704.113L28.6811 702.411C26.2894 700.77 24.2181 698.706 22.5698 696.32C16.5248 687.569 17.0302 675.867 23.8071 667.67Z" fill="black" stroke="white"/>
<path d="M111.531 862.593L109.872 862.798C94.4358 864.711 80.0023 856.564 74.1319 842.626C71.3964 836.131 70.7472 828.867 72.2699 821.793L73.7044 815.127C77.275 798.538 87.9322 783.993 102.849 775.352L107.254 772.8C112.41 769.813 118.128 768.004 123.971 767.512L129.896 767.013C147.048 765.568 161.666 777.724 163.111 794.635C163.264 796.426 163.263 798.234 163.108 800.039L162.555 806.509C160.719 827.96 147.375 847.304 127.685 857.057L124.244 858.762C120.226 860.752 115.924 862.048 111.531 862.593Z" fill="white" stroke="white"/>
<path d="M113.044 849.504L111.181 849.728C99.9154 851.08 89.3843 845.181 84.9956 835.06C82.8796 830.18 82.3696 824.694 83.536 819.356L84.5726 814.612C87.2141 802.523 95.065 791.961 106.006 785.779L109.733 783.673C113.592 781.493 117.852 780.178 122.199 779.824L127.341 779.406C139.893 778.385 150.583 787.264 151.693 799.631C151.814 800.98 151.816 802.342 151.699 803.703L151.356 807.719C149.976 823.846 139.857 838.358 124.985 845.54L122.572 846.705C119.553 848.163 116.331 849.11 113.044 849.504Z" fill="black" stroke="white"/>
<path d="M2499.71 1853.82L2511.51 1807.19C2521.74 1766.78 2550.49 1733.6 2589.02 1717.72L2596.99 1714.43C2622.85 1703.77 2651.79 1703.36 2677.93 1713.29C2716.4 1727.89 2743.49 1762.75 2748.15 1803.62L2749.59 1816.18C2750.95 1828.07 2753.82 1839.73 2758.15 1850.89L2768.47 1877.48C2779.38 1905.56 2780.92 1936.42 2772.87 1965.45L2768.56 1980.97C2765.13 1993.36 2758.64 2004.69 2749.68 2013.92C2734.54 2029.52 2713.5 2037.97 2691.77 2037.17L2569.51 2032.67C2529.89 2029.49 2498.93 1997.13 2497.51 1957.4L2495.28 1895.44C2494.78 1881.43 2496.27 1867.42 2499.71 1853.82Z" fill="#9449D9" stroke="white" stroke-width="9"/>
<path d="M2575.97 1846.37L2572.36 1848.56C2569.03 1850.58 2565.35 1851.96 2561.51 1852.64C2547.51 1855.12 2533.58 1847.91 2527.52 1835.04L2527.04 1834.04C2524.41 1828.45 2523.4 1822.24 2524.12 1816.11L2525.23 1806.69C2526.97 1791.89 2534.92 1778.52 2547.1 1769.91L2551.14 1767.05C2555.44 1764.01 2560.41 1762.06 2565.63 1761.37L2568 1761.05C2584.17 1758.91 2599.1 1770.06 2601.64 1786.18C2601.88 1787.72 2602 1789.28 2602 1790.84V1800.16C2602 1819.05 2592.13 1836.58 2575.97 1846.37Z" fill="white" stroke="white"/>
<path d="M2536.26 1824.72L2535.81 1824.93L2536.26 1824.72L2536.08 1824.34C2534.08 1820.17 2533.31 1815.52 2533.86 1810.92L2534.63 1804.48C2535.96 1793.4 2541.96 1783.42 2551.13 1777.05L2554.06 1775.02C2557.26 1772.79 2560.96 1771.37 2564.83 1770.86L2567.05 1770.57C2578.9 1769.03 2589.83 1777.19 2591.72 1788.99C2591.91 1790.15 2592 1791.31 2592 1792.48V1798.89C2592 1813.01 2584.56 1826.09 2572.43 1833.32L2569.84 1834.86C2567.35 1836.34 2564.61 1837.35 2561.75 1837.85C2551.27 1839.67 2540.86 1834.31 2536.26 1824.72Z" fill="black" stroke="white"/>
<path d="M2750 1826.79L2749.49 1828.38C2744.76 1843.19 2731.31 1852.88 2716.2 1852.37C2709.15 1852.13 2702.29 1849.68 2696.5 1845.33L2691.05 1841.23C2677.49 1831.03 2668.75 1815.26 2667.16 1798.1L2666.69 1793.03C2666.14 1787.09 2666.89 1781.15 2668.89 1775.63L2670.92 1770.04C2676.8 1753.87 2693.97 1745.69 2709.93 1751.47C2711.62 1752.08 2713.26 1752.84 2714.83 1753.74L2720.47 1756.95C2739.18 1767.61 2751.15 1787.83 2751.75 1809.8L2751.85 1813.64C2751.98 1818.12 2751.35 1822.57 2750 1826.79Z" fill="white" stroke="white"/>
<path d="M2738.75 1819.93L2738.17 1821.71C2734.68 1832.51 2724.91 1839.59 2713.88 1839.34C2708.56 1839.21 2703.37 1837.37 2699.01 1834.08L2695.14 1831.15C2685.27 1823.68 2678.97 1812.13 2677.95 1799.6L2677.6 1795.33C2677.24 1790.92 2677.83 1786.5 2679.33 1782.4L2681.1 1777.56C2685.44 1765.74 2697.98 1759.75 2709.67 1763.93C2710.95 1764.39 2712.19 1764.95 2713.37 1765.63L2716.88 1767.63C2730.94 1775.64 2739.87 1790.91 2740.16 1807.42L2740.21 1810.1C2740.26 1813.45 2739.77 1816.78 2738.75 1819.93Z" fill="black" stroke="white"/>
<path d="M2875.28 1528.72L2841.19 1494.78C2811.65 1465.38 2797.77 1423.73 2803.76 1382.48L2805 1373.94C2809.02 1346.27 2823.44 1321.17 2845.31 1303.74C2877.49 1278.11 2921.28 1272.58 2958.82 1289.42L2970.36 1294.59C2981.27 1299.48 2992.78 1302.96 3004.58 1304.92L3032.72 1309.61C3062.43 1314.56 3089.76 1328.97 3110.62 1350.7L3121.78 1362.32C3130.69 1371.59 3137.12 1382.96 3140.49 1395.36C3146.19 1416.34 3142.72 1438.76 3130.95 1457.04L3064.72 1559.91C3041.77 1592.36 2998.15 1602.48 2963.25 1583.45L2908.82 1553.76C2896.51 1547.04 2885.22 1538.61 2875.28 1528.72Z" fill="#9449D9" stroke="white" stroke-width="9"/>
<path d="M2907.77 1459.33L2907.81 1463.54C2907.85 1467.44 2907.16 1471.31 2905.79 1474.96C2900.78 1488.27 2887.47 1496.57 2873.31 1495.22L2872.2 1495.12C2866.06 1494.53 2860.2 1492.24 2855.3 1488.49L2847.76 1482.73C2835.92 1473.68 2828.47 1460.02 2827.27 1445.16L2826.88 1440.22C2826.46 1434.97 2827.31 1429.7 2829.38 1424.86L2830.32 1422.66C2836.72 1407.66 2853.93 1400.5 2869.08 1406.54C2870.54 1407.12 2871.94 1407.81 2873.28 1408.61L2881.3 1413.36C2897.55 1423 2907.59 1440.43 2907.77 1459.33Z" fill="white" stroke="white"/>
<path d="M2868.89 1482.44L2868.85 1482.93L2868.89 1482.44L2868.47 1482.4C2863.87 1481.99 2859.47 1480.28 2855.8 1477.47L2850.65 1473.51C2841.8 1466.72 2836.28 1456.47 2835.48 1445.34L2835.22 1441.78C2834.94 1437.89 2835.6 1433.98 2837.14 1430.4L2838.02 1428.33C2842.74 1417.35 2855.34 1412.11 2866.45 1416.51C2867.54 1416.94 2868.59 1417.45 2869.59 1418.05L2875.1 1421.32C2887.25 1428.52 2894.71 1441.59 2894.74 1455.71L2894.74 1458.72C2894.75 1461.62 2894.22 1464.5 2893.19 1467.21C2889.41 1477.15 2879.49 1483.37 2868.89 1482.44Z" fill="black" stroke="white"/>
<path d="M2979.69 1299.64L2980.8 1300.89C2991.13 1312.52 2992.6 1329.03 2984.45 1341.77C2980.65 1347.71 2975.04 1352.36 2968.35 1355.12L2962.05 1357.72C2946.36 1364.18 2928.33 1363.65 2912.76 1356.27L2908.16 1354.09C2902.77 1351.53 2898.04 1347.85 2894.32 1343.32L2890.55 1338.72C2879.63 1325.41 2881.36 1306.48 2894.46 1295.7C2895.85 1294.56 2897.34 1293.53 2898.92 1292.64L2904.56 1289.42C2923.27 1278.77 2946.77 1278.79 2965.97 1289.48L2969.32 1291.34C2973.24 1293.52 2976.75 1296.33 2979.69 1299.64Z" fill="white" stroke="white"/>
<path d="M2968.05 1305.82L2969.29 1307.23C2976.79 1315.74 2977.91 1327.76 2972.06 1337.11C2969.24 1341.62 2965.01 1345.15 2959.95 1347.22L2955.46 1349.06C2944 1353.74 2930.85 1353.26 2919.55 1347.75L2915.71 1345.88C2911.72 1343.94 2908.22 1341.17 2905.47 1337.79L2902.21 1333.8C2894.25 1324.04 2895.5 1310.2 2905.05 1302.27C2906.1 1301.4 2907.22 1300.63 2908.4 1299.95L2911.91 1297.96C2925.97 1289.95 2943.66 1290.06 2958.01 1298.23L2960.34 1299.56C2963.25 1301.22 2965.86 1303.34 2968.05 1305.82Z" fill="black" stroke="white"/>
<path d="M3010.29 143.175L2998.49 189.81C2988.26 230.216 2959.51 263.399 2920.98 279.284L2913.01 282.571C2887.15 293.228 2858.21 293.636 2832.07 283.71C2793.6 269.106 2766.51 234.255 2761.85 193.379L2760.41 180.819C2759.05 168.931 2756.18 157.266 2751.85 146.111L2741.53 119.521C2730.62 91.4352 2729.08 60.5806 2737.13 31.549L2741.44 16.0259C2744.87 3.63574 2751.36 -7.69305 2760.32 -16.9205C2775.46 -32.5225 2796.5 -40.9729 2818.23 -40.1733L2940.49 -35.6733C2980.11 -32.4859 3011.07 -0.131775 3012.49 39.5964L3014.72 101.564C3015.22 115.574 3013.73 129.585 3010.29 143.175Z" fill="#9449D9" stroke="white" stroke-width="9"/>
<path d="M2934.03 150.626L2937.64 148.442C2940.97 146.421 2944.65 145.037 2948.49 144.359C2962.49 141.883 2976.42 149.093 2982.48 161.957L2982.96 162.965C2985.59 168.548 2986.6 174.758 2985.88 180.888L2984.77 190.306C2983.03 205.113 2975.08 218.484 2962.9 227.092L2958.86 229.954C2954.56 232.993 2949.59 234.943 2944.37 235.634L2942 235.948C2925.83 238.092 2910.9 226.941 2908.36 210.824C2908.12 209.281 2908 207.722 2908 206.16V196.843C2908 177.945 2917.87 160.42 2934.03 150.626Z" fill="white" stroke="white"/>
<path d="M2973.74 172.282L2974.19 172.066L2973.74 172.282L2973.92 172.66C2975.92 176.83 2976.69 181.485 2976.14 186.077L2975.37 192.521C2974.04 203.599 2968.04 213.58 2958.87 219.945L2955.94 221.98C2952.74 224.208 2949.04 225.633 2945.17 226.137L2942.95 226.427C2931.1 227.971 2920.17 219.809 2918.28 208.007C2918.09 206.853 2918 205.686 2918 204.517V198.114C2918 183.99 2925.44 170.91 2937.57 163.684L2940.16 162.144C2942.65 160.66 2945.39 159.645 2948.25 159.149C2958.73 157.329 2969.14 162.693 2973.74 172.282Z" fill="black" stroke="white"/>
<path d="M2760 170.215L2760.51 168.622C2765.24 153.806 2778.69 144.117 2793.8 144.63C2800.85 144.87 2807.71 147.325 2813.5 151.673L2818.95 155.77C2832.51 165.966 2841.25 181.738 2842.84 198.904L2843.31 203.973C2843.86 209.906 2843.11 215.855 2841.11 221.366L2839.08 226.955C2833.2 243.133 2816.03 251.309 2800.07 245.531C2798.38 244.92 2796.74 244.161 2795.17 243.264L2789.53 240.049C2770.82 229.391 2758.85 209.166 2758.25 187.201L2758.15 183.362C2758.02 178.88 2758.65 174.432 2760 170.215Z" fill="white" stroke="white"/>
<path d="M2771.25 177.074L2771.83 175.289C2775.32 164.495 2785.09 157.406 2796.12 157.664C2801.44 157.789 2806.63 159.626 2810.99 162.922L2814.86 165.852C2824.73 173.318 2831.03 184.873 2832.05 197.398L2832.4 201.665C2832.76 206.082 2832.17 210.501 2830.67 214.596L2828.9 219.44C2824.56 231.264 2812.02 237.247 2800.33 233.07C2799.05 232.615 2797.81 232.046 2796.63 231.37L2793.12 229.374C2779.06 221.361 2770.13 206.09 2769.84 189.578L2769.79 186.899C2769.74 183.547 2770.23 180.224 2771.25 177.074Z" fill="black" stroke="white"/>
<path d="M1028.86 116.665L996.044 151.836C967.608 182.31 926.428 197.531 885.008 192.876L876.438 191.913C848.649 188.791 823.093 175.198 804.971 153.9C778.309 122.568 771.368 78.9733 786.98 40.9097L791.777 29.2135C796.318 18.143 799.417 6.53506 801 -5.32534L804.773 -33.5984C808.758 -63.4604 822.278 -91.2374 843.323 -112.795L854.575 -124.322C863.557 -133.523 874.706 -140.32 886.998 -144.089C907.783 -150.463 930.295 -147.724 948.946 -136.552L1053.9 -73.6818C1087.08 -51.7955 1098.61 -8.52661 1080.71 26.9709L1052.8 82.3394C1046.49 94.8576 1038.43 106.415 1028.86 116.665Z" fill="#9449D9" stroke="white" stroke-width="9"/>
<path d="M958.454 86.4376L962.664 86.2608C966.558 86.0973 970.449 86.6575 974.139 87.9129C987.603 92.4937 996.332 105.524 995.445 119.718L995.376 120.83C994.991 126.991 992.885 132.92 989.298 137.942L983.786 145.66C975.12 157.793 961.712 165.677 946.896 167.352L941.971 167.908C936.74 168.5 931.443 167.811 926.537 165.902L924.311 165.036C909.107 159.12 901.401 142.154 906.95 126.812C907.481 125.343 908.126 123.918 908.879 122.549L913.369 114.386C922.477 97.8281 939.573 87.2304 958.454 86.4376Z" fill="white" stroke="white"/>
<path d="M982.808 124.551L983.307 124.579L982.808 124.551L982.785 124.97C982.528 129.588 980.96 134.037 978.264 137.796L974.481 143.069C967.977 152.135 957.906 157.987 946.81 159.148L943.262 159.519C939.379 159.925 935.456 159.394 931.821 157.97L929.732 157.152C918.603 152.792 912.959 140.372 916.993 129.121C917.388 128.021 917.869 126.954 918.432 125.93L921.518 120.32C928.325 107.945 941.145 100.067 955.26 99.5848L958.268 99.482C961.167 99.3829 964.059 99.8153 966.802 100.758C976.861 104.214 983.398 113.932 982.808 124.551Z" fill="black" stroke="white"/>
<path d="M796.526 19.7228L797.739 18.5726C809.028 7.87296 825.48 5.86451 838.477 13.5994C844.533 17.2036 849.366 22.6644 852.339 29.2622L855.139 35.4783C862.111 50.9498 862.165 68.9809 855.287 84.7886L853.256 89.4566C850.878 94.9204 847.35 99.7692 842.939 103.633L838.466 107.551C825.518 118.893 806.539 117.784 795.34 105.03C794.154 103.679 793.082 102.224 792.135 100.679L788.741 95.1429C777.488 76.7888 776.749 53.2997 786.808 33.7648L788.567 30.3503C790.619 26.3642 793.313 22.7681 796.526 19.7228Z" fill="white" stroke="white"/>
<path d="M803.076 31.1548L804.443 29.8691C812.707 22.0955 824.684 20.5938 834.223 26.1352C838.822 28.8071 842.488 32.9201 844.717 37.9087L846.698 42.3423C851.747 53.6405 851.695 66.8001 846.558 78.2688L844.808 82.1758C842.996 86.2205 840.348 89.807 837.059 92.6715L833.168 96.0595C823.671 104.33 809.798 103.528 801.566 94.2323C800.668 93.2186 799.858 92.1235 799.144 90.9593L797.037 87.5228C788.578 73.7241 788.109 56.0384 795.817 41.4324L797.068 39.0625C798.632 36.0973 800.664 33.4231 803.076 31.1548Z" fill="black" stroke="white"/>
<path d="M225.895 39.8599L235.152 87.0667C243.173 127.968 231.366 170.253 203.315 201.083L197.512 207.461C178.692 228.146 152.7 240.883 124.822 243.081C83.8084 246.316 44.4199 226.386 22.7327 191.425L16.0687 180.682C9.76115 170.514 2.17353 161.199 -6.50787 152.964L-27.2027 133.335C-49.0606 112.602 -63.6396 85.3651 -68.7697 55.6784L-71.5127 39.805C-73.7022 27.1353 -72.6739 14.1185 -68.5224 1.9497C-61.5027 -18.6258 -46.0873 -35.2596 -26.1041 -43.8212L86.3568 -92.0038C123.535 -106.052 165.35 -90.0315 183.619 -54.7241L212.115 0.347649C218.557 12.7988 223.197 26.1027 225.895 39.8599Z" fill="#9449D9" stroke="white" stroke-width="9"/>
<path d="M160.133 79.1864L162.457 75.6719C164.608 72.421 167.342 69.5971 170.522 67.3435C182.126 59.1201 197.799 59.6859 208.78 68.7246L209.64 69.4328C214.406 73.3555 217.975 78.5369 219.941 84.3877L222.963 93.377C227.713 107.51 226.241 122.995 218.913 135.98L216.477 140.297C213.89 144.882 210.228 148.769 205.805 151.625L203.798 152.921C190.093 161.771 171.83 158.069 162.653 144.581C161.775 143.289 160.998 141.931 160.33 140.519L156.349 132.096C148.273 115.011 149.708 94.9482 160.133 79.1864Z" fill="white" stroke="white"/>
<path d="M205.288 81.796L205.603 81.4077L205.288 81.796L205.613 82.06C209.205 84.9751 211.89 88.8539 213.355 93.2414L215.41 99.3976C218.942 109.981 217.78 121.57 212.216 131.241L210.437 134.333C208.49 137.717 205.76 140.584 202.476 142.694L200.589 143.907C190.533 150.368 177.162 147.661 170.411 137.797C169.751 136.832 169.169 135.817 168.669 134.76L165.933 128.971C159.897 116.203 161.029 101.199 168.912 89.4803L170.593 86.9826C172.211 84.5762 174.257 82.4865 176.628 80.8167C185.324 74.6932 197.03 75.0932 205.288 81.796Z" fill="black" stroke="white"/>
<path d="M11.1628 171.271L10.9423 169.614C8.89095 154.196 16.9074 139.69 30.7923 133.694C37.2624 130.9 44.5196 130.186 51.6076 131.644L58.2857 133.019C74.9068 136.44 89.5469 146.966 98.3223 161.804L100.914 166.186C103.947 171.315 105.807 177.016 106.352 182.854L106.904 188.775C108.504 205.913 96.4796 220.64 79.5822 222.237C77.793 222.406 75.9854 222.422 74.1787 222.283L67.7037 221.788C46.2376 220.146 26.7737 206.976 16.8435 187.375L15.1078 183.949C13.0816 179.95 11.7467 175.66 11.1628 171.271Z" fill="white" stroke="white"/>
<path d="M24.2648 172.666L24.0244 170.805C22.5709 159.552 28.3748 148.968 38.4556 144.489C43.3162 142.329 48.7974 141.769 54.1458 142.888L58.8991 143.881C71.012 146.414 81.6436 154.169 87.9238 165.054L90.0633 168.763C92.2782 172.602 93.6318 176.849 94.0245 181.193L94.489 186.331C95.6229 198.873 86.8407 209.643 74.4839 210.864C73.1364 210.997 71.7742 211.012 70.4127 210.907L66.3935 210.6C50.2553 209.365 35.6521 199.378 28.3366 184.571L27.1497 182.169C25.6646 179.163 24.6889 175.949 24.2648 172.666Z" fill="black" stroke="white"/>
<path d="M69.7068 1918.82L81.5117 1872.19C91.7399 1831.78 120.485 1798.6 159.02 1782.72L166.993 1779.43C192.847 1768.77 221.79 1768.36 247.933 1778.29C286.395 1792.89 313.488 1827.75 318.155 1868.62L319.588 1881.18C320.946 1893.07 323.824 1904.73 328.154 1915.89L338.475 1942.48C349.376 1970.56 350.917 2001.42 342.868 2030.45L338.564 2045.97C335.129 2058.36 328.637 2069.69 319.683 2078.92C304.543 2094.52 283.498 2102.97 261.773 2102.17L139.508 2097.67C99.8917 2094.49 68.9341 2062.13 67.5063 2022.4L65.2793 1960.44C64.7758 1946.43 66.2665 1932.42 69.7068 1918.82Z" fill="#9449D9" stroke="white" stroke-width="9"/>
<path d="M145.968 1911.37L142.364 1913.56C139.031 1915.58 135.352 1916.96 131.514 1917.64C117.509 1920.12 103.581 1912.91 97.5159 1900.04L97.0407 1899.04C94.4087 1893.45 93.3963 1887.24 94.1188 1881.11L95.2288 1871.69C96.974 1856.89 104.922 1843.52 117.096 1834.91L121.143 1832.05C125.442 1829.01 130.415 1827.06 135.634 1826.37L138.001 1826.05C154.174 1823.91 169.103 1835.06 171.636 1851.18C171.878 1852.72 172 1854.28 172 1855.84V1865.16C172 1884.05 162.129 1901.58 145.968 1911.37Z" fill="white" stroke="white"/>
<path d="M106.259 1889.72L105.808 1889.93L106.259 1889.72L106.078 1889.34C104.077 1885.17 103.306 1880.52 103.857 1875.92L104.63 1869.48C105.959 1858.4 111.963 1848.42 121.126 1842.05L124.056 1840.02C127.262 1837.79 130.956 1836.37 134.827 1835.86L137.051 1835.57C148.904 1834.03 159.835 1842.19 161.723 1853.99C161.907 1855.15 162 1856.31 162 1857.48V1863.89C162 1878.01 154.565 1891.09 142.429 1898.32L139.843 1899.86C137.351 1901.34 134.609 1902.35 131.751 1902.85C121.272 1904.67 110.86 1899.31 106.259 1889.72Z" fill="black" stroke="white"/>
<path d="M320.002 1891.79L319.493 1893.38C314.758 1908.19 301.311 1917.88 286.196 1917.37C279.153 1917.13 272.286 1914.68 266.501 1910.33L261.051 1906.23C247.486 1896.03 238.749 1880.26 237.156 1863.1L236.686 1858.03C236.136 1852.09 236.891 1846.15 238.893 1840.63L240.924 1835.04C246.802 1818.87 263.966 1810.69 279.926 1816.47C281.615 1817.08 283.256 1817.84 284.831 1818.74L290.473 1821.95C309.178 1832.61 321.147 1852.83 321.748 1874.8L321.853 1878.64C321.976 1883.12 321.349 1887.57 320.002 1891.79Z" fill="white" stroke="white"/>
<path d="M308.752 1884.93L308.174 1886.71C304.68 1897.51 294.909 1904.59 283.881 1904.34C278.564 1904.21 273.369 1902.37 269.012 1899.08L265.139 1896.15C255.27 1888.68 248.973 1877.13 247.947 1864.6L247.597 1860.33C247.235 1855.92 247.827 1851.5 249.328 1847.4L251.104 1842.56C255.439 1830.74 267.981 1824.75 279.674 1828.93C280.95 1829.39 282.187 1829.95 283.374 1830.63L286.876 1832.63C300.939 1840.64 309.873 1855.91 310.159 1872.42L310.205 1875.1C310.264 1878.45 309.772 1881.78 308.752 1884.93Z" fill="black" stroke="white"/>
<path d="M1386.71 1960.82L1398.51 1914.19C1408.74 1873.78 1437.49 1840.6 1476.02 1824.72L1483.99 1821.43C1509.85 1810.77 1538.79 1810.36 1564.93 1820.29C1603.4 1834.89 1630.49 1869.75 1635.15 1910.62L1636.59 1923.18C1637.95 1935.07 1640.82 1946.73 1645.15 1957.89L1655.47 1984.48C1666.38 2012.56 1667.92 2043.42 1659.87 2072.45L1655.56 2087.97C1652.13 2100.36 1645.64 2111.69 1636.68 2120.92C1621.54 2136.52 1600.5 2144.97 1578.77 2144.17L1456.51 2139.67C1416.89 2136.49 1385.93 2104.13 1384.51 2064.4L1382.28 2002.44C1381.78 1988.43 1383.27 1974.42 1386.71 1960.82Z" fill="#9449D9" stroke="white" stroke-width="9"/>
<path d="M1462.97 1953.37L1459.36 1955.56C1456.03 1957.58 1452.35 1958.96 1448.51 1959.64C1434.51 1962.12 1420.58 1954.91 1414.52 1942.04L1414.04 1941.04C1411.41 1935.45 1410.4 1929.24 1411.12 1923.11L1412.23 1913.69C1413.97 1898.89 1421.92 1885.52 1434.1 1876.91L1438.14 1874.05C1442.44 1871.01 1447.41 1869.06 1452.63 1868.37L1455 1868.05C1471.17 1865.91 1486.1 1877.06 1488.64 1893.18C1488.88 1894.72 1489 1896.28 1489 1897.84V1907.16C1489 1926.05 1479.13 1943.58 1462.97 1953.37Z" fill="white" stroke="white"/>
<path d="M1423.26 1931.72L1422.81 1931.93L1423.26 1931.72L1423.08 1931.34C1421.08 1927.17 1420.31 1922.52 1420.86 1917.92L1421.63 1911.48C1422.96 1900.4 1428.96 1890.42 1438.13 1884.05L1441.06 1882.02C1444.26 1879.79 1447.96 1878.37 1451.83 1877.86L1454.05 1877.57C1465.9 1876.03 1476.83 1884.19 1478.72 1895.99C1478.91 1897.15 1479 1898.31 1479 1899.48V1905.89C1479 1920.01 1471.56 1933.09 1459.43 1940.32L1456.84 1941.86C1454.35 1943.34 1451.61 1944.35 1448.75 1944.85C1438.27 1946.67 1427.86 1941.31 1423.26 1931.72Z" fill="black" stroke="white"/>
<path d="M1637 1933.79L1636.49 1935.38C1631.76 1950.19 1618.31 1959.88 1603.2 1959.37C1596.15 1959.13 1589.29 1956.68 1583.5 1952.33L1578.05 1948.23C1564.49 1938.03 1555.75 1922.26 1554.16 1905.1L1553.69 1900.03C1553.14 1894.09 1553.89 1888.15 1555.89 1882.63L1557.92 1877.04C1563.8 1860.87 1580.97 1852.69 1596.93 1858.47C1598.62 1859.08 1600.26 1859.84 1601.83 1860.74L1607.47 1863.95C1626.18 1874.61 1638.15 1894.83 1638.75 1916.8L1638.85 1920.64C1638.98 1925.12 1638.35 1929.57 1637 1933.79Z" fill="white" stroke="white"/>
<path d="M1625.75 1926.93L1625.17 1928.71C1621.68 1939.51 1611.91 1946.59 1600.88 1946.34C1595.56 1946.21 1590.37 1944.37 1586.01 1941.08L1582.14 1938.15C1572.27 1930.68 1565.97 1919.13 1564.95 1906.6L1564.6 1902.33C1564.24 1897.92 1564.83 1893.5 1566.33 1889.4L1568.1 1884.56C1572.44 1872.74 1584.98 1866.75 1596.67 1870.93C1597.95 1871.39 1599.19 1871.95 1600.37 1872.63L1603.88 1874.63C1617.94 1882.64 1626.87 1897.91 1627.16 1914.42L1627.21 1917.1C1627.26 1920.45 1626.77 1923.78 1625.75 1926.93Z" fill="black" stroke="white"/>
<path d="M-65.2932 1853.82L-53.4883 1807.19C-43.2601 1766.78 -14.5147 1733.6 24.0204 1717.72L31.9933 1714.43C57.847 1703.77 86.7899 1703.36 112.933 1713.29C151.395 1727.89 178.488 1762.75 183.155 1803.62L184.588 1816.18C185.946 1828.07 188.824 1839.73 193.154 1850.89L203.475 1877.48C214.376 1905.56 215.917 1936.42 207.868 1965.45L203.564 1980.97C200.129 1993.36 193.637 2004.69 184.683 2013.92C169.543 2029.52 148.498 2037.97 126.773 2037.17L4.50754 2032.67C-35.1083 2029.49 -66.0659 1997.13 -67.4937 1957.4L-69.7207 1895.44C-70.2242 1881.43 -68.7335 1867.42 -65.2932 1853.82Z" fill="#9449D9" stroke="white" stroke-width="9"/>
<path d="M10.9676 1846.37L7.36409 1848.56C4.03085 1850.58 0.351841 1851.96 -3.48629 1852.64C-17.4913 1855.12 -31.4195 1847.91 -37.4841 1835.04L-37.9593 1834.04C-40.5913 1828.45 -41.6037 1822.24 -40.8812 1816.11L-39.7712 1806.69C-38.026 1791.89 -30.0778 1778.52 -17.9037 1769.91L-13.8565 1767.05C-9.55793 1764.01 -4.58527 1762.06 0.633621 1761.37L3.00142 1761.05C19.174 1758.91 34.1031 1770.06 36.6357 1786.18C36.8782 1787.72 37 1789.28 37 1790.84V1800.16C37 1819.05 27.1289 1836.58 10.9676 1846.37Z" fill="white" stroke="white"/>
<path d="M-28.741 1824.72L-29.1918 1824.93L-28.741 1824.72L-28.9222 1824.34C-30.9233 1820.17 -31.6936 1815.52 -31.1426 1810.92L-30.3696 1804.48C-29.0407 1793.4 -23.0372 1783.42 -13.8738 1777.05L-10.9442 1775.02C-7.73805 1772.79 -4.04432 1771.37 -0.173145 1770.86L2.05106 1770.57C13.9035 1769.03 24.8349 1777.19 26.7227 1788.99C26.9073 1790.15 27 1791.31 27 1792.48V1798.89C27 1813.01 19.5648 1826.09 7.42944 1833.32L4.84299 1834.86C2.35106 1836.34 -0.391434 1837.35 -3.24889 1837.85C-13.7277 1839.67 -24.1398 1834.31 -28.741 1824.72Z" fill="black" stroke="white"/>
<path d="M185.002 1826.79L184.493 1828.38C179.758 1843.19 166.311 1852.88 151.196 1852.37C144.153 1852.13 137.286 1849.68 131.501 1845.33L126.051 1841.23C112.486 1831.03 103.749 1815.26 102.156 1798.1L101.686 1793.03C101.136 1787.09 101.891 1781.15 103.893 1775.63L105.924 1770.04C111.802 1753.87 128.966 1745.69 144.926 1751.47C146.615 1752.08 148.256 1752.84 149.831 1753.74L155.473 1756.95C174.178 1767.61 186.147 1787.83 186.748 1809.8L186.853 1813.64C186.976 1818.12 186.349 1822.57 185.002 1826.79Z" fill="white" stroke="white"/>
<path d="M173.752 1819.93L173.174 1821.71C169.68 1832.51 159.909 1839.59 148.881 1839.34C143.564 1839.21 138.369 1837.37 134.012 1834.08L130.139 1831.15C120.27 1823.68 113.973 1812.13 112.947 1799.6L112.597 1795.33C112.235 1790.92 112.827 1786.5 114.328 1782.4L116.104 1777.56C120.439 1765.74 132.981 1759.75 144.674 1763.93C145.95 1764.39 147.187 1764.95 148.374 1765.63L151.876 1767.63C165.939 1775.64 174.873 1790.91 175.159 1807.42L175.205 1810.1C175.264 1813.45 174.772 1816.78 173.752 1819.93Z" fill="black" stroke="white"/>
</g>
<defs>
<clipPath id="clip0_73_5">
<rect width="3000" height="2000" fill="white"/>
</clipPath>
</defs>
</svg>
