<svg width="33" height="39" viewBox="0 0 33 39" fill="none" xmlns="http://www.w3.org/2000/svg">
<path d="M1.598 18.8686L2.6744 14.8821C3.89905 10.3465 7.21184 6.66605 11.594 4.97253L12.4381 4.6463C15.1865 3.58416 18.2248 3.54342 21.0007 4.5315C25.394 6.0953 28.526 10.0081 29.0897 14.6373L29.159 15.2067C29.3039 16.3967 29.6098 17.5615 30.0684 18.6692L31.1326 21.2396C32.3408 24.1579 32.5113 27.4024 31.6156 30.4313L31.2231 31.7584C30.8048 33.1731 30.0273 34.4554 28.9663 35.4805C27.2997 37.0907 25.0505 37.9549 22.7345 37.875L9.45283 37.4167C4.98224 37.0844 1.474 33.448 1.30227 28.9684L1.08788 23.3757C1.02963 21.8562 1.20161 20.3366 1.598 18.8686Z" stroke="black"/>
<path d="M2.30828 18.9706L3.33292 15.1541C4.47283 10.9082 7.56686 7.45918 11.6644 5.86659L12.4563 5.55882C15.0429 4.55348 17.9054 4.51493 20.5182 5.45026C24.627 6.92113 27.553 10.586 28.0775 14.9185L28.1497 15.5143C28.2851 16.633 28.5712 17.7282 29.0002 18.7702L30.0009 21.2012C31.133 23.9511 31.2927 27.0051 30.4538 29.8581L30.0802 31.1288C29.6906 32.4538 28.9654 33.6557 27.9749 34.6182C26.4088 36.1399 24.29 36.9572 22.1078 36.8815L9.67453 36.45C5.48313 36.1367 2.19507 32.7264 2.03498 28.5263L1.83201 23.2015C1.77765 21.7753 1.9382 20.349 2.30828 18.9706Z" fill="#FF7B08" stroke="white" stroke-width="1.5"/>
<path d="M8.9151 19.0975L8.84652 19.1089C7.45176 19.3414 6.06849 18.637 5.43613 17.3723C5.15175 16.8035 5.04209 16.1633 5.12096 15.5323L5.20496 14.8603C5.39231 13.3615 6.2224 12.0184 7.47916 11.1806L7.83801 10.9413C8.27335 10.6511 8.77029 10.4662 9.28947 10.4013L9.72163 10.3473C11.2741 10.1532 12.7031 11.2187 12.9603 12.7619C12.9867 12.9204 13 13.0807 13 13.2414V13.9186C13 15.8241 11.979 17.5834 10.3246 18.5288L10.0148 18.7058C9.67431 18.9004 9.30196 19.033 8.9151 19.0975Z" fill="white" stroke="white"/>
<path d="M8.9375 17.7032L8.84728 17.718C7.82149 17.886 6.80489 17.371 6.33342 16.4446C6.11617 16.0177 6.03233 15.5354 6.09278 15.0602L6.1501 14.6097C6.29281 13.4881 6.91976 12.4853 7.8656 11.8658L8.12932 11.6931C8.45541 11.4795 8.82622 11.3437 9.21312 11.2962L9.57993 11.2511C10.7242 11.1106 11.7768 11.8947 11.9696 13.0314C11.9898 13.1506 12 13.2713 12 13.3922V13.8447C12 15.2734 11.2287 16.5909 9.98289 17.2903L9.76157 17.4146C9.50583 17.5581 9.22693 17.6558 8.9375 17.7032Z" fill="black" stroke="black"/>
<path d="M27.7957 16.6333L27.7783 16.6845C27.2807 18.1528 25.8811 19.1227 24.3315 19.0731C23.641 19.051 22.9722 18.8262 22.4085 18.4267L21.7807 17.9818C20.4401 17.0317 19.5777 15.5468 19.4168 13.9117L19.3701 13.4371C19.3142 12.869 19.392 12.2957 19.5973 11.7631L19.7592 11.3429C20.3755 9.74368 22.1451 8.91701 23.7671 9.47063C23.9323 9.52703 24.0927 9.5969 24.2465 9.67953L24.9226 10.0428C26.7495 11.0242 27.9126 12.907 27.9728 14.9799L27.9843 15.3757C27.9967 15.8028 27.9328 16.2286 27.7957 16.6333Z" fill="white" stroke="white"/>
<path d="M26.6709 15.986L26.6381 16.0816C26.2689 17.1569 25.2465 17.8699 24.1099 17.8448C23.5858 17.8332 23.0773 17.6643 22.6506 17.3599L22.2464 17.0715C21.2396 16.3534 20.5981 15.2302 20.4911 13.9982L20.4611 13.6538C20.4242 13.2289 20.4854 12.8012 20.64 12.4037L20.7869 12.0258C21.244 10.8504 22.5444 10.2421 23.7395 10.6447C23.8649 10.6869 23.9865 10.7396 24.1031 10.8022L24.538 11.0359C25.9152 11.7758 26.7857 13.2017 26.8144 14.7649L26.8195 15.0422C26.8254 15.3631 26.7751 15.6825 26.6709 15.986Z" fill="black" stroke="black"/>
<path d="M26.6631 2.99232C26.6692 3.03626 26.6635 3.12273 26.5648 3.26863C26.4639 3.41781 26.2858 3.59722 26.0103 3.79871C25.46 4.2012 24.6088 4.62905 23.499 5.04946C21.2872 5.88736 18.1524 6.65707 14.6227 7.15042C11.093 7.64376 7.86736 7.76303 5.51052 7.5637C4.32798 7.46368 3.39211 7.2856 2.75255 7.04942C2.43238 6.93118 2.21187 6.80749 2.07394 6.69169C1.93903 6.57844 1.90987 6.49683 1.90373 6.4529C1.89759 6.40897 1.90326 6.32249 2.00194 6.17659C2.10284 6.02741 2.28098 5.848 2.55646 5.64651C3.10676 5.24403 3.95795 4.81617 5.06774 4.39576C7.27961 3.55786 10.4144 2.78815 13.9441 2.29481C17.4738 1.80146 20.6994 1.68219 23.0563 1.88153C24.2388 1.98154 25.1747 2.15962 25.8142 2.3958C26.1344 2.51404 26.3549 2.63773 26.4929 2.75353C26.6278 2.86678 26.6569 2.94839 26.6631 2.99232Z" stroke="#FBFF00"/>
</svg>
