<svg width="33" height="36" viewBox="0 0 33 36" fill="none" xmlns="http://www.w3.org/2000/svg">
<path d="M1.598 15.8686L2.6744 11.8821C3.89905 7.34651 7.21184 3.66605 11.594 1.97253L12.4381 1.6463C15.1865 0.584161 18.2248 0.543424 21.0007 1.5315C25.394 3.0953 28.526 7.00811 29.0897 11.6373L29.159 12.2067C29.3039 13.3967 29.6098 14.5615 30.0684 15.6692L31.1326 18.2396C32.3408 21.1579 32.5113 24.4024 31.6156 27.4313L31.2231 28.7584C30.8048 30.1731 30.0273 31.4554 28.9663 32.4805C27.2997 34.0907 25.0505 34.9549 22.7345 34.875L9.45283 34.4167C4.98224 34.0844 1.474 30.448 1.30227 25.9684L1.08788 20.3757C1.02963 18.8562 1.20161 17.3366 1.598 15.8686Z" stroke="black"/>
<path d="M2.30828 15.9706L3.33292 12.1541C4.47283 7.90821 7.56686 4.45918 11.6644 2.86659L12.4563 2.55882C15.0429 1.55348 17.9054 1.51493 20.5182 2.45026C24.627 3.92113 27.553 7.58601 28.0775 11.9185L28.1497 12.5143C28.2851 13.633 28.5712 14.7282 29.0002 15.7702L30.0009 18.2012C31.133 20.9511 31.2927 24.0051 30.4538 26.8581L30.0802 28.1288C29.6906 29.4538 28.9654 30.6557 27.9749 31.6182C26.4088 33.1399 24.29 33.9572 22.1078 33.8815L9.67453 33.45C5.48313 33.1367 2.19507 29.7264 2.03498 25.5263L1.83201 20.2015C1.77765 18.7753 1.9382 17.349 2.30828 15.9706Z" fill="#6FFF08" stroke="white" stroke-width="1.5"/>
<path d="M8.9151 16.0975L8.84652 16.1089C7.45176 16.3414 6.06849 15.637 5.43613 14.3723C5.15175 13.8035 5.04209 13.1633 5.12096 12.5323L5.20496 11.8603C5.39231 10.3615 6.2224 9.0184 7.47916 8.18056L7.83801 7.94133C8.27335 7.6511 8.77029 7.46621 9.28947 7.40132L9.72163 7.3473C11.2741 7.15324 12.7031 8.21866 12.9603 9.7619C12.9867 9.92036 13 10.0807 13 10.2414V10.9186C13 12.8241 11.979 14.5834 10.3246 15.5288L10.0148 15.7058C9.67431 15.9004 9.30196 16.033 8.9151 16.0975Z" fill="white" stroke="white"/>
<path d="M8.9375 14.7032L8.84728 14.718C7.82149 14.886 6.80489 14.371 6.33342 13.4446C6.11617 13.0177 6.03233 12.5354 6.09278 12.0602L6.1501 11.6097C6.29281 10.4881 6.91976 9.48531 7.8656 8.86581L8.12932 8.69308C8.45541 8.4795 8.82622 8.34371 9.21312 8.2962L9.57993 8.25115C10.7242 8.11062 11.7768 8.89474 11.9696 10.0314C11.9898 10.1506 12 10.2713 12 10.3922V10.8447C12 12.2734 11.2287 13.5909 9.98289 14.2903L9.76157 14.4146C9.50583 14.5581 9.22693 14.6558 8.9375 14.7032Z" fill="black" stroke="black"/>
<path d="M27.7957 13.6333L27.7783 13.6845C27.2807 15.1528 25.8811 16.1227 24.3315 16.0731C23.641 16.051 22.9722 15.8262 22.4085 15.4267L21.7807 14.9818C20.4401 14.0317 19.5777 12.5468 19.4168 10.9117L19.3701 10.4371C19.3142 9.869 19.392 9.29574 19.5973 8.76312L19.7592 8.34292C20.3755 6.74368 22.1451 5.91701 23.7671 6.47063C23.9323 6.52703 24.0927 6.5969 24.2465 6.67953L24.9226 7.04279C26.7495 8.02424 27.9126 9.90702 27.9728 11.9799L27.9843 12.3757C27.9967 12.8028 27.9328 13.2286 27.7957 13.6333Z" fill="white" stroke="white"/>
<path d="M26.6709 12.986L26.6381 13.0816C26.2689 14.1569 25.2465 14.8699 24.1099 14.8448C23.5858 14.8332 23.0773 14.6643 22.6506 14.3599L22.2464 14.0715C21.2396 13.3534 20.5981 12.2302 20.4911 10.9982L20.4611 10.6538C20.4242 10.2289 20.4854 9.80122 20.64 9.40371L20.7869 9.02577C21.244 7.85041 22.5444 7.24213 23.7395 7.64467C23.8649 7.68691 23.9865 7.73961 24.1031 7.80223L24.538 8.03588C25.9152 8.77582 26.7857 10.2017 26.8144 11.7649L26.8195 12.0422C26.8254 12.3631 26.7751 12.6825 26.6709 12.986Z" fill="black" stroke="black"/>
<path d="M13.36 12.9922C12.5154 15.9797 9.85715 17.7564 7.48509 17.0858C5.11302 16.4152 3.77843 13.5097 4.62303 10.5222C5.46762 7.53467 8.12591 5.75801 10.498 6.42861C12.87 7.09922 14.2046 10.0047 13.36 12.9922Z" stroke="black" stroke-width="0.5"/>
<path d="M27.9265 9.87705C28.7187 12.9983 27.2403 15.9835 24.7371 16.6189C22.2339 17.2543 19.5107 15.3356 18.7185 12.2143C17.9262 9.09301 19.4046 6.10778 21.9078 5.4724C24.4111 4.83702 27.1342 6.75578 27.9265 9.87705Z" stroke="black" stroke-width="0.5"/>
<rect x="3.13318" y="8.76099" width="0.908212" height="1.99699" transform="rotate(-42.8186 3.13318 8.76099)" fill="black"/>
<rect x="28.1652" y="7.23096" width="0.908212" height="1.50381" transform="rotate(44.0594 28.1652 7.23096)" fill="black"/>
<path d="M13.5 11V11C15.1049 10.3581 16.8951 10.3581 18.5 11V11" stroke="black" stroke-width="0.5"/>
</svg>
