<svg width="179" height="109" viewBox="0 0 179 109" fill="none" xmlns="http://www.w3.org/2000/svg">
<path d="M0 0H179V109H0V0Z" fill="#3CA502"/>
<path d="M42.7617 60.4994L44.0416 56.1648C45.3543 51.7193 48.6502 48.1315 52.9686 46.4472L53.9088 46.0804C56.6745 45.0017 59.7372 44.9604 62.531 45.964C66.9071 47.5361 70.0214 51.4431 70.5784 56.0595L70.6601 56.736C70.8043 57.9313 71.1089 59.1016 71.5659 60.2155L72.4973 62.486C73.7889 65.6347 73.9016 69.1436 72.8147 72.3687L72.4063 73.5807C71.9594 74.9065 71.204 76.1073 70.2023 77.084C68.4763 78.7671 66.1373 79.6716 63.7279 79.5877L50.9528 79.1428C46.4444 78.8046 42.8654 75.2125 42.5438 70.7029L42.1913 65.7614C42.0648 63.9874 42.258 62.2051 42.7617 60.4994Z" fill="black" stroke="black" stroke-width="0.5"/>
<path d="M43.8045 60.5402L44.8541 56.5945C45.9808 52.3589 49.0559 48.9123 53.1361 47.3117L53.9287 47.0008C56.5316 45.9798 59.4171 45.9407 62.0467 46.8907C66.1392 48.3694 69.0488 52.0287 69.5671 56.3492L69.6507 57.046C69.7855 58.1696 70.0704 59.27 70.4978 60.3178L71.5035 62.7835C72.6345 65.5563 72.7941 68.6301 71.9565 71.5051L71.5737 72.8188C71.1883 74.1418 70.4691 75.3434 69.4853 76.3082C67.9134 77.8497 65.778 78.6787 63.5779 78.6016L51.1745 78.1672C46.9828 77.851 43.6962 74.4387 43.5375 70.238L43.3314 64.78C43.2774 63.3511 43.4369 61.9221 43.8045 60.5402Z" fill="#E61818" stroke="white" stroke-width="1.5"/>
<path d="M50.4143 60.654L50.373 60.661C48.964 60.898 47.566 60.1842 46.9318 58.9039C46.6501 58.3354 46.5416 57.6967 46.6196 57.0671L46.7079 56.3537C46.8935 54.8556 47.7192 53.5114 48.9717 52.6687L49.3375 52.4226C49.7731 52.1295 50.2713 51.9426 50.7922 51.8769L51.1944 51.8261C52.7609 51.6285 54.2035 52.7044 54.4607 54.2622C54.4869 54.4204 54.5 54.5805 54.5 54.7409V55.4571C54.5 57.3628 53.4829 59.1236 51.832 60.0757L51.5145 60.2588C51.1742 60.455 50.8016 60.5889 50.4143 60.654Z" fill="white" stroke="white"/>
<path d="M50.4369 59.2468L50.3668 59.2584C49.3305 59.4297 48.3031 58.9078 47.8301 57.9699C47.6149 57.5432 47.5319 57.062 47.5917 56.5878L47.6517 56.1121C47.7934 54.9876 48.419 53.981 49.3645 53.356L49.6289 53.1812C49.9552 52.9655 50.327 52.8282 50.7152 52.7801L51.0599 52.7374C52.2146 52.5943 53.2771 53.3862 53.4699 54.5336C53.4899 54.6526 53.5 54.7731 53.5 54.8938V55.375C53.5 56.8039 52.7316 58.1225 51.4884 58.8269L51.2613 58.9555C51.0058 59.1003 50.7267 59.1989 50.4369 59.2468Z" fill="black" stroke="black"/>
<path d="M69.2958 58.1664L69.2731 58.2339C68.7783 59.7076 67.3843 60.6795 65.8374 60.6295C65.1432 60.607 64.4702 60.3786 63.9029 59.9729L63.2924 59.5362C61.9447 58.5722 61.0775 57.068 60.9163 55.4146L60.8701 54.9407C60.8142 54.3675 60.8918 53.7898 61.0967 53.2532L61.2651 52.812C61.8784 51.206 63.6438 50.3787 65.2656 50.9374C65.4319 50.9946 65.5932 51.0656 65.7479 51.1495L66.4068 51.5068C68.2428 52.5023 69.4127 54.4088 69.473 56.5034L69.4843 56.8974C69.4967 57.3286 69.4329 57.7583 69.2958 58.1664Z" fill="white" stroke="white"/>
<path d="M68.171 57.5133L68.1343 57.6214C67.7671 58.7006 66.749 59.415 65.6143 59.3898C65.0875 59.378 64.5758 59.2063 64.1464 58.8972L63.7448 58.608C62.7392 57.8842 62.0984 56.7538 61.9918 55.5162L61.9611 55.1595C61.9242 54.7309 61.9852 54.2998 62.1395 53.8994L62.2913 53.5053C62.7461 52.325 64.0434 51.7163 65.2384 52.1225C65.3645 52.1654 65.4869 52.2189 65.6041 52.2825L66.026 52.5112C67.4102 53.2617 68.2857 54.7056 68.3145 56.285L68.3195 56.561C68.3254 56.8849 68.2752 57.2072 68.171 57.5133Z" fill="black" stroke="black"/>
<path d="M65.6274 52.1228L68.2063 51.279C70.5263 50.5198 71.0235 47.4564 69.0614 46.0101L66.8942 44.4126C66.7483 44.3051 66.6125 44.1845 66.4885 44.0524L63.2152 40.5666C63.0465 40.387 62.8563 40.2289 62.6488 40.0959L56.3652 36.0685C54.92 35.1422 52.9916 35.6187 52.1394 37.1127L48.0245 44.3265L44.4326 48.9915C42.9589 50.9055 44.2289 53.6842 46.6376 53.8159L49.4497 53.9697L53.3134 53.954L57.3463 53.5461L61.6177 53.1156C61.7675 53.1005 61.916 53.0741 62.0619 53.0367L65.6274 52.1228Z" fill="#EA0762" stroke="white"/>
<path d="M54.5509 48.2016L54.1952 48.4888C53.5275 49.0279 53.4044 49.998 53.9163 50.6868C54.2745 51.1689 54.8728 51.4096 55.4651 51.31L57.5 50.9677C58.4528 50.7273 58.8558 49.5962 58.2697 48.8075L58.2373 48.7639C58.0821 48.5551 57.8723 48.393 57.631 48.2956L56.6312 47.892C55.9329 47.6101 55.1368 47.7286 54.5509 48.2016Z" fill="white" stroke="white" stroke-width="0.5"/>
<path d="M66.2411 46.5055L66.1377 46.476C65.4182 46.2706 64.6472 46.5144 64.1737 47.0969L63.9574 47.363C63.7214 47.6533 63.6213 48.0326 63.683 48.4034C63.7657 48.901 64.1256 49.3062 64.6069 49.4436L65.6324 49.7363C65.8997 49.8126 66.1829 49.8118 66.4496 49.734C67.2218 49.5087 67.6751 48.704 67.4722 47.9184L67.4213 47.7213C67.2695 47.1337 66.8202 46.6709 66.2411 46.5055Z" fill="white" stroke="white" stroke-width="0.5"/>
<path d="M60.2145 42.9313L60.1829 42.9324C59.3427 42.9608 58.6096 43.5168 58.3489 44.3235C58.1205 45.03 58.2954 45.8059 58.8041 46.3428L59.5654 47.1463C59.8172 47.4122 60.1596 47.5717 60.5236 47.5929C61.177 47.6309 61.7739 47.2197 61.9769 46.5916L62.2434 45.7674C62.3703 45.3748 62.3833 44.9538 62.2808 44.5541L62.2607 44.4754C62.0211 43.5406 61.1708 42.899 60.2145 42.9313Z" fill="white" stroke="white" stroke-width="0.5"/>
<path d="M50.854 43.3875L50.2351 43.5694C49.948 43.6538 49.7271 43.8838 49.654 44.1747L49.4878 44.8364C49.337 45.4363 50.0464 45.8777 50.5144 45.4753C50.8385 45.1965 51.3408 45.315 51.5091 45.71L51.7029 46.1649C51.9913 46.8417 52.8858 46.9855 53.3664 46.4324L53.4666 46.3171C53.7766 45.9603 53.8206 45.4429 53.5755 45.0366L53.1133 44.2707C52.6462 43.4965 51.7179 43.1336 50.854 43.3875Z" fill="white" stroke="white" stroke-width="0.5"/>
<path d="M48.2411 48.5236L48.1377 48.4941C47.4182 48.2887 46.6472 48.5324 46.1737 49.115L45.9574 49.381C45.7214 49.6714 45.6213 50.0507 45.683 50.4215C45.7657 50.9191 46.1256 51.3242 46.6069 51.4616L47.6324 51.7544C47.8997 51.8307 48.1829 51.8299 48.4496 51.7521C49.2218 51.5268 49.6751 50.7221 49.4722 49.9365L49.4213 49.7394C49.2695 49.1517 48.8202 48.6889 48.2411 48.5236Z" fill="white" stroke="white" stroke-width="0.5"/>
<path d="M16.7617 67.5641L18.0416 63.2295C19.3543 58.784 22.6502 55.1962 26.9686 53.5119L27.9088 53.1451C30.6745 52.0664 33.7372 52.0251 36.531 53.0287C40.9071 54.6008 44.0214 58.5078 44.5784 63.1242L44.6601 63.8007C44.8043 64.996 45.1089 66.1663 45.5659 67.2802L46.4973 69.5507C47.7889 72.6994 47.9016 76.2083 46.8147 79.4334L46.4063 80.6454C45.9594 81.9712 45.204 83.172 44.2023 84.1487C42.4763 85.8318 40.1373 86.7363 37.7279 86.6524L24.9528 86.2075C20.4444 85.8693 16.8654 82.2772 16.5438 77.7676L16.1913 72.8261C16.0648 71.0521 16.258 69.2698 16.7617 67.5641Z" fill="black" stroke="black" stroke-width="0.5"/>
<path d="M17.8045 67.6049L18.8541 63.6592C19.9808 59.4236 23.0559 55.977 27.1361 54.3764L27.9287 54.0655C30.5316 53.0445 33.4171 53.0054 36.0467 53.9554C40.1392 55.4341 43.0488 59.0934 43.5671 63.4139L43.6507 64.1107C43.7855 65.2343 44.0704 66.3347 44.4978 67.3825L45.5035 69.8482C46.6345 72.621 46.7941 75.6948 45.9565 78.5698L45.5737 79.8835C45.1883 81.2065 44.4691 82.4081 43.4853 83.3729C41.9134 84.9144 39.778 85.7434 37.5779 85.6663L25.1745 85.2319C20.9828 84.9157 17.6962 81.5034 17.5375 77.3027L17.3314 71.8447C17.2774 70.4158 17.4369 68.9868 17.8045 67.6049Z" fill="#009A6A" stroke="white" stroke-width="1.5"/>
<path d="M24.4143 67.719L24.373 67.7259C22.964 67.9629 21.566 67.2491 20.9318 65.9688C20.6501 65.4003 20.5416 64.7617 20.6196 64.132L20.7079 63.4187C20.8935 61.9205 21.7192 60.5764 22.9717 59.7336L23.3375 59.4875C23.7731 59.1944 24.2713 59.0075 24.7922 58.9418L25.1944 58.8911C26.7609 58.6934 28.2035 59.7693 28.4607 61.3272C28.4869 61.4854 28.5 61.6455 28.5 61.8058V62.5221C28.5 64.4277 27.4829 66.1885 25.832 67.1406L25.5145 67.3237C25.1742 67.52 24.8016 67.6538 24.4143 67.719Z" fill="white" stroke="white"/>
<path d="M24.4369 66.3118L24.3668 66.3234C23.3305 66.4946 22.3031 65.9727 21.8301 65.0349C21.6149 64.6081 21.5319 64.1269 21.5917 63.6528L21.6517 63.1771C21.7934 62.0525 22.419 61.0459 23.3645 60.4209L23.6289 60.2462C23.9552 60.0305 24.327 59.8932 24.7152 59.8451L25.0599 59.8023C26.2146 59.6592 27.2771 60.4511 27.4699 61.5985C27.4899 61.7176 27.5 61.838 27.5 61.9587V62.44C27.5 63.8689 26.7316 65.1874 25.4884 65.8918L25.2613 66.0205C25.0058 66.1653 24.7267 66.2639 24.4369 66.3118Z" fill="black" stroke="black"/>
<path d="M43.2958 65.2314L43.2731 65.2989C42.7783 66.7725 41.3843 67.7444 39.8374 67.6944C39.1432 67.672 38.4702 67.4436 37.9029 67.0379L37.2924 66.6011C35.9447 65.6372 35.0775 64.1329 34.9163 62.4795L34.8701 62.0056C34.8142 61.4325 34.8918 60.8547 35.0967 60.3181L35.2651 59.8769C35.8784 58.2709 37.6438 57.4436 39.2656 58.0023C39.4319 58.0596 39.5932 58.1305 39.7479 58.2144L40.4068 58.5717C42.2428 59.5672 43.4127 61.4737 43.473 63.5683L43.4843 63.9623C43.4967 64.3935 43.4329 64.8232 43.2958 65.2314Z" fill="white" stroke="white"/>
<path d="M42.171 64.5783L42.1343 64.6864C41.7671 65.7655 40.749 66.48 39.6143 66.4547C39.0875 66.443 38.5758 66.2713 38.1464 65.9621L37.7448 65.673C36.7392 64.9491 36.0984 63.8187 35.9918 62.5812L35.9611 62.2245C35.9242 61.7958 35.9852 61.3648 36.1395 60.9643L36.2913 60.5703C36.7461 59.3899 38.0434 58.7812 39.2384 59.1874C39.3645 59.2303 39.4869 59.2838 39.6041 59.3474L40.026 59.5761C41.4102 60.3267 42.2857 61.7705 42.3145 63.35L42.3195 63.6259C42.3254 63.9499 42.2752 64.2722 42.171 64.5783Z" fill="black" stroke="black"/>
<path d="M3.76165 84.7216L5.04162 80.3869C6.35431 75.9415 9.65023 72.3537 13.9686 70.6693L14.9088 70.3026C17.6745 69.2239 20.7372 69.1825 23.531 70.1862C27.9071 71.7583 31.0214 75.6652 31.5784 80.2817L31.6601 80.9582C31.8043 82.1535 32.1089 83.3238 32.5659 84.4377L33.4973 86.7081C34.7889 89.8568 34.9016 93.3658 33.8147 96.5909L33.4063 97.8029C32.9594 99.1287 32.204 100.329 31.2023 101.306C29.4763 102.989 27.1373 103.894 24.7279 103.81L11.9528 103.365C7.44444 103.027 3.86544 99.4347 3.54379 94.9251L3.19134 89.9836C3.06481 88.2096 3.25798 86.4273 3.76165 84.7216Z" fill="black" stroke="black" stroke-width="0.5"/>
<path d="M4.80449 84.7623L5.85408 80.8167C6.98081 76.5811 10.0559 73.1344 14.1361 71.5339L14.9287 71.223C17.5316 70.202 20.4171 70.1628 23.0467 71.1129C27.1392 72.5915 30.0488 76.2508 30.5671 80.5713L30.6507 81.2681C30.7855 82.3917 31.0704 83.4922 31.4978 84.54L32.5035 87.0057C33.6345 89.7784 33.7941 92.8523 32.9565 95.7273L32.5737 97.041C32.1883 98.364 31.4691 99.5656 30.4853 100.53C28.9134 102.072 26.778 102.901 24.5779 102.824L12.1745 102.389C7.98277 102.073 4.69618 98.6608 4.53754 94.4602L4.3314 89.0022C4.27744 87.5732 4.43689 86.1442 4.80449 84.7623Z" fill="#0A8029" stroke="white" stroke-width="1.5"/>
<path d="M11.4143 84.8762L11.373 84.8831C9.964 85.1201 8.56605 84.4064 7.93178 83.1261C7.65013 82.5576 7.54157 81.9189 7.61955 81.2893L7.7079 80.5759C7.89345 79.0778 8.7192 77.7336 9.97167 76.8909L10.3375 76.6447C10.7731 76.3516 11.2713 76.1647 11.7922 76.099L12.1944 76.0483C13.7609 75.8507 15.2035 76.9266 15.4607 78.4844C15.4869 78.6426 15.5 78.8027 15.5 78.9631V79.6793C15.5 81.585 14.4829 83.3458 12.832 84.2978L12.5145 84.4809C12.1742 84.6772 11.8016 84.811 11.4143 84.8762Z" fill="white" stroke="white"/>
<path d="M11.4369 83.469L11.3668 83.4806C10.3305 83.6518 9.30305 83.13 8.83012 82.1921C8.61494 81.7654 8.53193 81.2842 8.5917 80.81L8.65167 80.3343C8.79344 79.2098 9.41901 78.2032 10.3645 77.5782L10.6289 77.4034C10.9552 77.1877 11.327 77.0504 11.7152 77.0023L12.0599 76.9596C13.2146 76.8165 14.2771 77.6083 14.4699 78.7558C14.4899 78.8748 14.5 78.9953 14.5 79.116V79.5972C14.5 81.0261 13.7316 82.3446 12.4884 83.0491L12.2613 83.1777C12.0058 83.3225 11.7267 83.4211 11.4369 83.469Z" fill="black" stroke="black"/>
<path d="M30.2958 82.3886L30.2731 82.4561C29.7783 83.9297 28.3843 84.9016 26.8374 84.8516C26.1432 84.8292 25.4702 84.6008 24.9029 84.1951L24.2924 83.7584C22.9447 82.7944 22.0775 81.2902 21.9163 79.6368L21.8701 79.1628C21.8142 78.5897 21.8918 78.0119 22.0967 77.4753L22.2651 77.0342C22.8784 75.4281 24.6438 74.6009 26.2656 75.1596C26.4319 75.2168 26.5932 75.2878 26.7479 75.3717L27.4068 75.7289C29.2428 76.7244 30.4127 78.631 30.473 80.7255L30.4843 81.1195C30.4967 81.5508 30.4329 81.9805 30.2958 82.3886Z" fill="white" stroke="white"/>
<path d="M29.171 81.7355L29.1343 81.8436C28.7671 82.9227 27.749 83.6372 26.6143 83.6119C26.0875 83.6002 25.5758 83.4285 25.1464 83.1193L24.7448 82.8302C23.7392 82.1063 23.0984 80.976 22.9918 79.7384L22.9611 79.3817C22.9242 78.953 22.9852 78.522 23.1395 78.1215L23.2913 77.7275C23.7461 76.5472 25.0434 75.9384 26.2384 76.3446C26.3645 76.3875 26.4869 76.441 26.6041 76.5046L27.026 76.7333C28.4102 77.4839 29.2857 78.9277 29.3145 80.5072L29.3195 80.7832C29.3254 81.1071 29.2752 81.4294 29.171 81.7355Z" fill="black" stroke="black"/>
<path d="M26.6274 76.3452L29.2063 75.5014C31.5263 74.7423 32.0235 71.6788 30.0614 70.2325L27.8942 68.635C27.7483 68.5275 27.6125 68.4069 27.4885 68.2748L24.2152 64.789C24.0465 64.6094 23.8563 64.4513 23.6488 64.3183L17.3652 60.2909C15.92 59.3646 13.9916 59.8412 13.1394 61.3351L9.02451 68.5489L5.43258 73.2139C3.95886 75.1279 5.22889 77.9066 7.63761 78.0383L10.4497 78.1921L14.3134 78.1764L18.3463 77.7686L22.6177 77.338C22.7675 77.3229 22.916 77.2965 23.0619 77.2591L26.6274 76.3452Z" fill="#EA0707" stroke="white"/>
<path d="M13.5509 71.4148L13.1952 71.7019C12.5275 72.241 12.4044 73.2111 12.9163 73.9C13.2745 74.3821 13.8728 74.6228 14.4651 74.5231L16.5 74.1808C17.4528 73.9405 17.8558 72.8093 17.2697 72.0206L17.2373 71.9771C17.0821 71.7682 16.8723 71.6062 16.631 71.5087L15.6312 71.1051C14.9329 70.8232 14.1368 70.9417 13.5509 71.4148Z" fill="white" stroke="white" stroke-width="0.5"/>
<path d="M27.2411 70.7277L27.1377 70.6982C26.4182 70.4928 25.6472 70.7365 25.1737 71.3191L24.9574 71.5851C24.7214 71.8755 24.6213 72.2548 24.683 72.6256C24.7657 73.1232 25.1256 73.5283 25.6069 73.6657L26.6324 73.9585C26.8997 74.0348 27.1829 74.034 27.4496 73.9562C28.2218 73.7309 28.6751 72.9262 28.4722 72.1406L28.4213 71.9435C28.2695 71.3558 27.8202 70.893 27.2411 70.7277Z" fill="white" stroke="white" stroke-width="0.5"/>
<path d="M21.2145 67.1535L21.1829 67.1545C20.3427 67.1829 19.6096 67.7389 19.3489 68.5457C19.1205 69.2522 19.2954 70.0281 19.8041 70.565L20.5654 71.3685C20.8172 71.6343 21.1596 71.7939 21.5236 71.8151C22.177 71.8531 22.7739 71.4418 22.9769 70.8137L23.2434 69.9895C23.3703 69.597 23.3833 69.176 23.2808 68.7763L23.2607 68.6976C23.0211 67.7628 22.1708 67.1212 21.2145 67.1535Z" fill="white" stroke="white" stroke-width="0.5"/>
<path d="M14.854 64.5821L14.2351 64.764C13.948 64.8483 13.7271 65.0784 13.654 65.3692L13.4878 66.031C13.337 66.6308 14.0464 67.0723 14.5144 66.6698C14.8385 66.3911 15.3408 66.5096 15.5091 66.9046L15.7029 67.3595C15.9913 68.0363 16.8858 68.1801 17.3664 67.627L17.4666 67.5117C17.7766 67.1549 17.8206 66.6375 17.5755 66.2312L17.1133 65.4652C16.6462 64.6911 15.7179 64.3282 14.854 64.5821Z" fill="white" stroke="white" stroke-width="0.5"/>
<path d="M9.24106 72.746L9.13766 72.7165C8.41819 72.5111 7.64721 72.7548 7.17369 73.3374L6.9574 73.6034C6.72137 73.8938 6.62132 74.2731 6.68297 74.6439C6.7657 75.1415 7.1256 75.5467 7.60687 75.684L8.63235 75.9768C8.89974 76.0531 9.18286 76.0523 9.44956 75.9745C10.2218 75.7492 10.6751 74.9445 10.4722 74.1589L10.4213 73.9618C10.2695 73.3741 9.82023 72.9113 9.24106 72.746Z" fill="white" stroke="white" stroke-width="0.5"/>
<path d="M52.2479 83.1373L53.5278 78.8027C54.8405 74.3573 58.1364 70.7694 62.4548 69.0851L63.3951 68.7184C66.1607 67.6397 69.2234 67.5983 72.0172 68.602C76.3933 70.1741 79.5077 74.081 80.0646 78.6974L80.1463 79.374C80.2905 80.5692 80.5952 81.7396 81.0521 82.8534L81.9835 85.1239C83.2751 88.2726 83.3878 91.7816 82.3009 95.0067L81.8925 96.2186C81.4456 97.5445 80.6903 98.7452 79.6885 99.722C77.9625 101.405 75.6235 102.31 73.2141 102.226L60.439 101.781C55.9306 101.443 52.3516 97.8504 52.03 93.3408L51.6775 88.3994C51.551 86.6254 51.7442 84.843 52.2479 83.1373Z" fill="black" stroke="black" stroke-width="0.5"/>
<path d="M53.2907 83.1781L54.3403 79.2325C55.467 74.9969 58.5421 71.5502 62.6223 69.9497L63.4149 69.6387C66.0178 68.6177 68.9033 68.5786 71.5329 69.5287C75.6255 71.0073 78.535 74.6666 79.0533 78.9871L79.1369 79.6839C79.2717 80.8075 79.5566 81.9079 79.984 82.9558L80.9897 85.4215C82.1207 88.1942 82.2803 91.268 81.4427 94.143L81.0599 95.4567C80.6745 96.7797 79.9553 97.9814 78.9715 98.9462C77.3996 100.488 75.2642 101.317 73.0641 101.24L60.6607 100.805C56.469 100.489 53.1824 97.0766 53.0237 92.8759L52.8176 87.418C52.7636 85.989 52.9231 84.56 53.2907 83.1781Z" fill="#00E2A5" stroke="white" stroke-width="1.5"/>
<path d="M59.9005 83.2922L59.8592 83.2992C58.4502 83.5362 57.0523 82.8224 56.418 81.5421C56.1363 80.9736 56.0278 80.3349 56.1058 79.7053L56.1941 78.9919C56.3797 77.4938 57.2054 76.1496 58.4579 75.3069L58.8237 75.0607C59.2593 74.7676 59.7575 74.5808 60.2784 74.515L60.6806 74.4643C62.2471 74.2667 63.6897 75.3426 63.9469 76.9004C63.9731 77.0586 63.9862 77.2187 63.9862 77.3791V78.0953C63.9862 80.001 62.9691 81.7618 61.3182 82.7138L61.0007 82.897C60.6604 83.0932 60.2879 83.227 59.9005 83.2922Z" fill="white" stroke="white"/>
<path d="M59.9231 81.885L59.853 81.8966C58.8167 82.0679 57.7893 81.546 57.3163 80.6081C57.1011 80.1814 57.0181 79.7002 57.0779 79.226L57.1379 78.7503C57.2796 77.6258 57.9052 76.6192 58.8507 75.9942L59.1151 75.8194C59.4414 75.6037 59.8132 75.4664 60.2014 75.4183L60.5461 75.3756C61.7008 75.2325 62.7633 76.0243 62.9561 77.1718C62.9762 77.2908 62.9862 77.4113 62.9862 77.532V78.0132C62.9862 79.4421 62.2178 80.7607 60.9746 81.4651L60.7476 81.5937C60.492 81.7385 60.2129 81.8371 59.9231 81.885Z" fill="black" stroke="black"/>
<path d="M78.782 80.8046L78.7594 80.8721C78.2645 82.3457 76.8706 83.3176 75.3236 83.2677C74.6294 83.2452 73.9564 83.0168 73.3891 82.6111L72.7786 82.1744C71.4309 81.2104 70.5637 79.7062 70.4025 78.0528L70.3563 77.5789C70.3004 77.0057 70.378 76.4279 70.5829 75.8914L70.7513 75.4502C71.3646 73.8442 73.13 73.0169 74.7518 73.5756C74.9181 73.6328 75.0794 73.7038 75.2341 73.7877L75.893 74.1449C77.729 75.1405 78.8989 77.047 78.9592 79.1416L78.9705 79.5356C78.9829 79.9668 78.9191 80.3965 78.782 80.8046Z" fill="white" stroke="white"/>
<path d="M77.6572 80.1515L77.6205 80.2596C77.2533 81.3388 76.2352 82.0532 75.1005 82.0279C74.5737 82.0162 74.062 81.8445 73.6326 81.5354L73.231 81.2462C72.2254 80.5223 71.5846 79.392 71.478 78.1544L71.4473 77.7977C71.4104 77.369 71.4714 76.938 71.6257 76.5376L71.7775 76.1435C72.2323 74.9632 73.5296 74.3544 74.7246 74.7607C74.8507 74.8035 74.9731 74.8571 75.0903 74.9206L75.5122 75.1494C76.8964 75.8999 77.772 77.3437 77.8007 78.9232L77.8057 79.1992C77.8116 79.5231 77.7614 79.8454 77.6572 80.1515Z" fill="black" stroke="black"/>
<path d="M31.7617 85.7309L33.0416 81.3962C34.3543 76.9508 37.6502 73.3629 41.9686 71.6786L42.9088 71.3119C45.6745 70.2332 48.7372 70.1918 51.531 71.1955C55.9071 72.7676 59.0214 76.6745 59.5784 81.2909L59.6601 81.9675C59.8043 83.1627 60.1089 84.3331 60.5659 85.4469L61.4973 87.7174C62.7889 90.8661 62.9016 94.3751 61.8147 97.6002L61.4063 98.8121C60.9594 100.138 60.204 101.339 59.2023 102.315C57.4763 103.999 55.1373 104.903 52.7279 104.819L39.9528 104.374C35.4444 104.036 31.8654 100.444 31.5438 95.9344L31.1913 90.9929C31.0648 89.2189 31.258 87.4365 31.7617 85.7309Z" fill="black" stroke="black" stroke-width="0.5"/>
<path d="M32.8045 85.7716L33.8541 81.826C34.9808 77.5904 38.0559 74.1437 42.1361 72.5432L42.9287 72.2323C45.5316 71.2112 48.4171 71.1721 51.0467 72.1222C55.1392 73.6008 58.0488 77.2601 58.5671 81.5806L58.6507 82.2774C58.7855 83.401 59.0704 84.5014 59.4978 85.5493L60.5035 88.015C61.6345 90.7877 61.7941 93.8615 60.9565 96.7365L60.5737 98.0503C60.1883 99.3732 59.4691 100.575 58.4853 101.54C56.9134 103.081 54.778 103.91 52.5779 103.833L40.1745 103.399C35.9828 103.082 32.6962 99.6701 32.5375 95.4694L32.3314 90.0115C32.2774 88.5825 32.4369 87.1535 32.8045 85.7716Z" fill="#E61818" stroke="white" stroke-width="1.5"/>
<path d="M39.4143 85.8855L39.373 85.8924C37.964 86.1294 36.566 85.4156 35.9318 84.1354C35.6501 83.5668 35.5416 82.9282 35.6196 82.2985L35.7079 81.5852C35.8935 80.087 36.7192 78.7429 37.9717 77.9001L38.3375 77.654C38.7731 77.3609 39.2713 77.174 39.7922 77.1083L40.1944 77.0576C41.7609 76.8599 43.2035 77.9358 43.4607 79.4937C43.4869 79.6519 43.5 79.812 43.5 79.9723V80.6886C43.5 82.5942 42.4829 84.355 40.832 85.3071L40.5145 85.4902C40.1742 85.6865 39.8016 85.8203 39.4143 85.8855Z" fill="white" stroke="white"/>
<path d="M39.4369 84.4783L39.3668 84.4899C38.3305 84.6611 37.3031 84.1392 36.8301 83.2014C36.6149 82.7746 36.5319 82.2934 36.5917 81.8193L36.6517 81.3436C36.7934 80.2191 37.419 79.2124 38.3645 78.5874L38.6289 78.4127C38.9552 78.197 39.327 78.0597 39.7152 78.0116L40.0599 77.9689C41.2146 77.8257 42.2771 78.6176 42.4699 79.765C42.4899 79.8841 42.5 80.0045 42.5 80.1252V80.6065C42.5 82.0354 41.7316 83.3539 40.4884 84.0583L40.2613 84.187C40.0058 84.3318 39.7267 84.4304 39.4369 84.4783Z" fill="black" stroke="black"/>
<path d="M58.2958 83.3979L58.2731 83.4654C57.7783 84.939 56.3843 85.9109 54.8374 85.8609C54.1432 85.8385 53.4702 85.6101 52.9029 85.2044L52.2924 84.7676C50.9447 83.8037 50.0775 82.2995 49.9163 80.646L49.8701 80.1721C49.8142 79.599 49.8918 79.0212 50.0967 78.4846L50.2651 78.0434C50.8784 76.4374 52.6438 75.6101 54.2656 76.1688C54.4319 76.2261 54.5932 76.297 54.7479 76.3809L55.4068 76.7382C57.2428 77.7337 58.4127 79.6402 58.473 81.7348L58.4843 82.1288C58.4967 82.5601 58.4329 82.9897 58.2958 83.3979Z" fill="white" stroke="white"/>
<path d="M57.171 82.7448L57.1343 82.8529C56.7671 83.932 55.749 84.6465 54.6143 84.6212C54.0875 84.6095 53.5758 84.4378 53.1464 84.1286L52.7448 83.8395C51.7392 83.1156 51.0984 81.9852 50.9918 80.7477L50.9611 80.391C50.9242 79.9623 50.9852 79.5313 51.1395 79.1308L51.2913 78.7368C51.7461 77.5564 53.0434 76.9477 54.2384 77.3539C54.3645 77.3968 54.4869 77.4503 54.6041 77.5139L55.026 77.7426C56.4102 78.4932 57.2857 79.937 57.3145 81.5165L57.3195 81.7924C57.3254 82.1164 57.2752 82.4387 57.171 82.7448Z" fill="black" stroke="black"/>
<path d="M55.6307 78.9375L58.3224 78.6089C60.7437 78.3132 61.8142 75.4033 60.1636 73.6039L58.34 71.616C58.2173 71.4822 58.107 71.3376 58.0104 71.184L55.4607 67.1289C55.3294 66.92 55.1727 66.728 54.9944 66.5573L49.5937 61.3879C48.3514 60.1989 46.3679 60.2931 45.2474 61.5943L39.8375 67.8768L35.4249 71.7597C33.6147 73.3526 34.3328 76.3253 36.6718 76.9211L39.4026 77.6167L43.1975 78.3497L47.2329 78.7305L51.5068 79.1352C51.6567 79.1494 51.8075 79.1523 51.9578 79.1439L55.6307 78.9375Z" fill="#D51818" stroke="white"/>
<path d="M41.5509 70.8774L41.1952 71.1646C40.5275 71.7037 40.4044 72.6738 40.9163 73.3626C41.2745 73.8447 41.8728 74.0854 42.4651 73.9858L44.5 73.6435C45.4528 73.4031 45.8558 72.272 45.2697 71.4833L45.2373 71.4397C45.0821 71.2309 44.8723 71.0688 44.631 70.9714L43.6312 70.5677C42.9329 70.2859 42.1368 70.4044 41.5509 70.8774Z" fill="white" stroke="white" stroke-width="0.5"/>
<path d="M52.2411 67.1625L52.1377 67.133C51.4182 66.9276 50.6472 67.1713 50.1737 67.7539L49.9574 68.0199C49.7214 68.3103 49.6213 68.6896 49.683 69.0604C49.7657 69.558 50.1256 69.9632 50.6069 70.1005L51.6324 70.3933C51.8997 70.4696 52.1829 70.4688 52.4496 70.391C53.2218 70.1657 53.6751 69.361 53.4722 68.5754L53.4213 68.3783C53.2695 67.7906 52.8202 67.3278 52.2411 67.1625Z" fill="white" stroke="white" stroke-width="0.5"/>
<path d="M49.0848 71.6586L49.0533 71.6597C48.2131 71.688 47.48 72.244 47.2192 73.0508C46.9908 73.7573 47.1657 74.5332 47.6745 75.0701L48.4357 75.8736C48.6876 76.1395 49.03 76.299 49.3939 76.3202C50.0473 76.3582 50.6443 75.9469 50.8473 75.3189L51.1137 74.4947C51.2406 74.1021 51.2536 73.6811 51.1512 73.2814L51.131 73.2027C50.8914 72.2679 50.0412 71.6263 49.0848 71.6586Z" fill="white" stroke="white" stroke-width="0.5"/>
<path d="M43.8539 66.0635L43.235 66.2454C42.9479 66.3298 42.727 66.5599 42.6539 66.8507L42.4876 67.5125C42.3369 68.1123 43.0463 68.5537 43.5142 68.1513C43.8384 67.8725 44.3407 67.9911 44.509 68.386L44.7028 68.8409C44.9911 69.5177 45.8856 69.6615 46.3663 69.1084L46.4665 68.9931C46.7765 68.6364 46.8205 68.1189 46.5754 67.7126L46.1132 66.9467C45.6461 66.1725 44.7178 65.8097 43.8539 66.0635Z" fill="white" stroke="white" stroke-width="0.5"/>
<path d="M38.2411 74.2277L38.1377 74.1982C37.4182 73.9928 36.6472 74.2365 36.1737 74.8191L35.9574 75.0851C35.7214 75.3755 35.6213 75.7548 35.683 76.1256C35.7657 76.6232 36.1256 77.0283 36.6069 77.1657L37.6324 77.4585C37.8997 77.5348 38.1829 77.534 38.4496 77.4562C39.2218 77.2309 39.6751 76.4262 39.4722 75.6406L39.4213 75.4435C39.2695 74.8558 38.8202 74.393 38.2411 74.2277Z" fill="white" stroke="white" stroke-width="0.5"/>
<path d="M73.7617 85.7309L75.0416 81.3962C76.3543 76.9508 79.6502 73.3629 83.9686 71.6786L84.9088 71.3119C87.6745 70.2332 90.7372 70.1918 93.531 71.1955C97.9071 72.7676 101.021 76.6745 101.578 81.2909L101.66 81.9675C101.804 83.1627 102.109 84.3331 102.566 85.4469L103.497 87.7174C104.789 90.8661 104.902 94.3751 103.815 97.6002L103.406 98.8121C102.959 100.138 102.204 101.339 101.202 102.315C99.4763 103.999 97.1373 104.903 94.7279 104.819L81.9528 104.374C77.4444 104.036 73.8654 100.444 73.5438 95.9344L73.1913 90.9929C73.0648 89.2189 73.258 87.4365 73.7617 85.7309Z" fill="black" stroke="black" stroke-width="0.5"/>
<path d="M74.8045 85.7716L75.8541 81.826C76.9808 77.5904 80.0559 74.1437 84.1361 72.5432L84.9287 72.2323C87.5316 71.2112 90.4171 71.1721 93.0467 72.1222C97.1392 73.6008 100.049 77.2601 100.567 81.5806L100.651 82.2774C100.785 83.401 101.07 84.5014 101.498 85.5493L102.503 88.015C103.634 90.7877 103.794 93.8615 102.956 96.7365L102.574 98.0503C102.188 99.3732 101.469 100.575 100.485 101.54C98.9134 103.081 96.778 103.91 94.5779 103.833L82.1745 103.399C77.9828 103.082 74.6962 99.6701 74.5375 95.4694L74.3314 90.0115C74.2774 88.5825 74.4369 87.1535 74.8045 85.7716Z" fill="#9FFF04" stroke="white" stroke-width="1.5"/>
<path d="M81.4143 85.8855L81.373 85.8924C79.964 86.1294 78.566 85.4156 77.9318 84.1354C77.6501 83.5668 77.5416 82.9282 77.6196 82.2985L77.7079 81.5852C77.8935 80.087 78.7192 78.7429 79.9717 77.9001L80.3375 77.654C80.7731 77.3609 81.2713 77.174 81.7922 77.1083L82.1944 77.0576C83.7609 76.8599 85.2035 77.9358 85.4607 79.4937C85.4869 79.6519 85.5 79.812 85.5 79.9723V80.6886C85.5 82.5942 84.4829 84.355 82.832 85.3071L82.5145 85.4902C82.1742 85.6865 81.8016 85.8203 81.4143 85.8855Z" fill="white" stroke="white"/>
<path d="M81.4369 84.4783L81.3668 84.4899C80.3305 84.6611 79.3031 84.1392 78.8301 83.2014C78.6149 82.7746 78.5319 82.2934 78.5917 81.8193L78.6517 81.3436C78.7934 80.2191 79.419 79.2124 80.3645 78.5874L80.6289 78.4127C80.9552 78.197 81.327 78.0597 81.7152 78.0116L82.0599 77.9689C83.2146 77.8257 84.2771 78.6176 84.4699 79.765C84.4899 79.8841 84.5 80.0045 84.5 80.1252V80.6065C84.5 82.0354 83.7316 83.3539 82.4884 84.0583L82.2613 84.187C82.0058 84.3318 81.7267 84.4304 81.4369 84.4783Z" fill="black" stroke="black"/>
<path d="M100.296 83.3979L100.273 83.4654C99.7783 84.939 98.3843 85.9109 96.8374 85.8609C96.1432 85.8385 95.4702 85.6101 94.9029 85.2044L94.2924 84.7676C92.9447 83.8037 92.0775 82.2995 91.9163 80.646L91.8701 80.1721C91.8142 79.599 91.8918 79.0212 92.0967 78.4846L92.2651 78.0434C92.8784 76.4374 94.6438 75.6101 96.2656 76.1688C96.4319 76.2261 96.5932 76.297 96.7479 76.3809L97.4068 76.7382C99.2428 77.7337 100.413 79.6402 100.473 81.7348L100.484 82.1288C100.497 82.5601 100.433 82.9897 100.296 83.3979Z" fill="white" stroke="white"/>
<path d="M99.171 82.7448L99.1343 82.8529C98.7671 83.932 97.749 84.6465 96.6143 84.6212C96.0875 84.6095 95.5758 84.4378 95.1464 84.1286L94.7448 83.8395C93.7392 83.1156 93.0984 81.9852 92.9918 80.7477L92.9611 80.391C92.9242 79.9623 92.9852 79.5313 93.1395 79.1308L93.2913 78.7368C93.7461 77.5564 95.0434 76.9477 96.2384 77.3539C96.3645 77.3968 96.4869 77.4503 96.6041 77.5139L97.026 77.7426C98.4102 78.4932 99.2857 79.937 99.3145 81.5165L99.3195 81.7924C99.3254 82.1164 99.2752 82.4387 99.171 82.7448Z" fill="black" stroke="black"/>
<path d="M136.896 60.2311L138.176 55.8965C139.489 51.451 142.785 47.8632 147.103 46.1789L148.043 45.8121C150.809 44.7334 153.872 44.6921 156.666 45.6957C161.042 47.2678 164.156 51.1748 164.713 55.7912L164.795 56.4677C164.939 57.663 165.243 58.8333 165.7 59.9472L166.632 62.2177C167.923 65.3664 168.036 68.8753 166.949 72.1004L166.541 73.3124C166.094 74.6382 165.339 75.839 164.337 76.8157C162.611 78.4988 160.272 79.4033 157.862 79.3194L145.087 78.8745C140.579 78.5363 137 74.9442 136.678 70.4346L136.326 65.4931C136.199 63.7191 136.393 61.9368 136.896 60.2311Z" fill="black" stroke="black" stroke-width="0.5"/>
<path d="M137.939 60.2718L138.989 56.3262C140.115 52.0906 143.19 48.644 147.271 47.0434L148.063 46.7325C150.666 45.7115 153.552 45.6724 156.181 46.6224C160.274 48.1011 163.183 51.7604 163.702 56.0809L163.785 56.7777C163.92 57.9012 164.205 59.0017 164.632 60.0495L165.638 62.5152C166.769 65.288 166.929 68.3618 166.091 71.2368L165.708 72.5505C165.323 73.8735 164.604 75.0751 163.62 76.0399C162.048 77.5814 159.913 78.4104 157.712 78.3333L145.309 77.8989C141.117 77.5827 137.831 74.1704 137.672 69.9697L137.466 64.5117C137.412 63.0828 137.571 61.6538 137.939 60.2718Z" fill="#009A6A" stroke="white" stroke-width="1.5"/>
<path d="M144.549 60.3857L144.508 60.3927C143.099 60.6297 141.701 59.9159 141.066 58.6356C140.785 58.0671 140.676 57.4284 140.754 56.7988L140.842 56.0854C141.028 54.5873 141.854 53.2431 143.106 52.4004L143.472 52.1542C143.908 51.8612 144.406 51.6743 144.927 51.6085L145.329 51.5578C146.895 51.3602 148.338 52.4361 148.595 53.9939C148.621 54.1521 148.635 54.3122 148.635 54.4726V55.1888C148.635 57.0945 147.617 58.8553 145.967 59.8073L145.649 59.9905C145.309 60.1867 144.936 60.3206 144.549 60.3857Z" fill="white" stroke="white"/>
<path d="M144.571 58.9785L144.501 58.9901C143.465 59.1614 142.438 58.6395 141.965 57.7016C141.749 57.2749 141.666 56.7937 141.726 56.3195L141.786 55.8438C141.928 54.7193 142.554 53.7127 143.499 53.0877L143.763 52.9129C144.09 52.6972 144.462 52.5599 144.85 52.5118L145.194 52.4691C146.349 52.326 147.412 53.1179 147.604 54.2653C147.624 54.3843 147.635 54.5048 147.635 54.6255V55.1067C147.635 56.5356 146.866 57.8542 145.623 58.5586L145.396 58.6872C145.14 58.832 144.861 58.9306 144.571 58.9785Z" fill="black" stroke="black"/>
<path d="M163.43 57.8981L163.408 57.9656C162.913 59.4392 161.519 60.4112 159.972 60.3612C159.278 60.3387 158.605 60.1103 158.037 59.7046L157.427 59.2679C156.079 58.3039 155.212 56.7997 155.051 55.1463L155.005 54.6724C154.949 54.0992 155.026 53.5214 155.231 52.9849L155.4 52.5437C156.013 50.9377 157.778 50.1104 159.4 50.6691C159.566 50.7263 159.728 50.7973 159.882 50.8812L160.541 51.2384C162.377 52.234 163.547 54.1405 163.607 56.2351L163.619 56.6291C163.631 57.0603 163.567 57.49 163.43 57.8981Z" fill="white" stroke="white"/>
<path d="M162.306 57.245L162.269 57.3531C161.902 58.4323 160.883 59.1467 159.749 59.1214C159.222 59.1097 158.71 58.938 158.281 58.6289L157.879 58.3397C156.874 57.6159 156.233 56.4855 156.126 55.2479L156.096 54.8912C156.059 54.4626 156.12 54.0315 156.274 53.6311L156.426 53.237C156.881 52.0567 158.178 51.4479 159.373 51.8542C159.499 51.897 159.621 51.9506 159.739 52.0141L160.16 52.2429C161.545 52.9934 162.42 54.4372 162.449 56.0167L162.454 56.2927C162.46 56.6166 162.41 56.9389 162.306 57.245Z" fill="black" stroke="black"/>
<path d="M114.896 62.2494L116.176 57.9148C117.489 53.4693 120.785 49.8815 125.103 48.1972L126.043 47.8304C128.809 46.7517 131.872 46.7104 134.666 47.714C139.042 49.2861 142.156 53.1931 142.713 57.8095L142.795 58.486C142.939 59.6813 143.243 60.8516 143.7 61.9655L144.632 64.236C145.923 67.3847 146.036 70.8936 144.949 74.1187L144.541 75.3307C144.094 76.6565 143.339 77.8573 142.337 78.834C140.611 80.5171 138.272 81.4216 135.862 81.3377L123.087 80.8928C118.579 80.5546 115 76.9625 114.678 72.4529L114.326 67.5114C114.199 65.7374 114.393 63.9551 114.896 62.2494Z" fill="black" stroke="black" stroke-width="0.5"/>
<path d="M115.939 62.2902L116.989 58.3445C118.115 54.1089 121.19 50.6623 125.271 49.0617L126.063 48.7508C128.666 47.7298 131.552 47.6907 134.181 48.6407C138.274 50.1194 141.183 53.7787 141.702 58.0992L141.785 58.796C141.92 59.9196 142.205 61.02 142.632 62.0678L143.638 64.5335C144.769 67.3063 144.929 70.3801 144.091 73.2551L143.708 74.5688C143.323 75.8918 142.604 77.0934 141.62 78.0582C140.048 79.5997 137.913 80.4287 135.712 80.3516L123.309 79.9172C119.117 79.601 115.831 76.1887 115.672 71.988L115.466 66.53C115.412 65.1011 115.571 63.6721 115.939 62.2902Z" fill="#E61818" stroke="white" stroke-width="1.5"/>
<path d="M122.549 62.404L122.508 62.411C121.099 62.648 119.701 61.9342 119.066 60.6539C118.785 60.0854 118.676 59.4467 118.754 58.8171L118.842 58.1037C119.028 56.6056 119.854 55.2614 121.106 54.4187L121.472 54.1726C121.908 53.8795 122.406 53.6926 122.927 53.6269L123.329 53.5761C124.895 53.3785 126.338 54.4544 126.595 56.0122C126.621 56.1704 126.635 56.3305 126.635 56.4909V57.2071C126.635 59.1128 125.617 60.8736 123.967 61.8257L123.649 62.0088C123.309 62.205 122.936 62.3389 122.549 62.404Z" fill="white" stroke="white"/>
<path d="M122.571 60.9968L122.501 61.0084C121.465 61.1797 120.438 60.6578 119.965 59.7199C119.749 59.2932 119.666 58.812 119.726 58.3378L119.786 57.8621C119.928 56.7376 120.554 55.731 121.499 55.106L121.763 54.9312C122.09 54.7155 122.462 54.5782 122.85 54.5301L123.194 54.4874C124.349 54.3443 125.412 55.1362 125.604 56.2836C125.624 56.4026 125.635 56.5231 125.635 56.6438V57.125C125.635 58.5539 124.866 59.8725 123.623 60.5769L123.396 60.7055C123.14 60.8503 122.861 60.9489 122.571 60.9968Z" fill="black" stroke="black"/>
<path d="M141.43 59.9164L141.408 59.9839C140.913 61.4576 139.519 62.4295 137.972 62.3795C137.278 62.357 136.605 62.1286 136.037 61.7229L135.427 61.2862C134.079 60.3222 133.212 58.818 133.051 57.1646L133.005 56.6907C132.949 56.1175 133.026 55.5398 133.231 55.0032L133.4 54.562C134.013 52.956 135.778 52.1287 137.4 52.6874C137.566 52.7446 137.728 52.8156 137.882 52.8995L138.541 53.2568C140.377 54.2523 141.547 56.1588 141.607 58.2534L141.619 58.6474C141.631 59.0786 141.567 59.5083 141.43 59.9164Z" fill="white" stroke="white"/>
<path d="M140.306 59.2633L140.269 59.3714C139.902 60.4506 138.883 61.165 137.749 61.1398C137.222 61.128 136.71 60.9563 136.281 60.6472L135.879 60.358C134.874 59.6342 134.233 58.5038 134.126 57.2662L134.096 56.9095C134.059 56.4809 134.12 56.0498 134.274 55.6494L134.426 55.2553C134.881 54.075 136.178 53.4663 137.373 53.8725C137.499 53.9154 137.621 53.9689 137.739 54.0325L138.16 54.2612C139.545 55.0117 140.42 56.4556 140.449 58.035L140.454 58.311C140.46 58.6349 140.41 58.9572 140.306 59.2633Z" fill="black" stroke="black"/>
<path d="M125.654 82.5423L127.032 77.5993C128.183 73.4673 131.172 70.0952 135.137 68.4567L136.026 68.0891C138.74 66.9674 141.779 66.9246 144.524 67.9693C148.549 69.5016 151.382 73.1514 151.87 77.4306L152.017 78.7259C152.149 79.8854 152.429 81.0233 152.851 82.1117L153.764 84.4707C154.974 87.5984 155.08 91.0458 154.064 94.2419L153.617 95.6481C153.222 96.888 152.546 98.0198 151.641 98.9547C149.979 100.673 147.664 101.604 145.275 101.516L133.414 101.078C129.159 100.74 125.795 97.3346 125.508 93.076L125.138 87.5742C125.024 85.8798 125.198 84.1782 125.654 82.5423Z" fill="black" stroke="black" stroke-width="0.5"/>
<path d="M126.646 82.5634L127.781 78.0448C128.768 74.1109 131.557 70.8754 135.302 69.3185L136.055 69.0055C138.609 67.9439 141.473 67.9034 144.056 68.8922C147.819 70.3332 150.466 73.7513 150.92 77.7558L151.064 79.0325C151.188 80.1226 151.449 81.1925 151.844 82.2163L152.822 84.7574C153.882 87.5136 154.032 90.5371 153.25 93.3848L152.836 94.8886C152.496 96.1245 151.853 97.2558 150.964 98.1794C149.447 99.7562 147.329 100.611 145.142 100.53L133.623 100.103C129.665 99.7861 126.573 96.5539 126.431 92.5858L126.218 86.6171C126.17 85.2525 126.314 83.8878 126.646 82.5634Z" fill="#00E2A5" stroke="white" stroke-width="1.5"/>
<path d="M134.289 81.9837L133.942 82.1958C133.622 82.3909 133.269 82.5247 132.901 82.5904C131.56 82.8294 130.226 82.1373 129.649 80.9035L129.594 80.7855C129.344 80.251 129.248 79.6575 129.317 79.0714L129.425 78.1454C129.59 76.7353 130.343 75.4607 131.499 74.6365L131.888 74.3596C132.299 74.0659 132.777 73.8773 133.278 73.8103L133.475 73.784C135.039 73.5749 136.484 74.6541 136.727 76.2134C136.75 76.3612 136.761 76.5106 136.761 76.6602V77.5746C136.761 79.3747 135.825 81.045 134.289 81.9837Z" fill="white" stroke="white"/>
<path d="M133.953 80.7424L133.704 80.8921C133.464 81.0361 133.199 81.1347 132.924 81.183C131.915 81.3596 130.913 80.842 130.473 79.9176L130.448 79.8652C130.257 79.4638 130.184 79.0166 130.236 78.5752L130.312 77.9395C130.438 76.8812 131.009 75.9266 131.882 75.3151L132.163 75.1181C132.472 74.9018 132.828 74.7632 133.202 74.7141L133.392 74.6891C134.545 74.5377 135.609 75.3322 135.791 76.4809C135.809 76.5921 135.818 76.7045 135.818 76.8171V77.4473C135.818 78.797 135.11 80.0477 133.953 80.7424Z" fill="black" stroke="black"/>
<path d="M150.725 80.099L150.672 80.2645C150.221 81.6868 148.939 82.6157 147.495 82.5662C146.818 82.543 146.157 82.3047 145.601 81.8827L145.089 81.4952C143.8 80.5176 142.969 79.0076 142.818 77.367L142.772 76.8735C142.72 76.3018 142.792 75.729 142.983 75.1987L143.18 74.6518C143.741 73.0953 145.382 72.3114 146.911 72.8697C147.074 72.9291 147.232 73.0028 147.384 73.09L147.901 73.3871C149.689 74.4146 150.834 76.3611 150.892 78.471L150.901 78.8316C150.913 79.2639 150.853 79.6927 150.725 80.099Z" fill="white" stroke="white"/>
<path d="M149.663 79.4463L149.605 79.6264C149.271 80.6678 148.335 81.3507 147.276 81.3257C146.762 81.3136 146.26 81.1343 145.839 80.8129L145.475 80.5358C144.534 79.8176 143.933 78.7078 143.836 77.5068L143.802 77.0925C143.767 76.6651 143.824 76.2379 143.968 75.8422L144.139 75.3702C144.555 74.2264 145.761 73.6495 146.888 74.0553C147.012 74.0998 147.131 74.1554 147.246 74.2215L147.565 74.4047C148.914 75.1794 149.771 76.6533 149.798 78.244L149.802 78.4955C149.808 78.8201 149.761 79.1416 149.663 79.4463Z" fill="black" stroke="black"/>
<path d="M147.262 74.0583L149.66 73.2267C151.922 72.4426 152.447 69.4643 150.58 68.0066L148.462 66.3518C148.321 66.2418 148.191 66.1192 148.072 65.9854L144.989 62.5066C144.828 62.324 144.644 62.1624 144.442 62.0254L138.754 58.1618C137.29 57.1674 135.271 57.679 134.42 59.2602L130.651 66.262L127.203 71.0077C125.804 72.9327 127.046 75.6184 129.397 75.7547L131.996 75.9052L135.642 75.8896L139.447 75.4817L143.453 75.0538C143.611 75.0369 143.768 75.0074 143.922 74.9656L147.262 74.0583Z" fill="#EA0707" stroke="white"/>
<path d="M134.859 69.1816L134.559 69.4386C133.935 69.9726 133.818 70.8933 134.29 71.5658C134.646 72.0737 135.265 72.329 135.875 72.2201L137.705 71.894C138.622 71.6489 139.015 70.5668 138.471 69.7898L138.412 69.7061C138.258 69.487 138.046 69.315 137.8 69.2098L136.977 68.8577C136.267 68.5539 135.446 68.6794 134.859 69.1816Z" fill="white" stroke="white" stroke-width="0.5"/>
<path d="M147.827 68.4366L147.735 68.4089C147.061 68.2048 146.342 68.443 145.902 69.0162L145.68 69.306C145.461 69.5916 145.368 69.9654 145.426 70.3325C145.505 70.833 145.849 71.2427 146.307 71.3813L147.26 71.6697C147.517 71.7473 147.787 71.7467 148.041 71.6682C148.77 71.4428 149.195 70.6411 149.002 69.8525L148.958 69.6696C148.813 69.0748 148.381 68.6043 147.827 68.4366Z" fill="white" stroke="white" stroke-width="0.5"/>
<path d="M142.157 64.8667L142.126 64.8679C141.332 64.8963 140.639 65.4536 140.393 66.2613C140.178 66.9666 140.342 67.74 140.82 68.2749L141.543 69.0835C141.78 69.3483 142.102 69.5073 142.444 69.5284C143.061 69.5664 143.626 69.1539 143.818 68.5247L144.068 67.7048C144.188 67.311 144.2 66.889 144.104 66.4885L144.084 66.406C143.858 65.4736 143.058 64.8345 142.157 64.8667Z" fill="white" stroke="white" stroke-width="0.5"/>
<path d="M136.107 62.309L135.559 62.4799C135.292 62.5628 135.091 62.7805 135.026 63.0558L134.854 63.7807C134.718 64.3521 135.4 64.7761 135.827 64.3865C136.129 64.1119 136.616 64.2344 136.773 64.6241L136.953 65.0731C137.219 65.7336 138.075 65.8857 138.514 65.3502L138.65 65.1851C138.925 64.849 138.961 64.3685 138.74 63.9799L138.299 63.2042C137.854 62.4232 136.94 62.0498 136.107 62.309Z" fill="white" stroke="white" stroke-width="0.5"/>
<path d="M130.841 70.4552L130.749 70.4274C130.075 70.2234 129.356 70.4615 128.916 71.0348L128.694 71.3246C128.475 71.6102 128.383 71.984 128.44 72.3511C128.519 72.8516 128.863 73.2612 129.321 73.3998L130.275 73.6883C130.531 73.7658 130.802 73.7653 131.056 73.6867C131.784 73.4614 132.209 72.6597 132.017 71.8711L131.972 71.6881C131.827 71.0933 131.395 70.6229 130.841 70.4552Z" fill="white" stroke="white" stroke-width="0.5"/>
<path d="M100.896 86.8327L102.176 82.498C103.489 78.0526 106.785 74.4647 111.103 72.7804L112.043 72.4137C114.809 71.335 117.872 71.2936 120.666 72.2973C125.042 73.8694 128.156 77.7763 128.713 82.3928L128.795 83.0693C128.939 84.2645 129.244 85.4349 129.701 86.5487L130.632 88.8192C131.924 91.9679 132.036 95.4769 130.949 98.702L130.541 99.9139C130.094 101.24 129.339 102.441 128.337 103.417C126.611 105.1 124.272 106.005 121.863 105.921L109.087 105.476C104.579 105.138 101 101.546 100.678 97.0362L100.326 92.0947C100.199 90.3207 100.393 88.5384 100.896 86.8327Z" fill="black" stroke="black" stroke-width="0.5"/>
<path d="M101.939 86.8734L102.989 82.9278C104.115 78.6922 107.191 75.2455 111.271 73.645L112.063 73.3341C114.666 72.313 117.552 72.2739 120.181 73.224C124.274 74.7026 127.183 78.3619 127.702 82.6824L127.785 83.3792C127.92 84.5028 128.205 85.6032 128.632 86.6511L129.638 89.1168C130.769 91.8895 130.929 94.9633 130.091 97.8383L129.708 99.1521C129.323 100.475 128.604 101.677 127.62 102.641C126.048 104.183 123.913 105.012 121.713 104.935L109.309 104.5C105.117 104.184 101.831 100.772 101.672 96.5712L101.466 91.1133C101.412 89.6843 101.572 88.2553 101.939 86.8734Z" fill="#E61818" stroke="white" stroke-width="1.5"/>
<path d="M108.549 86.9873L108.508 86.9942C107.099 87.2312 105.701 86.5174 105.066 85.2372C104.785 84.6687 104.676 84.03 104.754 83.4003L104.843 82.687C105.028 81.1888 105.854 79.8447 107.106 79.002L107.472 78.7558C107.908 78.4627 108.406 78.2758 108.927 78.2101L109.329 78.1594C110.896 77.9617 112.338 79.0376 112.595 80.5955C112.622 80.7537 112.635 80.9138 112.635 81.0741V81.7904C112.635 83.6961 111.617 85.4568 109.967 86.4089L109.649 86.592C109.309 86.7883 108.936 86.9221 108.549 86.9873Z" fill="white" stroke="white"/>
<path d="M108.572 85.5801L108.501 85.5917C107.465 85.7629 106.438 85.2411 105.965 84.3032C105.75 83.8765 105.667 83.3952 105.726 82.9211L105.786 82.4454C105.928 81.3209 106.554 80.3143 107.499 79.6892L107.764 79.5145C108.09 79.2988 108.462 79.1615 108.85 79.1134L109.194 79.0707C110.349 78.9275 111.412 79.7194 111.605 80.8669C111.625 80.9859 111.635 81.1063 111.635 81.227V81.7083C111.635 83.1372 110.866 84.4557 109.623 85.1601L109.396 85.2888C109.14 85.4336 108.861 85.5322 108.572 85.5801Z" fill="black" stroke="black"/>
<path d="M127.43 84.4997L127.408 84.5672C126.913 86.0408 125.519 87.0127 123.972 86.9627C123.278 86.9403 122.605 86.7119 122.038 86.3062L121.427 85.8694C120.079 84.9055 119.212 83.4013 119.051 81.7479L119.005 81.2739C118.949 80.7008 119.026 80.123 119.231 79.5864L119.4 79.1453C120.013 77.5392 121.778 76.7119 123.4 77.2706C123.566 77.3279 123.728 77.3988 123.883 77.4827L124.541 77.84C126.377 78.8355 127.547 80.742 127.608 82.8366L127.619 83.2306C127.631 83.6619 127.568 84.0916 127.43 84.4997Z" fill="white" stroke="white"/>
<path d="M126.306 83.8466L126.269 83.9547C125.902 85.0338 124.884 85.7483 123.749 85.723C123.222 85.7113 122.71 85.5396 122.281 85.2304L121.879 84.9413C120.874 84.2174 120.233 83.0871 120.126 81.8495L120.096 81.4928C120.059 81.0641 120.12 80.6331 120.274 80.2326L120.426 79.8386C120.881 78.6583 122.178 78.0495 123.373 78.4557C123.499 78.4986 123.622 78.5521 123.739 78.6157L124.161 78.8444C125.545 79.595 126.42 81.0388 126.449 82.6183L126.454 82.8942C126.46 83.2182 126.41 83.5405 126.306 83.8466Z" fill="black" stroke="black"/>
<path d="M145.896 87.4811L147.176 83.1465C148.489 78.701 151.785 75.1132 156.103 73.4289L157.043 73.0621C159.809 71.9834 162.872 71.9421 165.666 72.9457C170.042 74.5178 173.156 78.4248 173.713 83.0412L173.795 83.7177C173.939 84.913 174.244 86.0833 174.701 87.1972L175.632 89.4677C176.924 92.6164 177.036 96.1253 175.949 99.3504L175.541 100.562C175.094 101.888 174.339 103.089 173.337 104.066C171.611 105.749 169.272 106.653 166.863 106.569L154.087 106.124C149.579 105.786 146 102.194 145.678 97.6846L145.326 92.7431C145.199 90.9691 145.393 89.1868 145.896 87.4811Z" fill="black" stroke="black" stroke-width="0.5"/>
<path d="M146.939 87.5218L147.989 83.5762C149.115 79.3406 152.191 75.894 156.271 74.2934L157.063 73.9825C159.666 72.9615 162.552 72.9224 165.181 73.8724C169.274 75.3511 172.183 79.0104 172.702 83.3309L172.785 84.0277C172.92 85.1512 173.205 86.2517 173.632 87.2995L174.638 89.7652C175.769 92.538 175.929 95.6118 175.091 98.4868L174.708 99.8005C174.323 101.123 173.604 102.325 172.62 103.29C171.048 104.831 168.913 105.66 166.713 105.583L154.309 105.149C150.117 104.833 146.831 101.42 146.672 97.2197L146.466 91.7617C146.412 90.3328 146.572 88.9038 146.939 87.5218Z" fill="#9FFF04" stroke="white" stroke-width="1.5"/>
<path d="M153.549 87.6357L153.508 87.6427C152.099 87.8797 150.701 87.1659 150.066 85.8856C149.785 85.3171 149.676 84.6784 149.754 84.0488L149.843 83.3354C150.028 81.8373 150.854 80.4931 152.106 79.6504L152.472 79.4042C152.908 79.1112 153.406 78.9243 153.927 78.8585L154.329 78.8078C155.896 78.6102 157.338 79.6861 157.595 81.2439C157.622 81.4021 157.635 81.5622 157.635 81.7226V82.4388C157.635 84.3445 156.617 86.1053 154.967 87.0573L154.649 87.2405C154.309 87.4367 153.936 87.5706 153.549 87.6357Z" fill="white" stroke="white"/>
<path d="M153.572 86.2285L153.501 86.2401C152.465 86.4114 151.438 85.8895 150.965 84.9516C150.75 84.5249 150.667 84.0437 150.726 83.5695L150.786 83.0938C150.928 81.9693 151.554 80.9627 152.499 80.3377L152.764 80.1629C153.09 79.9472 153.462 79.8099 153.85 79.7618L154.194 79.7191C155.349 79.576 156.412 80.3679 156.605 81.5153C156.625 81.6343 156.635 81.7548 156.635 81.8755V82.3567C156.635 83.7856 155.866 85.1042 154.623 85.8086L154.396 85.9372C154.14 86.082 153.861 86.1806 153.572 86.2285Z" fill="black" stroke="black"/>
<path d="M172.43 85.1481L172.408 85.2156C171.913 86.6892 170.519 87.6612 168.972 87.6112C168.278 87.5887 167.605 87.3603 167.038 86.9546L166.427 86.5179C165.079 85.5539 164.212 84.0497 164.051 82.3963L164.005 81.9224C163.949 81.3492 164.026 80.7714 164.231 80.2349L164.4 79.7937C165.013 78.1877 166.778 77.3604 168.4 77.9191C168.566 77.9763 168.728 78.0473 168.883 78.1312L169.541 78.4884C171.377 79.484 172.547 81.3905 172.608 83.4851L172.619 83.8791C172.631 84.3103 172.568 84.74 172.43 85.1481Z" fill="white" stroke="white"/>
<path d="M171.306 84.495L171.269 84.6031C170.902 85.6823 169.884 86.3967 168.749 86.3714C168.222 86.3597 167.71 86.188 167.281 85.8789L166.879 85.5897C165.874 84.8659 165.233 83.7355 165.126 82.4979L165.096 82.1412C165.059 81.7126 165.12 81.2815 165.274 80.8811L165.426 80.487C165.881 79.3067 167.178 78.6979 168.373 79.1042C168.499 79.147 168.622 79.2006 168.739 79.2641L169.161 79.4929C170.545 80.2434 171.42 81.6872 171.449 83.2667L171.454 83.5427C171.46 83.8666 171.41 84.1889 171.306 84.495Z" fill="black" stroke="black"/>
<path d="M168.934 80.052L171.568 79.4056C173.938 78.8239 174.661 75.8063 172.812 74.2157L170.77 72.4592C170.632 72.341 170.506 72.2105 170.392 72.0694L167.386 68.346C167.231 68.1541 167.053 67.9821 166.856 67.8338L160.889 63.3426C159.517 62.3098 157.559 62.6392 156.598 64.0645L151.959 70.9472L148.032 75.3273C146.42 77.1246 147.48 79.9918 149.872 80.3052L152.665 80.671L156.519 80.9475L160.571 80.8455L164.862 80.739C165.013 80.7352 165.163 80.7202 165.311 80.6939L168.934 80.052Z" fill="#EA0762" stroke="white"/>
<path d="M156.26 74.1469L155.884 74.4064C155.179 74.8936 154.984 75.8517 155.443 76.5774C155.765 77.0852 156.343 77.3704 156.941 77.3158L158.996 77.1282C159.964 76.9605 160.45 75.8629 159.924 75.0321L159.895 74.9863C159.755 74.7663 159.558 74.5889 159.325 74.4735L158.358 73.9954C157.682 73.6615 156.88 73.7195 156.26 74.1469Z" fill="white" stroke="white" stroke-width="0.5"/>
<path d="M169.963 74.4968L169.862 74.4596C169.16 74.2004 168.373 74.3852 167.858 74.9303L167.622 75.1792C167.365 75.451 167.237 75.8217 167.271 76.1961C167.317 76.6985 167.646 77.1297 168.115 77.3031L169.116 77.6725C169.377 77.7688 169.66 77.7895 169.931 77.732C170.718 77.5657 171.23 76.7975 171.086 75.9988L171.05 75.7984C170.942 75.2009 170.528 74.7055 169.963 74.4968Z" fill="white" stroke="white" stroke-width="0.5"/>
<path d="M164.219 70.477L164.187 70.4757C163.347 70.4405 162.575 70.9396 162.255 71.7243C161.975 72.4116 162.092 73.1985 162.559 73.7724L163.259 74.6312C163.49 74.9153 163.82 75.1003 164.181 75.1489C164.83 75.2362 165.455 74.8712 165.704 74.2602L166.031 73.4585C166.187 73.0766 166.231 72.6578 166.159 72.2515L166.144 72.1715C165.975 71.2212 165.175 70.5171 164.219 70.477Z" fill="white" stroke="white" stroke-width="0.5"/>
<path d="M158.067 67.4324L157.436 67.567C157.144 67.6295 156.906 67.8422 156.812 68.1267L156.597 68.774C156.402 69.3608 157.077 69.8546 157.573 69.4886C157.917 69.2352 158.409 69.3913 158.548 69.7979L158.707 70.2662C158.945 70.9629 159.826 71.1739 160.346 70.6586L160.455 70.5513C160.79 70.219 160.873 69.7063 160.658 69.2825L160.254 68.4838C159.846 67.6765 158.947 67.2446 158.067 67.4324Z" fill="white" stroke="white" stroke-width="0.5"/>
<path d="M151.864 75.1492L151.763 75.1119C151.061 74.8527 150.274 75.0375 149.758 75.5827L149.523 75.8316C149.266 76.1033 149.138 76.474 149.172 76.8484C149.218 77.3508 149.547 77.7821 150.016 77.9554L151.017 78.3249C151.278 78.4212 151.561 78.4418 151.832 78.3844C152.619 78.2181 153.131 77.4499 152.987 76.6512L152.951 76.4507C152.843 75.8533 152.429 75.3578 151.864 75.1492Z" fill="white" stroke="white" stroke-width="0.5"/>
</svg>
