<svg width="33" height="36" viewBox="0 0 33 36" fill="none" xmlns="http://www.w3.org/2000/svg">
<path d="M1.33242 15.3078L2.45742 11.6694C3.82491 7.24666 7.14159 3.6932 11.4596 2.02445L12.4381 1.6463C15.1865 0.584161 18.2248 0.543424 21.0007 1.5315C25.394 3.0953 28.526 7.00812 29.0897 11.6373L29.1669 12.2719C29.3066 13.4191 29.5948 14.5433 30.0242 15.6162L31.1138 18.3385C32.2792 21.2503 32.4293 24.4699 31.5398 27.4774L31.123 28.8869C30.7133 30.2725 29.9518 31.5284 28.9127 32.5323C27.2803 34.1094 25.0775 34.9558 22.8091 34.8775L9.45283 34.4167C4.94698 34.0818 1.37064 30.489 1.05642 25.9817L0.695968 20.8111C0.566444 18.9531 0.782234 17.0872 1.33242 15.3078Z" fill="black" stroke="black" stroke-width="0.5"/>
<path d="M2.30828 15.9706L3.33292 12.1541C4.47283 7.90821 7.56686 4.45918 11.6644 2.86659L12.4563 2.55882C15.0429 1.55348 17.9054 1.51493 20.5182 2.45026C24.627 3.92113 27.553 7.58601 28.0775 11.9185L28.1497 12.5143C28.2851 13.633 28.5712 14.7282 29.0002 15.7702L30.0009 18.2012C31.133 20.9511 31.2927 24.0051 30.4538 26.8581L30.0802 28.1288C29.6906 29.4538 28.9654 30.6557 27.9749 31.6182C26.4088 33.1399 24.29 33.9572 22.1078 33.8815L9.67453 33.45C5.48313 33.1367 2.19507 29.7264 2.03498 25.5263L1.83201 20.2015C1.77765 18.7753 1.9382 17.349 2.30828 15.9706Z" fill="#D608FF" stroke="white" stroke-width="1.5"/>
<path d="M8.9151 16.0975L8.84652 16.1089C7.45176 16.3414 6.06849 15.637 5.43613 14.3723C5.15175 13.8035 5.04209 13.1633 5.12096 12.5323L5.20496 11.8603C5.39231 10.3615 6.2224 9.0184 7.47916 8.18056L7.83801 7.94133C8.27335 7.6511 8.77029 7.46621 9.28947 7.40132L9.72163 7.3473C11.2741 7.15324 12.7031 8.21866 12.9603 9.7619C12.9867 9.92036 13 10.0807 13 10.2414V10.9186C13 12.8241 11.979 14.5834 10.3246 15.5288L10.0148 15.7058C9.67431 15.9004 9.30196 16.033 8.9151 16.0975Z" fill="white" stroke="white"/>
<path d="M8.9375 14.7032L8.84728 14.718C7.82149 14.886 6.80489 14.371 6.33342 13.4446C6.11617 13.0177 6.03233 12.5354 6.09278 12.0602L6.1501 11.6097C6.29281 10.4881 6.91976 9.48531 7.8656 8.86581L8.12932 8.69308C8.45541 8.4795 8.82622 8.34371 9.21312 8.2962L9.57993 8.25115C10.7242 8.11062 11.7768 8.89474 11.9696 10.0314C11.9898 10.1506 12 10.2713 12 10.3922V10.8447C12 12.2734 11.2287 13.5909 9.98289 14.2903L9.76157 14.4146C9.50583 14.5581 9.22693 14.6558 8.9375 14.7032Z" fill="black" stroke="black"/>
<path d="M27.7957 13.6333L27.7783 13.6845C27.2807 15.1528 25.8811 16.1227 24.3315 16.0731C23.641 16.051 22.9722 15.8262 22.4085 15.4267L21.7807 14.9818C20.4401 14.0317 19.5777 12.5468 19.4168 10.9117L19.3701 10.4371C19.3142 9.869 19.392 9.29574 19.5973 8.76312L19.7592 8.34292C20.3755 6.74368 22.1451 5.91701 23.7671 6.47063C23.9323 6.52703 24.0927 6.5969 24.2465 6.67953L24.9226 7.04279C26.7495 8.02424 27.9126 9.90702 27.9728 11.9799L27.9843 12.3757C27.9967 12.8028 27.9328 13.2286 27.7957 13.6333Z" fill="white" stroke="white"/>
<path d="M26.4469 12.7124L26.4208 12.8166C26.1674 13.8305 25.315 14.5832 24.2775 14.7091C23.6522 14.785 23.0213 14.6243 22.5085 14.2585L22.0968 13.9648C21.1849 13.3144 20.6039 12.2971 20.507 11.1813L20.4611 10.6538C20.4242 10.2289 20.4854 9.80121 20.64 9.40371L20.7869 9.02577C21.244 7.85041 22.5444 7.24213 23.7395 7.64467C23.8649 7.68691 23.9865 7.73961 24.1031 7.80223L24.2516 7.88205C25.7799 8.70309 26.6762 10.3518 26.5344 12.0808L26.5179 12.2818C26.506 12.427 26.4822 12.5711 26.4469 12.7124Z" fill="black" stroke="black"/>
<path d="M13.1195 12.9242C12.2998 15.8234 9.7517 17.4668 7.5531 16.8452C5.35449 16.2236 4.04395 13.4894 4.8636 10.5902C5.68324 7.69095 8.23136 6.04762 10.43 6.66918C12.6286 7.29075 13.9391 10.025 13.1195 12.9242Z" stroke="black"/>
<path d="M27.6841 9.93856C28.4534 12.9692 27.0055 15.7852 24.6756 16.3766C22.3457 16.968 19.73 15.1835 18.9608 12.1528C18.1915 9.12209 19.6394 6.30611 21.9693 5.71472C24.2992 5.12332 26.9149 6.90787 27.6841 9.93856Z" stroke="black"/>
<rect x="3.34534" y="8.98999" width="0.908212" height="1.68489" transform="rotate(-42.8186 3.34534 8.98999)" fill="black"/>
<rect x="27.7867" y="7.62207" width="0.908212" height="0.959664" transform="rotate(44.0594 27.7867 7.62207)" fill="black"/>
<path d="M13.5 11V11C15.1049 10.3581 16.8951 10.3581 18.5 11V11" stroke="black"/>
</svg>
