<svg width="34" height="36" viewBox="0 0 34 36" fill="none" xmlns="http://www.w3.org/2000/svg">
<path d="M1.86336 15.2354L2.9564 11.7354C4.34033 7.30387 7.66669 3.74356 11.9941 2.06207L12.9956 1.67291C15.7723 0.593971 18.8449 0.552602 21.6496 1.55639C26.0615 3.13537 29.2035 7.07032 29.7668 11.7222L29.8579 12.4738C29.9942 13.5993 30.2706 14.7033 30.6808 15.7603L31.7923 18.6241C32.8996 21.477 33.0317 24.6161 32.1682 27.552L31.7951 28.8206C31.3998 30.1646 30.6807 31.391 29.7008 32.3922C28.0703 34.0582 25.8308 34.987 23.4998 34.9641L10.0082 34.8313C5.47404 34.4925 1.87802 30.8731 1.56862 26.3369L1.19708 20.8895C1.06683 18.9798 1.29276 17.0625 1.86336 15.2354Z" fill="black" stroke="black" stroke-width="0.5"/>
<path d="M3.06281 16.4834L4.07346 12.8024C5.20691 8.67415 8.166 5.29087 12.1066 3.61775L13.118 3.18831C15.6765 2.102 18.5482 2.00892 21.1717 2.92727C25.2022 4.33818 28.0752 7.92422 28.5729 12.1655L28.6745 13.0313C28.8122 14.2045 29.1147 15.3525 29.573 16.4412L30.5092 18.6649C31.6344 21.3378 31.7931 24.3192 30.958 27.0964L30.6099 28.2541C30.2133 29.573 29.4796 30.7655 28.4812 31.7141C26.9423 33.1764 24.8805 33.9594 22.7588 33.8874L10.3585 33.4666C6.20286 33.1629 2.93863 29.7857 2.77633 25.6222L2.5828 20.6574C2.52793 19.2497 2.68982 17.8419 3.06281 16.4834Z" fill="#3CA502" stroke="white" stroke-width="1.5"/>
<path d="M9.60735 16.6396L9.47458 16.6612C8.12531 16.8811 6.78838 16.2049 6.166 14.9877C5.87734 14.4232 5.76592 13.7846 5.84631 13.1557L5.92165 12.5664C6.11013 11.092 6.93626 9.77461 8.18143 8.96288L8.53864 8.73002C8.96964 8.44905 9.45926 8.27051 9.96996 8.20809L10.4698 8.14699C11.9759 7.9629 13.3609 8.99448 13.6158 10.4902C13.6427 10.6479 13.6562 10.8076 13.6562 10.9676V11.5466C13.6562 13.4356 12.6345 15.1769 10.9855 16.0983L10.6967 16.2597C10.3584 16.4487 9.98978 16.5773 9.60735 16.6396Z" fill="white" stroke="white"/>
<path d="M9.62912 15.2877L9.49191 15.3097C8.49969 15.4685 7.51721 14.9743 7.0533 14.0829C6.83282 13.6593 6.74764 13.1783 6.80926 12.7047L6.86447 12.2804C7.00521 11.1987 7.61682 10.2345 8.5354 9.64615L8.82734 9.45917C9.15009 9.25246 9.51537 9.12136 9.89591 9.07567L10.3123 9.02566C11.4224 8.89235 12.4426 9.65149 12.6337 10.7531C12.6543 10.8717 12.6646 10.9919 12.6646 11.1123V11.4926C12.6646 12.9091 11.8929 14.2131 10.6512 14.8947L10.4453 15.0078C10.1913 15.1472 9.91522 15.2419 9.62912 15.2877Z" fill="black" stroke="black"/>
<path d="M28.5039 12.6349L28.5157 13.0314C28.528 13.4451 28.4636 13.8608 28.3274 14.2538C27.8272 15.6971 26.422 16.6641 24.8792 16.6158C24.2033 16.5946 23.5503 16.3802 22.9998 15.9987L22.3358 15.5386C21.0235 14.6292 20.1797 13.2022 20.0209 11.6239L19.9734 11.1517C19.9179 10.6005 19.9956 10.0428 20.2 9.52408L20.3447 9.1568C20.9633 7.58717 22.7283 6.76891 24.3372 7.30589C24.4987 7.35979 24.6554 7.42655 24.8057 7.5055L25.5174 7.87941C27.3071 8.8196 28.4444 10.6307 28.5039 12.6349Z" fill="white" stroke="white"/>
<path d="M27.213 13.6235L27.1901 13.6887C26.8189 14.7458 25.7949 15.4493 24.663 15.4249C24.15 15.4138 23.6534 15.2527 23.2366 14.9619L22.8101 14.6645C21.8211 13.9746 21.1912 12.8914 21.0852 11.6979L21.0553 11.3619C21.0187 10.9495 21.0798 10.5333 21.2337 10.1462L21.3677 9.80931C21.8264 8.65566 23.1235 8.05362 24.309 8.44408C24.4316 8.48444 24.5504 8.5348 24.6643 8.59464L25.1268 8.83759C26.476 9.5464 27.327 10.9181 27.3555 12.4296L27.3607 12.7079C27.3665 13.0187 27.3165 13.3287 27.213 13.6235Z" fill="black" stroke="black"/>
</svg>
