<svg width="33" height="36" viewBox="0 0 33 36" fill="none" xmlns="http://www.w3.org/2000/svg">
<path d="M1.2961 15.6766L2.22503 12.1943C3.48501 7.47116 6.95147 3.64897 11.5295 1.93503L12.4644 1.58503C15.1986 0.561396 18.2065 0.536931 20.957 1.51596C25.3771 3.08928 28.5281 7.02592 29.0952 11.6833L29.159 12.2067C29.3039 13.3967 29.6098 14.5615 30.0684 15.6692L30.9939 17.9046C32.2869 21.0278 32.3997 24.5147 31.3112 27.7149L30.9135 28.8841C30.4619 30.2117 29.7003 31.4126 28.6918 32.387C26.9715 34.049 24.6499 34.941 22.2593 34.8586L9.4528 34.4167C4.97882 34.0823 1.43702 30.4991 1.15465 26.0216L0.810825 20.5693C0.706997 18.9229 0.870882 17.2705 1.2961 15.6766Z" fill="black" stroke="black" stroke-width="0.5"/>
<path d="M2.23644 15.64L3.14765 12.4297C4.39514 8.03454 7.66585 4.49901 11.9508 2.91378L13.0037 2.52424C15.4902 1.60437 18.2217 1.59304 20.7157 2.49226C24.7229 3.93705 27.5689 7.52295 28.0662 11.7535L28.1537 12.4981C28.2864 13.6274 28.5732 14.7331 29.006 15.7846L30.0009 18.2012C31.1329 20.9511 31.2927 24.005 30.4538 26.8581L30.0801 28.1287C29.6905 29.4537 28.9653 30.6557 27.9748 31.6182C26.4088 33.1398 24.29 33.9572 22.1077 33.8814L9.67447 33.45C5.56268 33.1426 2.30818 29.8485 2.05062 25.7333L1.71984 20.4484C1.61842 18.8279 1.79311 17.202 2.23644 15.64Z" fill="#FF9100" stroke="white" stroke-width="1.5"/>
<path d="M8.9151 16.0975L8.84652 16.1089C7.45176 16.3414 6.06849 15.637 5.43613 14.3723C5.15175 13.8035 5.04209 13.1633 5.12096 12.5323L5.20496 11.8603C5.39231 10.3615 6.2224 9.0184 7.47916 8.18056L7.83801 7.94133C8.27335 7.6511 8.77029 7.46621 9.28947 7.40132L9.72163 7.3473C11.2741 7.15324 12.7031 8.21866 12.9603 9.7619C12.9867 9.92036 13 10.0807 13 10.2414V10.9186C13 12.8241 11.979 14.5834 10.3246 15.5288L10.0148 15.7058C9.67431 15.9004 9.30196 16.033 8.9151 16.0975Z" fill="white" stroke="white"/>
<path d="M8.9375 14.7032L8.84728 14.718C7.82149 14.886 6.80489 14.371 6.33342 13.4446C6.11617 13.0177 6.03233 12.5354 6.09278 12.0602L6.1501 11.6097C6.29281 10.4881 6.91976 9.48531 7.8656 8.86581L8.12932 8.69308C8.45541 8.4795 8.82622 8.34371 9.21312 8.2962L9.57993 8.25115C10.7242 8.11062 11.7768 8.89474 11.9696 10.0314C11.9898 10.1506 12 10.2713 12 10.3922V10.8447C12 12.2734 11.2287 13.5909 9.98289 14.2903L9.76157 14.4146C9.50583 14.5581 9.22693 14.6558 8.9375 14.7032Z" fill="black" stroke="black"/>
<path d="M27.7957 13.6333L27.7783 13.6845C27.2807 15.1528 25.8811 16.1227 24.3315 16.0731C23.641 16.051 22.9722 15.8262 22.4085 15.4267L21.7807 14.9818C20.4401 14.0317 19.5777 12.5468 19.4168 10.9117L19.3701 10.4371C19.3142 9.869 19.392 9.29574 19.5973 8.76312L19.7592 8.34292C20.3755 6.74368 22.1451 5.91701 23.7671 6.47063C23.9323 6.52703 24.0927 6.5969 24.2465 6.67953L24.9226 7.04279C26.7495 8.02424 27.9126 9.90702 27.9728 11.9799L27.9843 12.3757C27.9967 12.8028 27.9328 13.2286 27.7957 13.6333Z" fill="white" stroke="white"/>
<path d="M26.6709 12.986L26.6381 13.0816C26.2689 14.1569 25.2465 14.8699 24.1099 14.8448C23.5858 14.8332 23.0773 14.6643 22.6506 14.3599L22.2464 14.0715C21.2396 13.3534 20.5981 12.2302 20.4911 10.9982L20.4611 10.6538C20.4242 10.2289 20.4854 9.80122 20.64 9.40371L20.7869 9.02577C21.244 7.85041 22.5444 7.24213 23.7395 7.64467C23.8649 7.68691 23.9865 7.73961 24.1031 7.80223L24.538 8.03588C25.9152 8.77582 26.7857 10.2017 26.8144 11.7649L26.8195 12.0422C26.8254 12.3631 26.7751 12.6825 26.6709 12.986Z" fill="black" stroke="black"/>
<path d="M25.3872 20.8806C24.7775 20.7608 24.2232 20.5274 22.7275 19.7609C22.5595 19.6748 21.9944 19.2925 21.4719 18.9114C20.3646 18.1039 19.9532 17.8601 19.1484 17.5349C18.1803 17.1437 17.9084 16.9777 17.5 16.9038C16.7982 16.7768 17.006 16.959 17.2234 15.2884C17.2391 15.168 17.2548 14.9561 17.2584 14.8176C17.2647 14.5748 17.2827 14.5683 17.7554 14.6358C18.2525 14.7068 19.3711 15.0612 19.6585 15.2388C19.7448 15.2921 20.012 15.4539 20.2523 15.5983C20.4925 15.7427 20.8718 16.0401 21.0951 16.2591C21.3184 16.4781 21.5279 16.6573 21.5607 16.6574C21.5935 16.6575 21.7168 16.7684 21.8347 16.9038C22.1672 17.2858 22.4322 17.5418 23.1114 18.1374C23.6666 18.6241 23.882 18.7828 24.524 19.1779C24.8964 19.4071 25.4227 19.5948 25.8973 19.6677C26.1779 19.7109 26.5134 19.7638 26.6428 19.7854C26.9512 19.8367 27.8047 19.5578 28.0766 19.3168C28.6896 18.7735 29.0521 18.0338 29.2301 16.9629C29.4275 15.7752 29.219 14.6322 28.7091 14.106C28.2984 13.6823 27.3949 13.9001 26.8009 14.5661C26.7151 14.6622 26.7685 14.5261 26.9195 14.2637C27.5879 13.1019 28.5278 12.9746 29.3153 13.9394C29.891 14.6448 30.1269 15.878 29.9337 17.1728C29.8206 17.9311 29.4129 19.2074 29.1614 19.5904C28.3534 20.8207 27.1595 21.2288 25.3872 20.8806ZM4.82652 20.6379C4.34658 20.5568 3.75634 20.2879 3.49243 20.0302C3.05788 19.6058 2.73218 19.0672 2.44915 18.3049C1.70154 16.2913 1.89869 14.38 2.95496 13.4014C3.65253 12.7551 4.2532 12.8824 4.99245 13.8333C5.18174 14.0768 5.33607 14.3313 5.33541 14.3989C5.33453 14.4885 5.31855 14.4889 5.27656 14.4004C5.18765 14.2132 4.46567 13.7084 4.1797 13.6336C2.96556 13.3157 2.28059 15.3582 2.93342 17.3498C3.56143 19.2657 4.95049 19.8901 6.86917 19.119C7.74275 18.7679 8.41816 18.2905 9.55927 17.2178C10.0474 16.7589 10.5064 16.3344 10.5795 16.2743C10.6525 16.2142 10.8182 16.0625 10.9476 15.9372C11.6457 15.2617 12.7223 14.695 13.7335 14.4708C14.0573 14.399 14.401 14.3229 14.4974 14.3017C14.5938 14.2806 14.6951 14.3137 14.7224 14.3754C14.7497 14.4371 14.8134 14.9702 14.8639 15.5601L14.9558 16.6326L14.5605 16.6977C14.1168 16.7708 13.0332 17.1198 12.4387 17.3809C12.2229 17.4757 11.3753 18.0122 10.5553 18.573C8.80491 19.77 8.46298 19.9614 7.41623 20.3296C6.67228 20.5914 5.4278 20.7395 4.82652 20.6379Z" fill="#9A0000"/>
</svg>
