<svg width="34" height="36" viewBox="0 0 34 36" fill="none" xmlns="http://www.w3.org/2000/svg">
<path d="M1.76678 15.9271L3.0174 11.7307C4.34527 7.27511 7.66147 3.68552 11.9981 2.00958L12.9381 1.6463C15.6865 0.584161 18.7248 0.543424 21.5007 1.5315C25.894 3.0953 29.026 7.00812 29.5897 11.6373L29.659 12.2067C29.8039 13.3967 30.1098 14.5615 30.5684 15.6692L31.4939 17.9046C32.787 21.0278 32.8998 24.5147 31.8112 27.7149L31.4136 28.8841C30.962 30.2117 30.2003 31.4126 29.1918 32.387C27.4715 34.049 25.1499 34.941 22.7593 34.8586L9.95283 34.4167C5.44447 34.0816 1.86325 30.4921 1.53866 25.9829L1.19276 21.1778C1.06531 19.4073 1.25979 17.6283 1.76678 15.9271Z" fill="black" stroke="black" stroke-width="0.5"/>
<path d="M2.80828 15.9706L3.83292 12.1541C4.97283 7.90821 8.06686 4.45918 12.1644 2.86659L12.9563 2.55882C15.5429 1.55348 18.4054 1.51493 21.0182 2.45026C25.127 3.92113 28.053 7.58601 28.5775 11.9185L28.6497 12.5143C28.7851 13.633 29.0712 14.7282 29.5002 15.7702L30.5009 18.2012C31.633 20.9511 31.7927 24.0051 30.9538 26.8581L30.5802 28.1288C30.1906 29.4538 29.4654 30.6557 28.4749 31.6182C26.9088 33.1399 24.79 33.9572 22.6078 33.8815L10.1745 33.45C5.98313 33.1367 2.69507 29.7264 2.53498 25.5263L2.33201 20.2015C2.27765 18.7753 2.4382 17.349 2.80828 15.9706Z" fill="#FF089C" stroke="white" stroke-width="1.5"/>
<path d="M9.4151 16.0975L9.34652 16.1089C7.95176 16.3414 6.56849 15.637 5.93613 14.3723C5.65175 13.8035 5.54209 13.1633 5.62096 12.5323L5.70496 11.8603C5.89231 10.3615 6.7224 9.0184 7.97916 8.18056L8.33801 7.94133C8.77335 7.6511 9.27029 7.46621 9.78947 7.40132L10.2216 7.3473C11.7741 7.15324 13.2031 8.21866 13.4603 9.7619C13.4867 9.92036 13.5 10.0807 13.5 10.2414V10.9186C13.5 12.8241 12.479 14.5834 10.8246 15.5288L10.5148 15.7058C10.1743 15.9004 9.80196 16.033 9.4151 16.0975Z" fill="white" stroke="white"/>
<path d="M9.4375 14.7032L9.34728 14.718C8.32149 14.886 7.30489 14.371 6.83342 13.4446C6.61617 13.0177 6.53233 12.5354 6.59278 12.0602L6.6501 11.6097C6.79281 10.4881 7.41976 9.48531 8.3656 8.86581L8.62932 8.69308C8.95541 8.4795 9.32622 8.34371 9.71312 8.2962L10.0799 8.25115C11.2242 8.11062 12.2768 8.89474 12.4696 10.0314C12.4898 10.1506 12.5 10.2713 12.5 10.3922V10.8447C12.5 12.2734 11.7287 13.5909 10.4829 14.2903L10.2616 14.4146C10.0058 14.5581 9.72693 14.6558 9.4375 14.7032Z" fill="black" stroke="black"/>
<path d="M28.2957 13.6333L28.2783 13.6845C27.7807 15.1528 26.3811 16.1227 24.8315 16.0731C24.141 16.051 23.4722 15.8262 22.9085 15.4267L22.2807 14.9818C20.9401 14.0317 20.0777 12.5468 19.9168 10.9117L19.8701 10.4371C19.8142 9.869 19.892 9.29574 20.0973 8.76312L20.2592 8.34292C20.8755 6.74368 22.6451 5.91701 24.2671 6.47063C24.4323 6.52703 24.5927 6.5969 24.7465 6.67953L25.4226 7.04279C27.2495 8.02424 28.4126 9.90702 28.4728 11.9799L28.4843 12.3757C28.4967 12.8028 28.4328 13.2286 28.2957 13.6333Z" fill="white" stroke="white"/>
<path d="M27.1709 12.986L27.1381 13.0816C26.7689 14.1569 25.7465 14.8699 24.6099 14.8448C24.0858 14.8332 23.5773 14.6643 23.1506 14.3599L22.7464 14.0715C21.7396 13.3534 21.0981 12.2302 20.9911 10.9982L20.9611 10.6538C20.9242 10.2289 20.9854 9.80122 21.14 9.40371L21.2869 9.02577C21.744 7.85041 23.0444 7.24213 24.2395 7.64467C24.3649 7.68691 24.4865 7.73961 24.6031 7.80223L25.038 8.03588C26.4152 8.77582 27.2857 10.2017 27.3144 11.7649L27.3195 12.0422C27.3254 12.3631 27.2751 12.6825 27.1709 12.986Z" fill="black" stroke="black"/>
</svg>
