<svg width="1920" height="1080" viewBox="0 0 1920 1080" fill="none" xmlns="http://www.w3.org/2000/svg">
<g clip-path="url(#clip0_806_3256)">
<rect width="1920" height="1080" fill="#D624F9"/>
<path d="M1140.26 139.5C1138.77 146.53 1133.88 152.965 1126.76 152C1120.04 151.09 1120.3 136.892 1126.76 132C1134.12 126.43 1142.01 131.231 1140.26 139.5Z" fill="#FF5ED9"/>
<path d="M1033.77 489C1031.25 499.689 1021.72 509.711 1011.77 507.5C998.361 504.521 1003.23 479.114 1015.27 472.5C1028.01 465.501 1037.69 472.354 1033.77 489Z" fill="#FF5ED9"/>
<path d="M572.046 202.222C569.528 212.911 559.999 222.933 550.046 220.722C536.636 217.743 541.506 192.336 553.546 185.722C566.286 178.723 575.966 185.576 572.046 202.222Z" fill="#FF5ED9"/>
<path d="M95.0456 1041.22C92.5281 1051.91 82.9988 1061.93 73.0456 1059.72C59.636 1056.74 64.5063 1031.34 76.5456 1024.72C89.2856 1017.72 98.9659 1024.58 95.0456 1041.22Z" fill="#FF5ED9"/>
<path d="M920.746 405.609C916.024 415.519 905.121 421.388 898.13 421.598C883.947 422.025 885.263 398.993 895.999 388.318C909.626 374.768 929.521 387.188 920.746 405.609Z" fill="#FF5ED9"/>
<path d="M1060.26 956.5C1059.54 962.558 1052.73 970.337 1046.76 969.114C1032.3 966.156 1036.31 943.128 1049.76 942.883C1058.38 942.725 1061.3 947.66 1060.26 956.5Z" fill="#FF5ED9"/>
<path d="M1046.82 621.498C1034.81 652.002 1013.75 737.996 987.744 724.5C961.734 711.004 1061.75 514.657 1109.26 514.657C1156.77 514.658 1137.25 548.165 1125.75 560.661C1114.26 573.157 1058.83 590.994 1046.82 621.498Z" fill="#FF5ED9"/>
<path d="M666.326 296.841C654.317 327.345 633.257 413.339 607.247 399.843C581.238 386.347 681.254 190 728.762 190C776.269 190 756.756 223.508 745.259 236.004C733.762 248.5 678.335 266.337 666.326 296.841Z" fill="#FF5ED9"/>
<path d="M971.258 621.502C956.259 640.001 950.257 647.402 941.258 640.002C932.26 632.602 932.757 617.502 950.258 596.502C967.76 575.501 986.258 603.003 971.258 621.502Z" fill="#FF5ED9"/>
<path d="M472.762 913.557C457.763 932.056 451.761 939.457 442.762 932.057C433.764 924.657 434.261 909.558 451.762 888.557C469.264 867.557 487.762 895.058 472.762 913.557Z" fill="#FF5ED9"/>
<path d="M568.839 612.214C557.839 616.718 555.873 631.214 542.135 637.635C528.396 644.055 536.404 596.013 555.872 584.362C575.34 572.712 579.84 607.709 568.839 612.214Z" fill="#FF5ED9"/>
<path d="M280.582 1033.21C269.581 1037.72 267.615 1052.21 253.877 1058.63C240.138 1065.06 248.146 1017.01 267.614 1005.36C287.082 993.712 291.582 1028.71 280.582 1033.21Z" fill="#FF5ED9"/>
<path d="M509.918 1046.36C500.775 1055.3 479.246 1053.5 477.418 1042.36C475.591 1031.21 479.508 1022.92 494.014 1019.42C508.52 1015.92 521.174 1035.35 509.918 1046.36Z" fill="#A64CEA"/>
<path d="M1330.92 1063.36C1321.78 1072.3 1300.25 1070.5 1298.42 1059.36C1296.59 1048.21 1300.51 1039.92 1315.01 1036.42C1329.52 1032.92 1342.17 1052.35 1330.92 1063.36Z" fill="#FF5ED9"/>
<path d="M382.918 705.357C373.775 714.298 352.246 712.5 350.418 701.357C348.591 690.214 352.508 681.916 367.014 678.416C381.52 674.915 394.174 694.351 382.918 705.357Z" fill="#FF5ED9"/>
<path d="M686.836 956.533C692.928 968.711 685.148 991.68 673.846 990.886C662.543 990.091 655.607 983.758 656.287 967.105C656.967 950.452 679.336 941.541 686.836 956.533Z" fill="#FF5ED9"/>
<path d="M186.813 656.579C198.262 676.16 185.683 712.071 165.599 710.215C145.514 708.36 132.879 697.977 133.202 671.678C133.525 645.379 172.719 632.473 186.813 656.579Z" fill="#FF5ED9"/>
<path d="M669.246 870.983C625.746 873.483 593.238 932.483 571.748 928.983C550.258 925.483 552.238 880.559 606.246 857.483C660.253 834.406 652.258 773.983 617.746 796.483C583.233 818.983 558.258 804 576.746 773.983C595.233 743.965 615.733 743.484 628.246 712.483C640.758 681.481 611.758 659.482 603.246 692.982C594.733 726.482 583.258 653.5 616.981 637.998C650.705 622.495 668.481 641.499 668.481 662.999C668.481 684.499 634.758 735.983 649.246 744.983C663.733 753.983 676.234 754.983 701.246 744.983C726.258 734.983 756.734 745.983 761.746 759.983C766.758 773.983 767.758 796.483 742.246 810.483C742.246 810.483 711.027 826.477 715.758 845.483C722.625 873.071 781.246 848.483 792.746 883.483C804.246 918.483 769.246 935.483 755.746 928.983C742.246 922.483 712.746 868.483 669.246 870.983Z" fill="#FF5ED9"/>
<path d="M60.0233 493.886C19.5385 477.777 -34.8482 517.525 -52.8489 505.275C-70.8496 493.025 -50.0787 453.142 8.6218 455.038C67.3223 456.934 85.5981 398.788 44.8119 404.605C4.02571 410.421 -12.2838 386.291 17.153 366.892C46.5898 347.493 65.3745 355.716 89.8107 332.902C114.247 310.087 97.2533 277.897 75.3873 304.666C53.5214 331.435 73.9475 260.436 111.063 260.63C148.178 260.823 156.264 285.557 147.183 305.044C138.101 324.532 85.787 356.953 95.1173 371.23C104.448 385.508 115.356 391.694 142.251 393.195C169.146 394.696 192.123 417.54 190.753 432.346C189.382 447.153 180.784 467.97 151.747 469.883C151.747 469.883 116.693 471.194 112.954 490.419C107.525 518.327 171.045 520.8 166.685 557.382C162.325 593.964 123.42 594.59 113.929 582.995C104.438 571.401 100.508 509.994 60.0233 493.886Z" fill="#FF5ED9"/>
<path d="M1804.02 361.339C1842.93 341.736 1849.28 274.673 1870.39 269.332C1891.49 263.992 1907.55 305.994 1867.19 348.655C1826.82 391.316 1858.2 443.569 1880.91 409.194C1903.62 374.819 1932.49 378.627 1927.48 413.522C1922.46 448.417 1903.84 457.016 1904.7 490.436C1905.56 523.856 1940.92 532.499 1935.4 498.378C1929.88 464.257 1969.44 526.647 1944.67 554.288C1919.9 581.929 1896.03 571.568 1887.48 551.844C1878.92 532.119 1889.38 471.468 1872.5 468.976C1855.63 466.484 1843.76 470.54 1824.8 489.667C1805.83 508.794 1773.49 510.829 1763.32 499.979C1753.16 489.13 1743.28 468.886 1761.12 445.89C1761.12 445.89 1783.4 418.794 1771.49 403.241C1754.21 380.663 1710.22 426.547 1685.74 399.013C1661.26 371.479 1686.61 341.956 1701.58 342.547C1716.55 343.139 1765.1 380.941 1804.02 361.339Z" fill="#FF5ED9"/>
<path d="M908.236 953.005C895.683 985.505 858.738 981.005 888.689 944.005C918.639 907.005 907.235 873.505 877.736 903.505C848.236 933.505 841.758 856.001 877.743 854.501C913.728 853.001 919.697 877.507 947.258 823C974.819 768.493 1013.63 820.372 994.258 838.497C974.886 856.622 947.346 867.252 954.758 887.998C962.169 908.743 972.932 910.272 979.241 929.505C985.549 948.738 967.246 971.005 952.741 939.005C938.236 907.005 920.789 920.505 908.236 953.005Z" fill="#FF5ED9"/>
<path d="M1541.07 1104.46C1530.35 1138.05 1498.8 1133.4 1524.38 1095.15C1549.96 1056.9 1540.22 1022.27 1515.02 1053.29C1489.83 1084.3 1484.29 1004.18 1515.03 1002.63C1545.76 1001.08 1550.86 1026.41 1574.4 970.063C1597.94 913.716 1631.09 967.346 1614.54 986.083C1598 1004.82 1574.48 1015.81 1580.81 1037.25C1587.14 1058.7 1596.33 1060.28 1601.72 1080.16C1607.11 1100.04 1591.47 1123.06 1579.08 1089.98C1566.69 1056.9 1551.79 1070.86 1541.07 1104.46Z" fill="#FF5ED9"/>
<path d="M252.319 614.837C241.769 649.357 210.719 644.577 235.891 605.277C261.062 565.978 251.478 530.396 226.685 562.26C201.893 594.125 196.448 511.804 226.691 510.21C256.934 508.617 261.951 534.646 285.114 476.751C308.278 418.856 340.896 473.96 324.615 493.212C308.334 512.463 285.189 523.754 291.418 545.789C297.646 567.824 306.692 569.448 311.994 589.876C317.295 610.304 301.913 633.955 289.722 599.967C277.532 565.978 262.869 580.317 252.319 614.837Z" fill="#A64CEA"/>
<path d="M1083.77 854.997C1062.78 939.494 1111.76 932 1134.26 878C1156.76 824 1206.78 795 1191.28 852.5C1175.78 910 1218.82 893.857 1224.28 858.5C1229.75 823.143 1249.35 774.717 1270.78 819C1292.21 863.283 1317.78 814 1317.78 778.503C1317.78 743.006 1332.26 727.5 1346.28 727.5C1360.3 727.5 1381.93 719.5 1379.76 682C1377.59 644.5 1385.28 615.006 1418.28 607.526C1451.28 600.045 1448.78 535.041 1409.28 550.522C1369.78 566.003 1354.26 643.879 1322.76 698.969C1268.87 793.217 1249.26 707.224 1295.76 665.997C1342.26 624.77 1304.26 572.155 1259.26 619.997C1214.26 667.839 1259.26 732.5 1206.27 758.997C1153.27 785.494 1104.76 770.5 1083.77 854.997Z" fill="#A64CEA"/>
<path d="M532.447 739.464C558.199 659.517 512.683 663.161 487.891 713.59C463.099 764.018 414.979 788.326 433.619 734.011C452.258 679.695 411.536 692.116 403.805 725.812C396.074 759.507 374.365 804.773 358.109 760.502C341.852 716.232 314.606 761.887 311.878 796.118C309.15 830.348 294.671 844.243 281.81 843.217C268.948 842.192 248.486 848.325 247.597 884.646C246.707 920.967 237.384 948.846 206.534 953.647C175.684 958.448 172.981 1021.32 210.41 1009.28C247.838 997.235 268.061 923.272 301.195 872.45C357.881 785.505 369.261 869.865 323.432 906.221C277.603 942.577 308.422 996.094 353.382 953.249C398.342 910.404 362.029 844.759 412.683 823.082C463.338 801.405 506.695 819.412 532.447 739.464Z" fill="#A64CEA"/>
<path d="M1085.26 796.5C1086.07 801.713 1081.92 805.909 1076.76 807C1067.73 808.909 1064.73 793.367 1072.76 789.5C1077.8 787.073 1084.39 790.973 1085.26 796.5Z" fill="#FF5ED9"/>
<path d="M1073.26 714.524C1084.11 728.698 1095.77 703.527 1110.26 693.5C1124.76 683.473 1143.28 693.526 1154.27 670.5C1165.26 647.474 1152.76 630.247 1122.77 635.526C1103.56 638.908 1061.41 699.031 1073.26 714.524Z" fill="#FF5ED9"/>
<path d="M1768.07 745.956C1778.91 760.129 1790.58 734.958 1805.07 724.932C1819.56 714.905 1838.09 724.958 1849.07 701.932C1860.06 678.906 1847.57 661.678 1817.57 666.958C1798.36 670.34 1756.21 730.462 1768.07 745.956Z" fill="#FF5ED9"/>
<path d="M155.067 859.956C165.911 874.129 177.576 848.958 192.069 838.932C206.562 828.905 225.087 838.958 236.075 815.932C247.062 792.906 234.566 775.678 204.575 780.958C185.362 784.34 143.214 844.462 155.067 859.956Z" fill="#FF5ED9"/>
<path d="M1735.99 290.273C1743.27 306.567 1760.43 284.769 1776.84 278.36C1793.26 271.951 1808.96 286.009 1824.97 266.142C1840.98 246.275 1832.8 226.628 1802.4 224.84C1782.92 223.695 1728.03 272.461 1735.99 290.273Z" fill="#FF5ED9"/>
<path d="M1232.26 585.002C1223.53 597.043 1209.76 605.5 1203.26 598.502C1196.76 591.505 1200.34 577.607 1209.76 566.002C1221.9 551.046 1244.21 568.524 1232.26 585.002Z" fill="#FF5ED9"/>
<path d="M1585.3 891.68C1576.57 903.721 1562.8 912.178 1556.3 905.18C1549.8 898.182 1553.38 884.284 1562.8 872.68C1574.95 857.723 1597.25 875.201 1585.3 891.68Z" fill="#FF5ED9"/>
<path d="M907.428 742.785C900.797 777.592 867.694 763.315 870.757 744.288C873.821 725.26 871.813 709.232 860.55 711.24C849.287 713.249 847.099 719.252 844.58 724.759C838.388 738.301 825.181 742.293 820.458 721.26C815.734 700.227 848.282 654.659 884.928 675.194C901.717 684.602 910.386 727.263 907.428 742.785Z" fill="#A64CEA"/>
<path d="M111.806 807.219C95.2619 838.552 67.7991 815.197 76.3065 797.904C84.8139 780.611 87.5929 764.698 76.2361 763.316C64.8792 761.934 61.0274 767.032 57.0046 771.56C47.1143 782.691 33.3178 782.636 34.9681 761.142C36.6184 739.648 81.0953 705.624 110.11 736.001C123.404 749.918 119.185 793.246 111.806 807.219Z" fill="#A64CEA"/>
<path d="M835.771 504.711C806.701 539.716 787.08 506.336 802.477 486.903C817.874 467.469 826.803 448.662 815.544 444.904C804.286 441.147 785.579 490.404 779.686 495.163C765.195 506.864 752.662 493.736 760.765 465.027C768.867 436.318 834.304 381.561 861.054 404.496C877.085 418.241 848.735 489.101 835.771 504.711Z" fill="#FF5ED9"/>
<path d="M769.753 640.999C766.743 648.63 757.312 656.358 751.753 652.499C742.949 646.387 745.459 632.468 751.753 627.499C764.707 617.272 776.449 624.025 769.753 640.999Z" fill="#FF5ED9"/>
<path d="M404.7 40.3232C401.69 47.9539 392.259 55.6818 386.7 51.8232C377.896 45.7117 380.407 31.7925 386.7 26.8232C399.654 16.5961 411.396 23.3497 404.7 40.3232Z" fill="#FF5ED9"/>
<path d="M845.136 818.413C839.149 826.081 820.393 833.847 809.337 829.969C791.827 823.828 796.82 809.84 809.337 804.847C835.099 794.57 858.453 801.356 845.136 818.413Z" fill="#FF5ED9"/>
<path d="M704.423 536.108C706.913 553.141 698.414 565.108 688.423 565.108C678.431 565.108 671.931 538.603 678.923 528.608C685.915 518.613 701.933 519.075 704.423 536.108Z" fill="#A64CEA"/>
<path d="M626.871 549.164C616.078 574.028 585.357 513.665 564.875 503.664C544.392 493.663 537.375 501.663 513.388 501.663C500.526 501.663 469.374 467.665 506.871 425.163C544.368 382.662 666.371 458.166 626.871 549.164Z" fill="#A64CEA"/>
<path d="M1983.35 800.128C1994.8 824.695 1929.25 807.652 1908.18 816.348C1887.11 825.044 1888.44 835.602 1872.53 853.554C1864 863.18 1817.89 863.944 1810.96 807.692C1804.02 751.44 1941.44 710.211 1983.35 800.128Z" fill="#FF5ED9"/>
<path d="M887.758 577.5C858.758 588.999 864.763 617.005 844.263 613.505C823.763 610.004 841.073 573.186 850.758 554.5C857.755 541 886.258 522.999 908.758 524.5C931.258 526.001 916.758 566.001 887.758 577.5Z" fill="#A64CEA"/>
<path d="M1166.76 411.5C1136.76 424.235 1148.26 446.667 1128.17 446.667C1108.08 446.667 1122.74 416.194 1132.76 395.5C1139.99 380.549 1171.6 346.436 1194.88 348.098C1218.15 349.76 1196.75 398.765 1166.76 411.5Z" fill="#FF5ED9"/>
<path d="M227.337 330.274C198.936 346.251 212.843 367.273 192.878 369.496C172.912 371.719 184.11 339.811 191.775 318.135C197.313 302.475 224.954 265.073 248.267 264.15C271.58 263.226 255.739 314.298 227.337 330.274Z" fill="#FF5ED9"/>
<path d="M431.257 514.186C472.254 481.187 509.258 557.687 502.257 571.687C495.256 585.687 476.758 582.687 467.758 568.187C458.758 553.688 454.258 539.187 439.761 542.186C425.265 545.185 390.259 547.186 431.257 514.186Z" fill="#FF5ED9"/>
<path d="M570.257 94.1862C611.254 61.1868 648.258 137.687 641.257 151.687C634.256 165.687 615.758 162.687 606.758 148.187C597.758 133.688 593.258 119.187 578.761 122.186C564.265 125.185 529.259 127.186 570.257 94.1862Z" fill="#FF5ED9"/>
<path d="M722.419 396.765C719.436 412.271 698.623 452.583 691.377 434.365C687.127 423.678 693.155 389.24 703.413 373.058C716.828 351.898 728.303 366.178 722.419 396.765Z" fill="#FF5ED9"/>
<path d="M867.607 1033.53C864.698 1043.88 844.407 1070.78 837.343 1058.62C833.199 1051.49 839.076 1028.51 849.077 1017.71C862.156 1003.59 873.344 1013.12 867.607 1033.53Z" fill="#FF5ED9"/>
<path d="M426.607 346.531C423.698 356.878 403.407 383.778 396.343 371.621C392.199 364.49 398.076 341.51 408.077 330.712C421.156 316.592 432.344 326.121 426.607 346.531Z" fill="#FF5ED9"/>
<path d="M951.26 464.5C949.65 467.91 945.973 468.658 942.26 468C933.616 466.468 935.176 457.7 942.26 454.5C948.509 451.677 954.445 457.752 951.26 464.5Z" fill="#FF5ED9"/>
<path d="M48.9123 818.709C47.3024 822.119 43.6256 822.867 39.9123 822.209C31.2688 820.677 32.8281 811.909 39.9123 808.709C46.1618 805.886 52.0977 811.961 48.9123 818.709Z" fill="#FF5ED9"/>
<path d="M573.912 984.709C572.302 988.119 568.626 988.867 564.912 988.209C556.269 986.677 557.828 977.909 564.912 974.709C571.162 971.886 577.098 977.961 573.912 984.709Z" fill="#FF5ED9"/>
<path d="M254.912 433.709C253.302 437.119 249.626 437.867 245.912 437.209C237.269 435.677 238.828 426.909 245.912 423.709C252.162 420.886 258.098 426.961 254.912 433.709Z" fill="#FF5ED9"/>
<path d="M1254.76 467.504C1245.69 483.755 1232.68 490.784 1224.76 484.004C1210.9 472.137 1219.46 451.642 1238.76 445.004C1252.48 440.288 1263.64 451.602 1254.76 467.504Z" fill="#FF5ED9"/>
<path d="M1298.21 507.001C1294 526.001 1317.39 561.021 1343.23 522.001C1364.76 489.501 1389.23 443.001 1397.25 436.001C1405.26 429.001 1415.47 437 1409.76 457C1404.04 477 1443.76 484 1440.27 448C1436.79 412 1437.76 397 1461.26 388C1484.76 379 1487.75 356.089 1470.76 341C1441.26 314.805 1379.73 343.454 1349.25 368.501C1323.66 389.528 1319.01 421.944 1362.73 406.001C1378.23 400.35 1386.23 411.501 1377.73 429.001C1369.23 446.501 1305.65 473.44 1298.21 507.001Z" fill="#FF5ED9"/>
<path d="M1227.49 964.17C1232.38 945.331 1210.24 909.503 1183.03 947.58C1160.37 979.295 1134.25 1024.9 1126 1031.61C1117.74 1038.32 1107.82 1029.96 1114.24 1010.18C1120.66 990.393 1081.22 981.986 1083.43 1018.09C1085.63 1054.19 1084.13 1069.14 1060.32 1077.3C1036.52 1085.46 1032.71 1108.25 1049.16 1123.94C1077.71 1151.16 1140.22 1124.72 1171.57 1100.77C1197.89 1080.67 1203.68 1048.43 1159.43 1062.81C1143.74 1067.91 1136.14 1056.48 1145.25 1039.3C1154.37 1022.11 1218.86 997.445 1227.49 964.17Z" fill="#A64CEA"/>
<path d="M1520.26 509.999C1514.14 520.806 1503.26 530.999 1494.76 528.999C1486.26 526.998 1492.21 499.405 1503.26 493.999C1518.22 486.674 1527.31 497.537 1520.26 509.999Z" fill="#FF5ED9"/>
<path d="M1803.53 888.371C1797.41 899.178 1786.53 909.371 1778.03 907.371C1769.53 905.37 1775.48 877.777 1786.53 872.371C1801.49 865.046 1810.58 875.909 1803.53 888.371Z" fill="#FF5ED9"/>
<path d="M1544.77 421.499C1545.33 430.478 1535.68 441.489 1527.77 441.499C1515.88 441.513 1515.89 413.994 1527.77 410.999C1535.34 409.091 1544.29 413.71 1544.77 421.499Z" fill="#A64CEA"/>
<path d="M1633.26 435.511C1597.77 432.02 1491.77 621.016 1527.76 634.005C1563.76 646.995 1571.76 588.995 1569.76 569.495C1567.76 549.995 1571.76 534.005 1584.26 521.995C1596.76 509.984 1605.76 513.021 1633.26 499.011C1660.76 485 1668.75 439.001 1633.26 435.511Z" fill="#FF5ED9"/>
<path d="M806.851 945.048C771.358 941.557 665.357 1130.55 701.353 1143.54C737.349 1156.53 745.35 1098.53 743.35 1079.03C741.35 1059.53 745.353 1043.54 757.85 1031.53C770.346 1019.52 779.354 1022.56 806.851 1008.55C834.348 994.537 842.344 948.538 806.851 945.048Z" fill="#FF5ED9"/>
<path d="M479.096 189.597C446.786 174.495 283.937 317.448 313.56 341.675C343.182 365.902 370.026 313.87 374.629 294.815C379.232 275.761 388.328 262.015 404.109 254.847C419.89 247.679 427.374 253.541 457.966 249.478C488.557 245.416 511.405 204.699 479.096 189.597Z" fill="#FF5ED9"/>
<path d="M569.724 285.318C549.726 273.319 491.731 310.321 481.732 340.821C471.733 371.32 491.224 384.318 507.224 367.822C523.224 351.326 551.224 346.826 563.724 336.822C576.224 326.818 589.722 297.317 569.724 285.318Z" fill="#FF5ED9"/>
<path d="M447.724 978.318C427.726 966.319 369.731 1003.32 359.732 1033.82C349.733 1064.32 369.224 1077.32 385.224 1060.82C401.224 1044.33 429.224 1039.83 441.724 1029.82C454.224 1019.82 467.722 990.317 447.724 978.318Z" fill="#FF5ED9"/>
<path d="M1320.76 1011C1294.26 1047.5 1215.76 1017 1265.26 974.501C1314.76 932 1325.26 927 1331.26 886.501C1337.26 846.002 1383.76 869 1394.76 877.5C1405.76 886 1434.75 905.242 1460.25 850.242C1485.75 795.242 1563.07 833.903 1514.26 853.742C1465.44 873.581 1469.76 886.501 1479.26 921.001C1488.76 955.501 1474.76 969.001 1442.26 950.001C1409.75 931.001 1391.26 918.779 1364.76 934.501C1338.25 950.223 1347.26 974.501 1320.76 1011Z" fill="#FF5ED9"/>
<path d="M332.531 214.058C306.034 250.558 227.532 220.059 277.031 177.558C326.529 135.057 337.029 130.057 343.031 89.5579C349.032 49.0591 395.529 72.0566 406.529 80.5566C417.529 89.0566 446.525 108.299 472.025 53.2983C497.525 -1.70185 574.839 36.9593 526.028 56.7986C477.216 76.6379 481.528 89.5579 491.028 124.058C500.528 158.558 486.531 172.058 454.028 153.058C421.525 134.058 403.031 121.836 376.528 137.558C350.025 153.28 359.028 177.558 332.531 214.058Z" fill="#A64CEA"/>
<path d="M1430.26 859C1429.22 866.363 1418.8 870.829 1412.76 866.5C1406.71 862.166 1407.6 850.83 1414.26 847.5C1421.14 844.056 1431.33 851.379 1430.26 859Z" fill="#FF5ED9"/>
<path d="M1086.75 370.511C1073.74 419.521 977.561 391.186 1018.26 347.5C1058.96 303.814 1051.76 244.5 1003.76 305.5C955.756 366.5 959.753 308 987.759 275.5C1015.77 243 1035.26 263.511 1075.76 244C1116.25 224.489 1110.26 222.166 1132.63 214.178C1180.74 197.004 1214.73 269.707 1168.63 270.679C1082.25 272.502 1099.76 321.5 1086.75 370.511Z" fill="#A64CEA"/>
<path d="M1610.58 642.331C1598.85 592.998 1696.99 572.455 1681.81 630.197C1666.62 687.939 1701.02 736.79 1714.45 660.338C1727.88 583.886 1752.04 637.315 1742.74 679.198C1733.44 721.081 1706.56 712.237 1680.12 748.585C1653.67 784.933 1660.05 784.144 1644.12 801.767C1609.87 839.658 1545.52 791.689 1585.67 769.023C1660.91 726.547 1622.31 691.663 1610.58 642.331Z" fill="#FF5ED9"/>
<path d="M876.751 314.49C860.08 335 822.919 326.304 846.749 288.985C870.578 251.666 843.392 227.684 816.247 278.983C789.103 330.282 780.599 278.54 796.749 250.985C812.9 223.43 833.935 225.173 860.08 206.456C886.225 187.739 881.826 186.504 896.556 178.309C928.226 160.689 950.257 203.5 924.251 216.997C870.516 244.886 893.422 293.981 876.751 314.49Z" fill="#FF5ED9"/>
<path d="M1288.65 330.82C1283.86 340.797 1282.71 367.252 1261.96 362.415C1240.35 357.378 1255.79 329.563 1265.06 311.419C1275.11 291.761 1290.51 267.074 1310.99 274.281C1331.47 281.487 1293.43 320.842 1288.65 330.82Z" fill="#A64CEA"/>
<path d="M14.6475 285.779C9.86219 306.621 8.70874 361.882 -12.0414 351.778C-33.6485 341.256 -18.2102 283.154 -8.93828 245.253C1.10746 204.189 16.5057 152.622 36.9883 167.675C57.4709 182.728 19.4328 264.937 14.6475 285.779Z" fill="#A64CEA"/>
<path d="M1723.05 838.448C1720.62 847.931 1723.34 871.656 1706.15 869.897C1688.26 868.065 1696.72 841.37 1701.6 824.055C1706.89 805.294 1715.75 781.393 1733.05 785.297C1750.35 789.202 1725.49 828.965 1723.05 838.448Z" fill="#A64CEA"/>
<path d="M1027.75 174.503C1011.76 186.002 988.758 202.002 982.759 189.002C976.761 176.002 997.28 158.817 1014.25 150.003C1032.82 140.363 1064.76 122.002 1066.76 150.002C1068.76 178.002 1043.06 163.502 1027.75 174.503Z" fill="#FF5ED9"/>
<path d="M57.0602 646.375C41.0645 657.874 18.0645 673.874 12.066 660.874C6.06749 647.874 26.5869 630.689 43.5602 621.875C62.1222 612.235 94.0645 593.874 96.0645 621.874C98.0645 649.874 72.3631 635.374 57.0602 646.375Z" fill="#FF5ED9"/>
<path d="M995.257 70.9991C1000.22 79.5626 994.683 90.2189 985.757 94.4991C976.473 98.9513 963.606 75.9982 970.757 66.9991C976.788 59.4091 990.395 62.6124 995.257 70.9991Z" fill="#FF5ED9"/>
<path d="M1280.26 217C1279.59 226.277 1274.26 235.5 1266.76 238C1258.16 240.865 1253.4 228.538 1252.76 219.5C1252.05 209.506 1255.25 195.82 1265.26 195.5C1275.49 195.173 1281 206.789 1280.26 217Z" fill="#FF5ED9"/>
<path d="M285.598 87.5068C284.928 96.7837 279.594 106.007 272.094 108.507C263.499 111.372 258.733 99.0445 258.094 90.0068C257.387 80.0124 260.584 66.327 270.598 66.0068C280.831 65.6795 286.336 77.2956 285.598 87.5068Z" fill="#FF5ED9"/>
<path d="M1383.25 242.508C1375.21 269.008 1411.26 292.008 1427.27 251.008C1443.27 210.009 1455.56 209.819 1493.76 191.236C1531.96 172.654 1504.58 143.435 1513.77 107.003C1522.96 70.5706 1571.79 74.9999 1586.27 72.4999C1600.76 70 1611.35 38.9521 1589.76 26.504C1568.17 14.0558 1515.73 27.3746 1500.76 99.5058C1485.78 171.637 1445.28 169.007 1443.27 149.508C1441.26 130.009 1452.76 127.509 1457.26 110.509C1461.76 93.5088 1453.76 76.5088 1430.26 90.5088C1406.76 104.509 1423.28 166.508 1418.26 187.008C1413.23 207.508 1391.3 216.008 1383.25 242.508Z" fill="#FF5ED9"/>
<path d="M1718.76 524C1716.36 533.161 1707.58 538.526 1701.76 539.5C1690.36 541.41 1686.88 519.818 1696.26 511.5C1704.2 504.462 1721.73 512.701 1718.76 524Z" fill="#FF5ED9"/>
<path d="M1904.9 227.107C1902.5 236.267 1893.72 241.633 1887.9 242.607C1876.5 244.516 1873.02 222.925 1882.4 214.607C1890.34 207.569 1907.87 215.808 1904.9 227.107Z" fill="#FF5ED9"/>
<path d="M1468.9 38.1066C1466.5 47.2674 1457.72 52.6329 1451.9 53.6066C1440.5 55.5161 1437.02 33.9247 1446.4 25.6066C1454.34 18.5686 1471.87 26.8076 1468.9 38.1066Z" fill="#FF5ED9"/>
<path d="M1837.26 574.004C1836.2 588.731 1819.98 598.003 1808.76 600C1795.76 602.313 1780.45 600.525 1778.26 587.504C1776.21 575.367 1787.74 568.331 1799.26 564.004C1813.62 558.609 1838.36 558.698 1837.26 574.004Z" fill="#A64CEA"/>
<path d="M1527.08 749.703C1518.07 761.401 1499.43 760.189 1488.97 755.662C1476.85 750.419 1465.07 740.484 1470.42 728.414C1475.41 717.163 1488.91 717.651 1500.9 720.398C1515.86 723.824 1536.44 737.545 1527.08 749.703Z" fill="#A64CEA"/>
<path d="M1632.75 343.012C1624.75 375.512 1582.39 368.828 1585.24 327.01C1588.09 285.191 1628.24 271.496 1641.76 236.5C1655.27 201.503 1692.27 188.178 1713.76 190.513C1735.26 192.848 1740.48 217.323 1713.76 223.012C1683.26 229.507 1665.24 255.517 1655.26 268.512C1645.28 281.507 1640.74 310.512 1632.75 343.012Z" fill="#FF5ED9"/>
<path d="M287.83 730.703C268.762 758.209 231.574 736.846 249.161 698.798C266.749 660.751 309.145 662.289 334.26 634.42C359.374 606.551 398.689 607.308 417.936 617.161C437.184 627.014 433.323 651.741 406.337 647.52C375.524 642.7 349.412 660.567 335.451 669.144C321.49 677.721 306.897 703.197 287.83 730.703Z" fill="#FF5ED9"/>
<path d="M1652.76 151.498C1647.07 162.079 1636.44 165.285 1629.76 164.498C1612.07 162.415 1617.87 141.089 1633.26 130.998C1646.03 122.626 1660.76 136.618 1652.76 151.498Z" fill="#A64CEA"/>
<path d="M1514.26 266.5C1509.76 276 1513.41 298.751 1529.74 282.489C1534.25 278 1531.26 273 1536.76 268.5C1542.26 264 1531.12 284.565 1547.26 279C1561.76 274 1561.39 251.175 1564.24 241.989C1566.26 235.5 1565.26 222.601 1555.76 224C1538.77 226.5 1518.76 257 1514.26 266.5Z" fill="#FF5ED9"/>
<path d="M370.778 454.605C366.277 464.105 369.93 486.856 386.26 470.595C390.768 466.105 387.779 461.105 393.279 456.605C398.779 452.105 387.639 472.671 403.779 467.105C418.279 462.105 417.91 439.28 420.76 430.095C422.774 423.605 421.779 410.706 412.274 412.105C395.288 414.605 375.278 445.105 370.778 454.605Z" fill="#FF5ED9"/>
<path d="M1708.51 936.14C1715.14 927.98 1716.99 905.013 1697.27 916.932C1691.82 920.222 1693.54 925.789 1687.13 928.855C1680.72 931.92 1696.42 914.588 1679.42 916.162C1664.15 917.576 1659.09 939.836 1654.14 948.082C1650.64 953.907 1648.54 966.674 1658.11 967.572C1675.2 969.176 1701.88 944.3 1708.51 936.14Z" fill="#FF5ED9"/>
<path d="M639.509 1065.14C646.136 1056.98 647.991 1034.01 628.266 1045.93C622.821 1049.22 624.538 1054.79 618.127 1057.85C611.715 1060.92 627.419 1043.59 610.42 1045.16C595.147 1046.58 590.086 1068.84 585.136 1077.08C581.639 1082.91 579.543 1095.67 589.108 1096.57C606.202 1098.18 632.882 1073.3 639.509 1065.14Z" fill="#FF5ED9"/>
<path d="M1868.26 172C1869.54 176.927 1866.27 182.077 1861.26 183C1854.52 184.243 1849.29 169.878 1855.26 166.5C1860.06 163.783 1866.87 166.666 1868.26 172Z" fill="#A64CEA"/>
<path d="M160.611 352.539C161.896 357.466 158.618 362.616 153.611 363.539C146.868 364.782 141.645 350.417 147.611 347.039C152.408 344.322 159.22 347.205 160.611 352.539Z" fill="#A64CEA"/>
<path d="M1454.61 654.539C1455.9 659.466 1452.62 664.616 1447.61 665.539C1440.87 666.782 1435.64 652.417 1441.61 649.039C1446.41 646.322 1453.22 649.205 1454.61 654.539Z" fill="#FF5ED9"/>
<path d="M1405.61 991.539C1406.9 996.466 1403.62 1001.62 1398.61 1002.54C1391.87 1003.78 1386.64 989.417 1392.61 986.039C1397.41 983.322 1404.22 986.205 1405.61 991.539Z" fill="#FF5ED9"/>
<path d="M1634.61 19.5387C1635.9 24.4658 1632.62 29.6157 1627.61 30.5387C1620.87 31.7816 1615.64 17.4173 1621.61 14.0387C1626.41 11.3224 1633.22 14.2046 1634.61 19.5387Z" fill="#FF5ED9"/>
<path d="M1875.25 661.999C1893.26 673 1913.76 680.501 1920.25 694V601.499C1920.25 601.499 1890.75 622.998 1875.25 628.499C1859.76 634 1857.25 650.998 1875.25 661.999Z" fill="#FF5ED9"/>
<path d="M975.602 1011.54C936.466 1043.48 895.855 1082.95 874.248 1088.57L946.937 1145.78C946.937 1145.78 980.011 1069 1001.93 1032.26C1023.84 995.515 1014.74 979.599 975.602 1011.54Z" fill="#FF5ED9"/>
<path d="M1113.26 76.5004C1100.75 93.0004 1057.84 82.4017 1083.76 50.0004C1089.76 42.5004 1104.25 30.5004 1098.25 12.5004C1086.16 -23.7701 1092.76 -14.4998 1092.76 -14.4998L1422.76 -14.4997V-5.99992C1422.76 -5.99992 1406.76 27.0001 1383.26 36.5004C1359.76 46.0008 1356.04 40.1559 1345.76 47.0004C1311.7 69.6764 1342.65 132.066 1337.26 157C1331.31 184.5 1314.47 187.241 1301.26 174.5C1287.26 161 1292.76 142 1297.26 108C1298.09 101.731 1297.14 64.0504 1261.76 85.5004C1239.4 99.0535 1243.26 115.5 1234.76 146.5C1225.6 179.924 1197.4 178.319 1183.76 146.5C1171.83 118.685 1193.64 79.9033 1181.26 60.5004C1168.87 41.0976 1125.76 60.0004 1113.26 76.5004Z" fill="#FF5ED9"/>
<path d="M1277.26 36.5001C1276.09 45.9555 1269.65 52.3895 1260.26 54.0001C1248.83 55.9609 1237.61 48.0202 1236.26 36.5001C1234.94 25.3246 1243.09 15.3655 1254.26 14.0001C1266.73 12.4753 1278.81 24.0304 1277.26 36.5001Z" fill="#FF5ED9"/>
<path d="M-11.3292 72.061C-23.8344 88.561 -66.7458 77.9623 -40.8292 45.561C-34.8303 38.061 -20.3344 26.061 -26.3344 8.06097C-38.4245 -28.2096 -31.8301 -18.9392 -31.8301 -18.9392L298.17 -18.9391V-10.4394C298.17 -10.4394 282.17 22.5606 258.67 32.061C235.17 41.5614 231.449 35.7165 221.17 42.561C187.114 65.2369 218.06 127.626 212.669 152.561C206.723 180.061 189.882 182.802 176.67 170.061C162.67 156.561 168.17 137.561 172.67 103.561C173.5 97.2911 172.556 59.611 137.17 81.061C114.811 94.614 118.67 111.061 110.171 142.061C101.007 175.485 72.8158 173.88 59.1708 142.061C47.2425 114.245 69.0546 75.4639 56.6708 56.061C44.287 36.6581 1.17592 55.561 -11.3292 72.061Z" fill="#FF5ED9"/>
<path d="M152.671 32.0606C151.498 41.5161 145.061 47.95 135.671 49.5606C124.238 51.5214 113.026 43.5808 111.671 32.0606C110.356 20.8851 118.501 10.9261 129.671 9.56062C142.143 8.03588 154.217 19.5909 152.671 32.0606Z" fill="#FF5ED9"/>
<path d="M1883.67 901.4C1870.67 881.841 1899.92 847.945 1924.88 887.592C1930.66 896.77 1937.9 915.92 1960.13 919.343C2004.94 926.242 1992.05 927.675 1992.05 927.675L1856.68 1228.63L1847.34 1224.43C1847.34 1224.43 1817.65 1193.53 1816.85 1167.4C1816.05 1141.28 1824 1140.77 1820.7 1128.01C1809.76 1085.75 1728.52 1083.14 1703.34 1065.9C1675.56 1046.89 1679.46 1030.18 1698.88 1024.42C1719.45 1018.33 1738.07 1032.73 1773.58 1053.64C1780.13 1057.49 1821.91 1075.25 1812.86 1032.38C1807.14 1005.29 1787.49 1000.68 1756.92 977.613C1723.96 952.739 1737.28 927.822 1777.84 931.102C1813.29 933.97 1846.95 973.027 1873.35 971.322C1899.75 969.617 1896.66 920.959 1883.67 901.4Z" fill="#FF5ED9"/>
<path d="M1860.34 1070.73C1850.43 1064.99 1846 1055.94 1848.08 1046.58C1850.62 1035.19 1863.94 1028.88 1877.16 1033.34C1889.97 1037.66 1897.57 1050.01 1894.49 1060.88C1891.05 1073 1873.4 1078.31 1860.34 1070.73Z" fill="#D624F9"/>
<path d="M88.9334 900.049C105.747 870.357 80.9086 848.42 43.7015 877.108C25.945 890.799 26.8727 905.182 19.6195 924.421C12.1768 944.162 -5.63467 965.725 -28.4949 960.038C-51.3551 954.351 -92.0947 995.032 -92.0947 995.032L-42.3594 1115.14L9.61458 1093.62L21.1053 1055.85C21.1053 1055.85 29.8278 1033.78 12.2842 1034.55C-5.25938 1035.32 -8.58413 982.219 42.8208 993.222C94.2257 1004.22 165.898 959.637 174.983 932.063C184.069 904.49 161.01 896.72 147.448 902.336C133.887 907.952 100.686 942.805 80.9579 959.092C61.2301 975.378 30.3948 961.629 43.5149 945.373C56.6349 929.117 78.4064 918.639 88.9334 900.049Z" fill="#FF5ED9"/>
<path d="M805.42 91C827.029 140.308 876.267 150.644 905.42 102C920.978 76.0396 887.589 32.7811 910.918 13.5C921.58 4.68819 931.276 9.41763 940.918 -0.5C949.616 -9.44717 949.92 -17 949.92 -17H816.92C816.92 -17 788.395 52.1519 805.42 91Z" fill="#A64CEA"/>
<path d="M1792.52 98.2406C1822.5 147.658 1890.81 158.017 1931.26 109.265C1952.85 83.2468 1906.52 39.892 1938.89 20.568C1953.68 11.7365 1967.13 16.4765 1980.51 6.53676C1992.58 -2.43034 1993 -10 1993 -10H1808.47C1808.47 -10 1768.9 59.306 1792.52 98.2406Z" fill="#A64CEA"/>
<path d="M726.259 86C729.259 52 728.259 44 704.259 46C680.259 48 645.256 50.5 626.259 40.5C607.262 30.5 614.259 -6 614.259 -6L834.758 -5.5C834.758 -5.5 820.758 26.5 834.758 38C848.758 49.5 864.024 65.2511 862.758 84.5C861.106 109.628 843.259 105.5 834.758 95C826.258 84.5 827.259 78.5 820.758 69C814.258 59.5 794.258 56.5 794.258 87.5C794.258 118.5 795.758 114.5 798.258 150.5C800.758 186.5 769.499 190.564 765.758 150.5C763.052 121.508 768.758 87.5 768.758 76C768.758 64.5 751.759 50 749.758 90.5C747.758 131 723.259 120 726.259 86Z" fill="#FF5ED9"/>
<path d="M1752.75 119.5C1730.76 140.5 1742.66 170.271 1779.75 158C1797.45 152.144 1801.25 138.5 1812.75 123.5C1824.55 108.108 1844.76 95 1860.25 109C1875.75 123 1919.26 101 1919.26 101V-29H1873.25L1852.75 1.5C1852.75 1.5 1839.25 18.5569 1852.75 24.5569C1866.25 30.5569 1852.15 80.8892 1816.75 51.0569C1781.35 21.2246 1713.24 35 1697.75 57C1682.26 79 1697.25 95 1709.25 95C1721.26 95 1757.25 75.5 1777.25 68C1797.25 60.5 1816.25 85 1801.25 95C1786.25 105 1766.52 106.352 1752.75 119.5Z" fill="#FF5ED9"/>
</g>
<defs>
<clipPath id="clip0_806_3256">
<rect width="1920" height="1080" fill="white"/>
</clipPath>
</defs>
</svg>
